<?xml version="1.0" standalone="yes"?>
<svg xmlns="http://www.w3.org/2000/svg" width="104" height="86">
<path style="fill:#fefefe; stroke:none;" d="M0 0L0 86L104 86L104 0L0 0z"/>
<path style="fill:#c7c3bf; stroke:none;" d="M54 1L55 2L54 1z"/>
<path style="fill:#9e9fa0; stroke:none;" d="M55 1L55 2L58 3L55 1M53 2L54 3L53 2z"/>
<path style="fill:#403c39; stroke:none;" d="M5 17C-0.595523 35.9303 2 61.2796 2 81L99 84L102 21L71 20L58.7731 17.5664L57 2C49.3899 4.52576 56.3411 13.9977 50.5664 17.9722C47.6913 19.951 42.3089 19.0355 39 18.9961C28.0118 18.8654 15.8374 18.8682 5 17z"/>
<path style="fill:#c7c3bf; stroke:none;" d="M52 3L53 4L52 3z"/>
<path style="fill:#807c78; stroke:none;" d="M57 3L58 4L57 3z"/>
<path style="fill:#c7c3bf; stroke:none;" d="M58 3C58 16.886 58.8298 19 73 19L73 18L59 18L58 3z"/>
<path style="fill:#9e9fa0; stroke:none;" d="M52 4L52 7L53 7L52 4z"/>
<path style="fill:#807c78; stroke:none;" d="M52 7L52 17L53 17L52 7M57 15L57 18L58 18L57 15z"/>
<path style="fill:#c7c3bf; stroke:none;" d="M3 16L3 17L25 17L3 16z"/>
<path style="fill:#9e9fa0; stroke:none;" d="M3 17L3 21L4 21L3 17z"/>
<path style="fill:#807c78; stroke:none;" d="M4 17L5 18L4 17M6 17L7 18L6 17M8 17L8 18L25 18L8 17z"/>
<path style="fill:#9e9fa0; stroke:none;" d="M25 17L25 18L31 18L25 17z"/>
<path style="fill:#c7c3bf; stroke:none;" d="M31 17L31 18L45 18L31 17M51 17L52 18L51 17z"/>
<path style="fill:#807c78; stroke:none;" d="M32 18L32 19L52 19L32 18z"/>
<path style="fill:#9e9fa0; stroke:none;" d="M58 18L59 19L58 18z"/>
<path style="fill:#807c78; stroke:none;" d="M60 19L60 20L75 20L60 19z"/>
<path style="fill:#9e9fa0; stroke:none;" d="M75 19L75 20L81 20L75 19z"/>
<path style="fill:#c7c3bf; stroke:none;" d="M81 19L81 20L93 20L81 19z"/>
<path style="fill:#807c78; stroke:none;" d="M82 20L82 21L97 21L82 20z"/>
<path style="fill:#9e9fa0; stroke:none;" d="M97 20L97 21L102 21L97 20z"/>
<path style="fill:#807c78; stroke:none;" d="M3 21L3 32L4 32L3 21z"/>
<path style="fill:#c7c3bf; stroke:none;" d="M102 21L102 24L103 24L102 21z"/>
<path style="fill:#807c78; stroke:none;" d="M9 22L9 23L12 23L9 22z"/>
<path style="fill:#9e9fa0; stroke:none;" d="M12 22L13 23L12 22z"/>
<path style="fill:#807c78; stroke:none;" d="M13 22L13 23L19 23L13 22z"/>
<path style="fill:#9e9fa0; stroke:none;" d="M9 23L10 24L9 23z"/>
<path style="fill:#fefefe; stroke:none;" d="M10 23L8 75L93 78L95 26L10 23z"/>
<path style="fill:#c7c3bf; stroke:none;" d="M17 23L17 24L27 24L17 23z"/>
<path style="fill:#9e9fa0; stroke:none;" d="M27 23L27 24L38 24L27 23z"/>
<path style="fill:#807c78; stroke:none;" d="M38 23L38 24L44 24L38 23z"/>
<path style="fill:#c7c3bf; stroke:none;" d="M9 24L9 38L10 38L9 24M43 24L43 25L52 25L43 24z"/>
<path style="fill:#9e9fa0; stroke:none;" d="M52 24L52 25L62 25L52 24z"/>
<path style="fill:#807c78; stroke:none;" d="M62 24L62 25L66 25L62 24M101 24L101 42L102 42L101 24z"/>
<path style="fill:#c7c3bf; stroke:none;" d="M66 25L66 26L78 26L66 25z"/>
<path style="fill:#9e9fa0; stroke:none;" d="M78 25L78 26L87 26L78 25z"/>
<path style="fill:#807c78; stroke:none;" d="M87 25L87 26L96 26L87 25z"/>
<path style="fill:#c7c3bf; stroke:none;" d="M95 26L95 40L96 40L95 26z"/>
<path style="fill:#807c78; stroke:none;" d="M96 27L97 28L96 27M8 29L8 40L9 40L8 29M96.3333 29.6667L96.6667 30.3333L96.3333 29.6667z"/>
<path style="fill:#c7c3bf; stroke:none;" d="M2 32L2 35L3 35L2 32z"/>
<path style="fill:#9e9fa0; stroke:none;" d="M2 35L2 43L3 43L2 35M8 40L8 47L9 47L8 40M95.3333 40.6667L95.6667 41.3333L95.3333 40.6667z"/>
<path style="fill:#807c78; stroke:none;" d="M95 42L95 57L96 57L95 42z"/>
<path style="fill:#9e9fa0; stroke:none;" d="M101 42L101 46L102 46L101 42z"/>
<path style="fill:#807c78; stroke:none;" d="M2 43L2 57L3 57L2 43z"/>
<path style="fill:#c7c3bf; stroke:none;" d="M94 44L94 62L95 62L94 44M101 46L101 54L102 54L101 46M8 47L8 59L9 59L8 47z"/>
<path style="fill:#807c78; stroke:none;" d="M7 52L7 63L8 63L7 52M100 54L100 63L101 63L100 54z"/>
<path style="fill:#c7c3bf; stroke:none;" d="M1 57L1 62L2 62L1 57z"/>
<path style="fill:#9e9fa0; stroke:none;" d="M1 62L1 68L2 68L1 62M94 62L94 65L95 65L94 62M7 63L7 68L8 68L7 63M100 63L100 69L101 69L100 63z"/>
<path style="fill:#c7c3bf; stroke:none;" d="M93 65L93 78L85 78L85 79C93.6816 78.9693 96.4441 73.2076 93 65z"/>
<path style="fill:#807c78; stroke:none;" d="M94 65L94 77L95 77L94 65M1 68L1 80L2 80L1 68z"/>
<path style="fill:#c7c3bf; stroke:none;" d="M7 68L7 75L8 75L7 68M100 69L100 76L101 76L100 69z"/>
<path style="fill:#807c78; stroke:none;" d="M7 75L8 76L7 75z"/>
<path style="fill:#9e9fa0; stroke:none;" d="M8 75L9 76L8 75z"/>
<path style="fill:#c7c3bf; stroke:none;" d="M9 75L9 76L26 76L9 75z"/>
<path style="fill:#807c78; stroke:none;" d="M10 76L10 77L26 77L10 76z"/>
<path style="fill:#9e9fa0; stroke:none;" d="M26 76L26 77L35 77L26 76z"/>
<path style="fill:#c7c3bf; stroke:none;" d="M35 76L35 77L46 77L35 76z"/>
<path style="fill:#807c78; stroke:none;" d="M36 77L36 78L51 78L36 77z"/>
<path style="fill:#9e9fa0; stroke:none;" d="M51 77L51 78L60 78L51 77z"/>
<path style="fill:#c7c3bf; stroke:none;" d="M60 77L60 78L72 78L60 77z"/>
<path style="fill:#807c78; stroke:none;" d="M99 77L99 84L88 84L88 85C93.8507 85 102.503 85.4408 99 77M61 78L61 79L76 79L61 78z"/>
<path style="fill:#9e9fa0; stroke:none;" d="M76 78L76 79L85 79L76 78M93 78L94 79L93 78z"/>
<path style="fill:#807c78; stroke:none;" d="M86 79L86 80L93 80L86 79z"/>
<path style="fill:#9e9fa0; stroke:none;" d="M1 80L2 81L1 80z"/>
<path style="fill:#c7c3bf; stroke:none;" d="M1 81L1 82L5 82L1 81z"/>
<path style="fill:#9e9fa0; stroke:none;" d="M5 81L6 82L5 81z"/>
<path style="fill:#c7c3bf; stroke:none;" d="M6 81L7 82L6 81z"/>
<path style="fill:#9e9fa0; stroke:none;" d="M7 81L7 82L15 82L7 81z"/>
<path style="fill:#807c78; stroke:none;" d="M15 81L15 82L23 82L15 81z"/>
<path style="fill:#c7c3bf; stroke:none;" d="M23 82L23 83L32 83L23 82z"/>
<path style="fill:#9e9fa0; stroke:none;" d="M32 82L32 83L42 83L32 82z"/>
<path style="fill:#807c78; stroke:none;" d="M42 82L42 83L47 83L42 82z"/>
<path style="fill:#c7c3bf; stroke:none;" d="M47 83L47 84L57 84L47 83z"/>
<path style="fill:#9e9fa0; stroke:none;" d="M57 83L57 84L65 84L57 83z"/>
<path style="fill:#807c78; stroke:none;" d="M65 83L65 84L72 84L65 83z"/>
<path style="fill:#c7c3bf; stroke:none;" d="M72 84L72 85L82 85L72 84z"/>
<path style="fill:#9e9fa0; stroke:none;" d="M82 84L82 85L88 85L82 84M99 84L100 85L99 84z"/>
</svg>
