<?xml version="1.0" standalone="yes"?>
<svg xmlns="http://www.w3.org/2000/svg" width="105" height="80">
<path style="fill:#eae9e7; stroke:none;" d="M0 0L0 80L105 80L105 0L0 0z"/>
<path style="fill:#abaaaa; stroke:none;" d="M2 2L2 3L95 3L66 2L2 2M98.6667 2.33334L99.3333 2.66666L98.6667 2.33334z"/>
<path style="fill:#87817d; stroke:none;" d="M2 3L2 4L102 4L71 3L2 3z"/>
<path style="fill:#abaaaa; stroke:none;" d="M102 3L103 21L104 21L102 3M1 4L1 57C1 61.8432 -0.971692 72.4185 2.17901 76.3966C5.46644 80.5473 21.0521 78 26 78L77 78C85.3124 78 95.0012 79.3643 103 77L103 76L62 76.1906L2 76L2 27L1 4z"/>
<path style="fill:#606162; stroke:none;" d="M2 4L2 35L3 35C3 27.1557 -0.971982 6.59032 9 5L8 8L35 7.96065L78 8L78 7L21 6L21 5L40 5C29.9641 0.788742 12.9106 4 2 4z"/>
<path style="fill:#47413c; stroke:none;" d="M21 5L21 6L97 8L97 55C97 59.5816 98.6243 68.0752 94.6821 71.3966C91.0676 74.442 83.4035 73 79 73L40 73L40 74L102 75C102 57.9629 103 40.9791 103 24C103 19.5525 104.895 9.35438 101.972 5.74229C98.7431 1.75114 85.6773 4 81 4C60.9649 4 41.058 5 21 5z"/>
<path style="fill:#606162; stroke:none;" d="M41 4L41 5L48 5L41 4M49 4L49 5L59 5L49 4M101.667 4.33334L102.333 4.66666L101.667 4.33334z"/>
<path style="fill:#47413c; stroke:none;" d="M8 73C3.45256 53.8995 4.65465 24.0096 9 5C1.21965 5.60621 3 12.8818 3 19C3 32.3601 2 45.6106 2 59C2 65.1182 0.219651 72.3938 8 73z"/>
<path style="fill:#87817d; stroke:none;" d="M8 11L9 11C14.0036 5.89053 24.2704 8 31 8C25.7329 5.78981 10.0801 4.7327 8 11z"/>
<path style="fill:#606162; stroke:none;" d="M79 7L80 8L79 7z"/>
<path style="fill:#abaaaa; stroke:none;" d="M96 25L95 25L95 56L93.3966 68.3966L76 69.9105L29 69L10.3179 67.1273L9 52L9 11C35.5643 8.90353 70.0258 5.23405 96 12C92.681 6.88046 82.51 9 77 9C60.3119 9 43.6263 8.05555 26.9992 8.00077C22.6449 7.98643 13.0535 6.22091 9.74228 9.60339C6.66971 12.7421 8 20.0058 8 24C8 37.0223 4.61916 55.3934 8.3179 67.8519C9.92503 73.2652 22.6039 71 27 71L76 71C80.5131 71 90.7062 72.8951 94.3966 69.9722C97.2163 67.739 96 61.1508 96 58L96 25z"/>
<path style="fill:#87817d; stroke:none;" d="M34 8L35 9L34 8M36 8L36 9L94 9L75 8L36 8z"/>
<path style="fill:#606162; stroke:none;" d="M94 8L94 9L97 10L94 8z"/>
<path style="fill:#87817d; stroke:none;" d="M95 9L96 10L95 9z"/>
<path style="fill:#606162; stroke:none;" d="M7 10L7 46L8 46C8 35.6131 11.0114 19.5596 7 10z"/>
<path style="fill:#eae9e7; stroke:none;" d="M9 11L9 52C9 55.9156 7.47941 63.9446 9.98843 67.2076C12.7366 70.7815 23.0629 69 27 69C43.394 69 59.6677 69.2455 76 69.9606C79.9902 70.1354 91.2367 71.8505 93.9722 68.3966C97.6845 63.7095 95 48.8456 95 43C95 36.279 98.9775 17.9729 94.9715 12.5648C91.6172 8.03667 78.0168 10 73 10C51.8744 10 29.9572 8.35143 9 11z"/>
<path style="fill:#87817d; stroke:none;" d="M96 10L96 49L97 49C97 37.8277 100.311 20.274 96 10z"/>
<path style="fill:#abaaaa; stroke:none;" d="M12 13L11 56L12 56L12 15C24.0501 20.1925 38.9277 35.9716 52 36.9576C56.353 37.2859 61.4201 33.0918 65 30.9892C74.2704 25.5445 83.8258 20.6149 93 15L92 63L64 46.3966L51 40.7708L23 55.7299L12 60L11 60L12 64C21.6763 59.8304 30.8525 53.8118 40 48.5787C43.396 46.6359 47.9367 42.8364 52 42.8364C60.5682 42.8364 73.7262 53.7298 81 58.0108C83.6643 59.5788 88.3665 63.8577 91.6821 63.1188C95.3813 62.2944 94 53.6919 94 51L94 14C79.9046 16.5437 66.2537 35.2724 52 34.8526C47.597 34.723 42.5763 30.4517 39 28.1767C30.6987 22.8961 21.3893 15.9722 12 13z"/>
<path style="fill:#87817d; stroke:none;" d="M12 15L12 16L12 17L51 38L28 52L28 53C38.0259 49.3294 47.0292 38.3937 58 43L58 42L54 37C39.2941 35.9874 26.1862 19.1729 12 15M92 15L93 16L92 15z"/>
<path style="fill:#606162; stroke:none;" d="M13 16L12 60L20 57L20 56L13 59L13 18L24 23L24 22L13 16z"/>
<path style="fill:#87817d; stroke:none;" d="M90 16L87 18L87 19L91 17L90 16z"/>
<path style="fill:#606162; stroke:none;" d="M88 18L88 19L92 17L92 60L93 60L93 16L88 18z"/>
<path style="fill:#47413c; stroke:none;" d="M91 17L55 38C62.5942 47.6778 80.7291 56.1433 92 61C92 48.5196 95.8102 28.4634 91 17M13 18L13 59C24.0197 54.4604 41.5178 47.2385 49 38L13 18z"/>
<path style="fill:#87817d; stroke:none;" d="M85 19L86 20L85 19z"/>
<path style="fill:#606162; stroke:none;" d="M86 19L87 20L86 19z"/>
<path style="fill:#abaaaa; stroke:none;" d="M95.3333 19.6667L95.6667 20.3333L95.3333 19.6667z"/>
<path style="fill:#87817d; stroke:none;" d="M83 20L80 22L80 23L84 21L83 20z"/>
<path style="fill:#606162; stroke:none;" d="M83 22L86 20L83 22M81.6667 22.3333L82.3333 22.6667L81.6667 22.3333z"/>
<path style="fill:#abaaaa; stroke:none;" d="M103.333 22.6667L103.667 23.3333L103.333 22.6667z"/>
<path style="fill:#606162; stroke:none;" d="M25 23L25 25L27 25L25 23z"/>
<path style="fill:#87817d; stroke:none;" d="M78 23L64 31L64 32L79 24L78 23z"/>
<path style="fill:#606162; stroke:none;" d="M79 23L80 24L79 23z"/>
<path style="fill:#abaaaa; stroke:none;" d="M95 23L96 24L95 23z"/>
<path style="fill:#606162; stroke:none;" d="M78 24L79 25L78 24M27.6667 25.3333L28.3333 25.6667L27.6667 25.3333M76 25L77 26L76 25M29.6667 26.3333L30.3333 26.6667L29.6667 26.3333M74.6667 26.3333L75.3333 26.6667L74.6667 26.3333M31 27L34 29L31 27M72 27L73 28L72 27M71 28L72 29L71 28M35 29L36 30L35 29M69.6667 29.3333L70.3333 29.6667L69.6667 29.3333M37 30L38 31L37 30M67 30L68 31L67 30M38 31L39 32L38 31M65.6667 31.3333L66.3333 31.6667L65.6667 31.3333M39.6667 32.3333L40.3333 32.6667L39.6667 32.3333z"/>
<path style="fill:#87817d; stroke:none;" d="M62 32L55 36L55 37L63 33L62 32z"/>
<path style="fill:#606162; stroke:none;" d="M62 34L65 32L62 34M41.6667 33.3333L42.3333 33.6667L41.6667 33.3333M43.6667 34.3333L44.3333 34.6667L43.6667 34.3333M60.6667 34.3333L61.3333 34.6667L60.6667 34.3333M45 35L46 36L45 35M58.6667 35.3333L59.3333 35.6667L58.6667 35.3333M46.6667 36.3333L47.3333 36.6667L46.6667 36.3333M57 36L58 37L57 36M48 37L47 41L51 38L48 37M54 37L57 41L56 37L54 37M102 37L102 71L103 71L102 37M46 41L47 42L46 41M57 41L58 42L57 41M43.6667 42.3333L44.3333 42.6667L43.6667 42.3333M58 42L58 43L76 53L58 42M40 45L43 43L40 45z"/>
<path style="fill:#87817d; stroke:none;" d="M59 43L60 44L59 43M60.6667 44.3333L61.3333 44.6667L60.6667 44.3333z"/>
<path style="fill:#606162; stroke:none;" d="M38.6667 45.3333L39.3333 45.6667L38.6667 45.3333z"/>
<path style="fill:#87817d; stroke:none;" d="M62.6667 45.3333L63.3333 45.6667L62.6667 45.3333M7 46L8 47L7 46z"/>
<path style="fill:#606162; stroke:none;" d="M36.6667 46.3333L37.3333 46.6667L36.6667 46.3333z"/>
<path style="fill:#87817d; stroke:none;" d="M64 46L65 47L64 46z"/>
<path style="fill:#606162; stroke:none;" d="M7 47L7 51L8 51L7 47M33 49L36 47L33 49z"/>
<path style="fill:#87817d; stroke:none;" d="M65.6667 47.3333L66.3333 47.6667L65.6667 47.3333M67.6667 48.3333L68.3333 48.6667L67.6667 48.3333z"/>
<path style="fill:#606162; stroke:none;" d="M31.6667 49.3333L32.3333 49.6667L31.6667 49.3333z"/>
<path style="fill:#87817d; stroke:none;" d="M69 49L70 50L69 49z"/>
<path style="fill:#606162; stroke:none;" d="M96 49C96 54.1422 98.2634 66.5298 94.3966 70.3966C90.7704 74.0228 79.762 72 75 72L27 72C20.8423 72 12.5951 73.6923 8 69L7 69L8 73L2 72C2.98203 76.5828 9.12035 75 13 75L49 75L49 74L40 74L40 73L79 73C83.2847 73 90.9662 74.4518 94.6821 71.9722C99.1221 69.0094 97.8171 53.3304 96 49M29.6667 50.3333L30.3333 50.6667L29.6667 50.3333z"/>
<path style="fill:#87817d; stroke:none;" d="M71 50L72 51L71 50M7 51L7 69L8 69L7 51z"/>
<path style="fill:#606162; stroke:none;" d="M27 51L27 53L29 51L27 51z"/>
<path style="fill:#87817d; stroke:none;" d="M72.6667 51.3333L73.3333 51.6667L72.6667 51.3333M74 52L75 53L74 52z"/>
<path style="fill:#606162; stroke:none;" d="M21 56L26 54L21 56z"/>
<path style="fill:#87817d; stroke:none;" d="M26 53L27 54L26 53M76 53L76 54L82 57L82 56L76 53z"/>
<path style="fill:#606162; stroke:none;" d="M78 53L79 54L78 53z"/>
<path style="fill:#87817d; stroke:none;" d="M24.6667 54.3333L25.3333 54.6667L24.6667 54.3333z"/>
<path style="fill:#606162; stroke:none;" d="M79.6667 54.3333L80.3333 54.6667L79.6667 54.3333z"/>
<path style="fill:#87817d; stroke:none;" d="M22.6667 55.3333L23.3333 55.6667L22.6667 55.3333z"/>
<path style="fill:#606162; stroke:none;" d="M81 55L82 56L81 55z"/>
<path style="fill:#87817d; stroke:none;" d="M11 56L11 60L12 60L11 56M20.6667 56.3333L21.3333 56.6667L20.6667 56.3333z"/>
<path style="fill:#606162; stroke:none;" d="M82 56L82 57L92 62L92 61L82 56z"/>
<path style="fill:#87817d; stroke:none;" d="M15 59L15 60L20 58L15 59M83 57L84 58L83 57M84.6667 58.3333L85.3333 58.6667L84.6667 58.3333M86 59L87 60L86 59M12 62L15 61L12 62M88 60L89 61L88 60M92.3333 60.6667L92.6667 61.3333L92.3333 60.6667M89.6667 61.3333L90.3333 61.6667L89.6667 61.3333M91 62L92 63L91 62M8 70L9 71L8 70M95 70L96 71L95 70M9 71L9 72L95 72L68 71L9 71M102 71L103 72L102 71z"/>
<path style="fill:#606162; stroke:none;" d="M102 72L103 73L102 72z"/>
<path style="fill:#87817d; stroke:none;" d="M102 73C97.5809 79.8165 73.782 76 66 76L66 77L94 77C97.2311 76.9933 103.029 77.5825 102 73M2 75L2 76L50 76C37.5857 70.7907 15.5264 75 2 75z"/>
<path style="fill:#606162; stroke:none;" d="M50 75L50 76L96 76C84.0611 70.9902 63.0035 75 50 75M99 75L99 76L102 76L99 75z"/>
<path style="fill:#87817d; stroke:none;" d="M61.6667 76.3333L62.3333 76.6667L61.6667 76.3333z"/>
</svg>
