<?xml version="1.0" standalone="yes"?>
<svg xmlns="http://www.w3.org/2000/svg" width="105" height="73">
<path style="fill:#fcfcf9; stroke:none;" d="M0 0L0 73L86 73L86 72C78.3033 68.0261 84.506 61.7201 91 62C92.9509 43.6669 111.75 61.5265 96 66L92 72L92 73L105 73L105 0L0 0z"/>
<path style="fill:#eeeca6; stroke:none;" d="M9 1L9 2L15 2L9 1M7 2L5 6L6 6L7 2z"/>
<path style="fill:#020202; stroke:none;" d="M8.30478 3.02778C4.42932 5.32981 2.20851 17.0996 8.76003 13.929C15.9229 10.4626 18.221 -2.86247 8.30478 3.02778z"/>
<path style="fill:#eeeca6; stroke:none;" d="M16 2L17 3L16 2z"/>
<path style="fill:#020202; stroke:none;" d="M26.8673 3.15895C22.0092 6.21394 27.4036 11.7731 31.5617 8.96836C35.9676 5.99657 30.8151 0.676346 26.8673 3.15895z"/>
<path style="fill:#eeeca6; stroke:none;" d="M28 2L29 3L28 2M31 2L32 3L31 2M25 3L26 4L25 3M33 3L34 4L33 3z"/>
<path style="fill:#020202; stroke:none;" d="M43.3225 4.0324C38.2785 7.3544 45.3713 13.083 49.3711 9.98611C53.6369 6.68336 47.2104 1.47182 43.3225 4.0324z"/>
<path style="fill:#eeeca6; stroke:none;" d="M49 3L50 4L49 3M17 4C14.5026 8.59792 10.1019 13.5404 5 15L5 16C10.3553 15.5929 18.623 10.1333 17 4M23 4C23.1371 8.17584 23.6381 10.2721 28 11L28 10L25 4L23 4M34 4L32 10C34.7548 8.35464 35.5609 6.91602 34 4M41 4L42 5L41 4M50 4L51 5L50 4z"/>
<path style="fill:#020202; stroke:none;" d="M60.3372 5.02778C56.0184 8.02073 62.0367 12.7159 65.6813 10.6381C70.8471 7.69315 64.6314 2.05189 60.3372 5.02778z"/>
<path style="fill:#eeeca6; stroke:none;" d="M67 4L68 5L67 4z"/>
<path style="fill:#020202; stroke:none;" d="M77.608 5.03163C73.5383 8.24973 79.8686 13.9006 83.6775 11.223C88.6866 7.70173 81.549 1.91536 77.608 5.03163z"/>
<path style="fill:#eeeca6; stroke:none;" d="M83 4L84 5L83 4M40 5L43 11L40 5M51 5L51 10L52 10L51 5M68 5L64 11L64 12C68.3103 11.3106 70.2862 9.11377 68 5M85 5L86 6L85 5z"/>
<path style="fill:#020202; stroke:none;" d="M95.3333 6.02855C90.6481 9.2353 96.7274 14.3742 100.848 11.9676C106.619 8.59715 99.7746 2.98875 95.3333 6.02855z"/>
<path style="fill:#eeeca6; stroke:none;" d="M86 6L86 10L87 10L86 6M93 6L94 7L93 6M3 7L3 14L4 14L3 7M75 7L75 13L82 13L82 12L75 7M92 7L95 13L92 7M57 8L62 12L62 11L57 8M29 10L29 11L32 11L29 10M50 10L51 11L50 10M85 10L84 12L86 12L85 10M45 11L45 12L49 12L45 11M83 12L84 13L83 12M101 12L102 13L101 12M96.6667 13.3333L97.3333 13.6667L96.6667 13.3333M4 14L5 15L4 14M95 31L96 31C96.8536 25.6064 95.0143 19.1812 103 22C97.211 13.8401 93.4602 25.6405 95 31z"/>
<path style="fill:#020202; stroke:none;" d="M97.5231 21.0864C93.636 23.5485 97.4109 31.0301 101.376 27.9529C104.41 25.5979 101.344 18.6663 97.5231 21.0864z"/>
<path style="fill:#eeeca6; stroke:none;" d="M9 33L9 32C3.02056 30.5883 2.6214 25.7231 8 23C0.605574 21.2713 -0.197279 34.2728 9 33z"/>
<path style="fill:#020202; stroke:none;" d="M8 33C15.0435 18.3419 -4.33636 26.7773 8 33z"/>
<path style="fill:#eeeca6; stroke:none;" d="M9 23L10 27L11 27L9 23M102.333 23.6667L102.667 24.3333L102.333 23.6667M102 28L103 29L102 28M96 37L97 38L96 37z"/>
<path style="fill:#020202; stroke:none;" d="M97.5988 38.0864C94.5466 40.1507 96.7185 47.9557 100.701 45.2485C104.283 42.8131 101.618 35.3681 97.5988 38.0864z"/>
<path style="fill:#eeeca6; stroke:none;" d="M101 37L102 38L101 37M102 38L103 39L102 38M2 51L10 50C11.6997 36.2397 -0.256709 38.6549 2 51z"/>
<path style="fill:#020202; stroke:none;" d="M5.27315 41.1759C2.16082 42.7488 2.69533 50.8756 6.75463 48.8241C10.0992 47.1338 9.56256 39.0081 5.27315 41.1759z"/>
<path style="fill:#eeeca6; stroke:none;" d="M102 44L103 45L102 44z"/>
<path style="fill:#a1a5a0; stroke:none;" d="M96 45L97 46L96 45z"/>
<path style="fill:#eeeca6; stroke:none;" d="M101 45L102 46L101 45M96 46L99 48L96 46M100 46L101 47L100 46z"/>
<path style="fill:#a1a5a0; stroke:none;" d="M2 47L3 48L2 47z"/>
<path style="fill:#020202; stroke:none;" d="M91 62C70.639 60.2165 93.6245 82.8048 95 65C113.282 63.6053 89.4014 41.6318 91 62z"/>
<path style="fill:#60605e; stroke:none;" d="M100 53L101 54L100 53M101 54L102 55L101 54z"/>
<path style="fill:#a1a5a0; stroke:none;" d="M102 55L102 63L103 63L102 55z"/>
<path style="fill:#eeeca6; stroke:none;" d="M4 68C0.102151 58.5384 10.5352 57.8741 5 68C9.54692 66.5638 12.8249 57.4175 5.96065 56.9668C-0.465834 56.5449 0.105635 65.4753 4 68z"/>
<path style="fill:#020202; stroke:none;" d="M4 68C14.3072 59.4136 -2.38651 55.9543 4 68z"/>
<path style="fill:#eeeca6; stroke:none;" d="M19 60L19 61L22 61L19 60M15 61C14.0477 64.5945 14.3327 66.3819 17 69L17 61L15 61z"/>
<path style="fill:#020202; stroke:none;" d="M17.3225 62.0285C12.1171 65.5299 19.5055 70.7777 23.6775 67.9715C28.8829 64.4701 21.4945 59.2223 17.3225 62.0285z"/>
<path style="fill:#eeeca6; stroke:none;" d="M24 61L25 62L24 61z"/>
<path style="fill:#020202; stroke:none;" d="M34.3488 62.0285C27.8427 66.172 36.7217 72.1363 41.6813 68.821C47.6246 64.8481 39.0145 59.0571 34.3488 62.0285M53.0193 61.6165C44.7555 63.5587 49.7305 71.6536 56.9414 69.6821C63.84 67.7959 58.6649 60.2896 53.0193 61.6165z"/>
<path style="fill:#eeeca6; stroke:none;" d="M25 62L26 63L25 62M32 63L33 64L32 63M70 71L70 70C66.2374 64.3135 77.298 62.2732 75 71C87.3726 57.7787 55.1431 66.0645 70 71z"/>
<path style="fill:#60605e; stroke:none;" d="M101 63L102 64L101 63z"/>
<path style="fill:#eeeca6; stroke:none;" d="M31 64L32 65L31 64z"/>
<path style="fill:#020202; stroke:none;" d="M69.6227 65.0316C66.3245 67.7033 71.393 72.0828 74.4676 69.9537C78.5159 67.1504 72.943 62.3421 69.6227 65.0316z"/>
<path style="fill:#60605e; stroke:none;" d="M100 64L101 65L100 64M95 65L96 66L95 65z"/>
<path style="fill:#a1a5a0; stroke:none;" d="M96 65L96 66L100 66L96 65M95 66L95 70L96 70L95 66z"/>
<path style="fill:#eeeca6; stroke:none;" d="M25 67L26 68L25 67M31 67L32 68L31 67M32 68L33 69L32 68z"/>
<path style="fill:#60605e; stroke:none;" d="M48 68L49 69L48 68z"/>
<path style="fill:#eeeca6; stroke:none;" d="M33 69L34 70L33 69z"/>
<path style="fill:#a1a5a0; stroke:none;" d="M68 69L69 70L68 69z"/>
<path style="fill:#60605e; stroke:none;" d="M81 69L82 70L81 69z"/>
<path style="fill:#a1a5a0; stroke:none;" d="M50 70L50 71L58 71L50 70z"/>
<path style="fill:#60605e; stroke:none;" d="M82 70L83 71L82 70M94 70L95 71L94 70z"/>
<path style="fill:#a1a5a0; stroke:none;" d="M83.6667 71.3333L84.3333 71.6667L83.6667 71.3333z"/>
<path style="fill:#60605e; stroke:none;" d="M85 71L86 72L85 71M92 71L93 72L92 71z"/>
<path style="fill:#a1a5a0; stroke:none;" d="M93 71L94 72L93 71M86 72L86 73L92 73L86 72z"/>
</svg>
