<?xml version="1.0" standalone="yes"?>
<svg xmlns="http://www.w3.org/2000/svg" width="119" height="40">
<path style="fill:#f7f6f6; stroke:none;" d="M0 0L0 40L119 40L119 0L0 0z"/>
<path style="fill:#abaaa9; stroke:none;" d="M31 12C39.5206 5.33745 48.7121 -1.02115 58.956 7.39429C61.9958 9.8915 63.4714 14.8553 67.1327 16.3966C75.8235 20.0551 84.9663 17.522 85 8L115 19C107.804 24.8082 94.3149 30.67 85 31C89.9564 36.577 110.684 23.943 117 22C115.546 13.0844 93.0956 7.39305 85 6L84 15C79.2563 15 72.5486 16.2126 68.1049 14.3966C63.9693 12.7065 62.4708 7.24808 58.9568 4.57176C49.4047 -2.7032 35.5157 1.36415 31 12z"/>
<path style="fill:#868380; stroke:none;" d="M31 14L32 14C39.2662 3.77814 56.5491 1.70342 63 14C63.7184 8.61112 57.5949 5.19345 53 3.92824C43.8924 1.42045 34.7308 5.26229 31 14z"/>
<path style="fill:#666666; stroke:none;" d="M31 16L32 16L37 10L36 14L37 14C41.9159 4.75288 51.8695 5.39433 58 13L59 13L57 8L63 13C56.5843 0.999985 35.2867 3.39872 31 16z"/>
<path style="fill:#868380; stroke:none;" d="M37 13C44.8836 7.97572 53.1756 5.76988 58 16C60.6689 4.40024 41.26 5.23773 37 13z"/>
<path style="fill:#abaaa9; stroke:none;" d="M44.0008 8.5733C29.2355 12.7637 36.7347 36.2754 51.9846 31.3472C65.394 27.0139 58.288 4.51857 44.0008 8.5733z"/>
<path style="fill:#433f3a; stroke:none;" d="M57 8C59.5286 16.0864 60.4012 22.9857 57 31C68.3638 26.7642 64.8941 13.6978 57 8z"/>
<path style="fill:#868380; stroke:none;" d="M85 10L94 11C91.2393 8.94584 87.6159 7.12594 85 10z"/>
<path style="fill:#666666; stroke:none;" d="M86 9L85 17L86 17L86 10L91 11L86 9z"/>
<path style="fill:#433f3a; stroke:none;" d="M35 10C30.0678 17.4862 28.3878 26.3803 38 31C35.2779 23.5871 35.1157 17.6486 37 10L35 10M86 10L86 30L111 20C105.069 14.7672 93.7033 11.6112 86 10z"/>
<path style="fill:#f7f6f6; stroke:none;" d="M43.0193 11.7423C30.3381 16.7921 41.18 32.8318 52.9452 27.8519C64.6845 22.8829 53.7756 7.45895 43.0193 11.7423z"/>
<path style="fill:#666666; stroke:none;" d="M92 11L92 12L109 18L109 17L92 11z"/>
<path style="fill:#868380; stroke:none;" d="M95 11L95 12L99 13L99 12L95 11z"/>
<path style="fill:#abaaa9; stroke:none;" d="M30 13C22.6899 18.5381 10.6291 10.9964 3.4375 16.0278C0.0670722 18.3858 1.56322 23.442 5.13349 24.5664C12.2984 26.8228 22.5067 25 30 25C32.1781 37.0254 47.6114 42.4883 57.9853 36.142C62.2009 33.5631 63.6913 27.4568 68.1296 25.6034C72.5292 23.7661 79.2899 25 84 25L84 30L85 30C84.8918 20.8705 76.0176 20.0986 68.108 22.3179C60.3074 24.5066 59.637 35.8175 49 36.6088C36.3969 37.5464 36.3424 26.3397 27.7863 22.6034C21.3626 19.7983 9.97408 22 3 22L3 18C8.00607 17.8967 30.9032 19.0815 30 13z"/>
<path style="fill:#868380; stroke:none;" d="M99 13L99 14L102 14L99 13M36.3333 14.6667L36.6667 15.3333L36.3333 14.6667z"/>
<path style="fill:#666666; stroke:none;" d="M63 14L64 15L63 14z"/>
<path style="fill:#868380; stroke:none;" d="M102 14L102 15L105 15L102 14M30 15C24.5845 19.4032 10.0346 17.698 3 18L3 22C10.6131 22 24.3836 19.2648 30 25L31 25C28.5526 18.6026 21.8122 20 16 20L16 19C19.7924 19 30.1396 20.5569 30 15M64 15C67.1119 19.3149 81.4503 20.0622 85 16C78.1604 17.6284 70.5187 17.7622 64 15M105.667 15.3333L106.333 15.6667L105.667 15.3333z"/>
<path style="fill:#666666; stroke:none;" d="M64.3333 16.6667L64.6667 17.3333L64.3333 16.6667z"/>
<path style="fill:#868380; stroke:none;" d="M107.667 16.3333L108.333 16.6667L107.667 16.3333z"/>
<path style="fill:#666666; stroke:none;" d="M30 17L31 18L30 17M35 17L35 23L36 23L35 17M59 17L59 22L60 22L59 17z"/>
<path style="fill:#868380; stroke:none;" d="M109 17L109 18L113 19L91 29L91 30C98.6499 27.9119 109.7 25.0726 115 19L109 17z"/>
<path style="fill:#666666; stroke:none;" d="M16 19L16 20L30 21L30 18L16 19M65 18L64 23C70.4228 20.0473 78.1864 20.3778 85 22L85 18L65 18M110 18L108 21L108 22L113 19L110 18z"/>
<path style="fill:#868380; stroke:none;" d="M66 21L66 22L84 22L66 21z"/>
<path style="fill:#666666; stroke:none;" d="M30.3333 21.6667L30.6667 22.3333L30.3333 21.6667z"/>
<path style="fill:#868380; stroke:none;" d="M65 22L66 23L65 22M84 22L85 23L84 22z"/>
<path style="fill:#666666; stroke:none;" d="M106.667 22.3333L107.333 22.6667L106.667 22.3333z"/>
<path style="fill:#868380; stroke:none;" d="M64.3333 23.6667L64.6667 24.3333L64.3333 23.6667z"/>
<path style="fill:#666666; stroke:none;" d="M85 23L86 31L87 31L85 23M98 25L98 26L105 24L98 25M31.3333 24.6667L31.6667 25.3333L31.3333 24.6667z"/>
<path style="fill:#868380; stroke:none;" d="M36.3333 24.6667L36.6667 25.3333L36.3333 24.6667M58.3333 24.6667L58.6667 25.3333L58.3333 24.6667z"/>
<path style="fill:#666666; stroke:none;" d="M63 25L64 26L63 25z"/>
<path style="fill:#868380; stroke:none;" d="M31 26L32 27L31 26z"/>
<path style="fill:#666666; stroke:none;" d="M36 26L38 31L32 27C39.1149 36.9822 56.6443 38.9569 63 27L62 27L57 31L59 26L58 26C52.8274 36.8239 42.4263 33.01 36 26z"/>
<path style="fill:#868380; stroke:none;" d="M63.3333 26.6667L63.6667 27.3333L63.3333 26.6667z"/>
<path style="fill:#666666; stroke:none;" d="M96.6667 26.3333L97.3333 26.6667L96.6667 26.3333z"/>
<path style="fill:#868380; stroke:none;" d="M37 27L38 28L37 27M57.3333 27.6667L57.6667 28.3333L57.3333 27.6667z"/>
<path style="fill:#666666; stroke:none;" d="M92 27L92 28L95 28L92 27z"/>
<path style="fill:#868380; stroke:none;" d="M32 28L38 34L32 28M38 28L43 32L43 31L38 28M62.3333 28.6667L62.6667 29.3333L62.3333 28.6667z"/>
<path style="fill:#666666; stroke:none;" d="M88 29L88 30L92 29L88 29z"/>
<path style="fill:#868380; stroke:none;" d="M56 29L57 30L56 29M43 32L43 33L56 31L43 32M61 30L62 31L61 30M85 30L86 31L85 30M86 31L86 32L90 31L86 31M60 31L61 32L60 31M59 32L60 33L59 32M57.6667 33.3333L58.3333 33.6667L57.6667 33.3333M38 34L38 35L57 35L38 34z"/>
</svg>
