<?xml version="1.0" standalone="yes"?>
<svg xmlns="http://www.w3.org/2000/svg" width="103" height="104">
<path style="fill:#fefdfd; stroke:none;" d="M0 0L0 104L103 104L103 0L0 0z"/>
<path style="fill:#a9a7a7; stroke:none;" d="M50 2L1 52L37 17L50 2z"/>
<path style="fill:#515357; stroke:none;" d="M47 7L53 2L47 7z"/>
<path style="fill:#a9a7a7; stroke:none;" d="M53 2L57 6L53 2z"/>
<path style="fill:#302c29; stroke:none;" d="M52 3L16 38L4.34568 52L16 66L52 102L101 53L101 52L52 3z"/>
<path style="fill:#7a7470; stroke:none;" d="M53 3L54 4L53 3z"/>
<path style="fill:#515357; stroke:none;" d="M54 4L55 5L54 4z"/>
<path style="fill:#7a7470; stroke:none;" d="M55 5L56 6L55 5M56 6L57 7L56 6M46 7L47 8L46 7z"/>
<path style="fill:#515357; stroke:none;" d="M56 7L73 24L56 7z"/>
<path style="fill:#a9a7a7; stroke:none;" d="M57 7L58 8L57 7z"/>
<path style="fill:#515357; stroke:none;" d="M45 8L46 9L45 8z"/>
<path style="fill:#a9a7a7; stroke:none;" d="M58 8L59 9L58 8z"/>
<path style="fill:#7a7470; stroke:none;" d="M44 9L45 10L44 9z"/>
<path style="fill:#a9a7a7; stroke:none;" d="M59 9L60 10L59 9z"/>
<path style="fill:#515357; stroke:none;" d="M43.6667 10.3333L44.3333 10.6667L43.6667 10.3333z"/>
<path style="fill:#7a7470; stroke:none;" d="M51 10L51 11L77 35C71.0181 26.508 60.4624 14.4127 51 10z"/>
<path style="fill:#515357; stroke:none;" d="M53 10L54 11L53 10z"/>
<path style="fill:#a9a7a7; stroke:none;" d="M60 10L61 11L60 10z"/>
<path style="fill:#7a7470; stroke:none;" d="M42 11L43 12L42 11z"/>
<path style="fill:#a9a7a7; stroke:none;" d="M50 11L48 14L50 11z"/>
<path style="fill:#fefdfd; stroke:none;" d="M12 51L92 52L63.1698 22.054L51.9853 12.206L41 21L12 51z"/>
<path style="fill:#515357; stroke:none;" d="M54 11L55 12L54 11z"/>
<path style="fill:#a9a7a7; stroke:none;" d="M61 11L62 12L61 11z"/>
<path style="fill:#7a7470; stroke:none;" d="M41 12L42 13L41 12z"/>
<path style="fill:#515357; stroke:none;" d="M48 12L49 13L48 12M55 12L56 13L55 12z"/>
<path style="fill:#a9a7a7; stroke:none;" d="M62 12L63 13L62 12z"/>
<path style="fill:#7a7470; stroke:none;" d="M40 13L41 14L40 13z"/>
<path style="fill:#515357; stroke:none;" d="M47 13L37 24L47 13z"/>
<path style="fill:#a9a7a7; stroke:none;" d="M63 13L64 14L63 13z"/>
<path style="fill:#7a7470; stroke:none;" d="M39 14L38 16L39 14M47 14L48 15L47 14z"/>
<path style="fill:#515357; stroke:none;" d="M57 14L58 15L57 14z"/>
<path style="fill:#a9a7a7; stroke:none;" d="M64 14L65 15L64 14z"/>
<path style="fill:#515357; stroke:none;" d="M39 15L40 16L39 15z"/>
<path style="fill:#7a7470; stroke:none;" d="M46 15L47 16L46 15z"/>
<path style="fill:#a9a7a7; stroke:none;" d="M65 15L66 16L65 15z"/>
<path style="fill:#515357; stroke:none;" d="M37 16L38 17L37 16z"/>
<path style="fill:#a9a7a7; stroke:none;" d="M45 16L46 17L45 16M57 16L58 17L57 16M66 16L67 17L66 16z"/>
<path style="fill:#515357; stroke:none;" d="M36 17L37 18L36 17z"/>
<path style="fill:#7a7470; stroke:none;" d="M44 17L45 18L44 17z"/>
<path style="fill:#a9a7a7; stroke:none;" d="M67 17L68 18L67 17z"/>
<path style="fill:#7a7470; stroke:none;" d="M35 18L36 19L35 18z"/>
<path style="fill:#a9a7a7; stroke:none;" d="M43 18L44 19L43 18M59 18L60 19L59 18z"/>
<path style="fill:#515357; stroke:none;" d="M61 18L62 19L61 18z"/>
<path style="fill:#a9a7a7; stroke:none;" d="M68 18L69 19L68 18z"/>
<path style="fill:#515357; stroke:none;" d="M34 19L35 20L34 19z"/>
<path style="fill:#7a7470; stroke:none;" d="M42 19L43 20L42 19z"/>
<path style="fill:#515357; stroke:none;" d="M62 19L63 20L62 19z"/>
<path style="fill:#a9a7a7; stroke:none;" d="M69 19L70 20L69 19z"/>
<path style="fill:#515357; stroke:none;" d="M33 20L34 21L33 20z"/>
<path style="fill:#7a7470; stroke:none;" d="M41 20L42 21L41 20z"/>
<path style="fill:#a9a7a7; stroke:none;" d="M61 20L62 21L61 20M70 20L71 21L70 20z"/>
<path style="fill:#515357; stroke:none;" d="M32 21L33 22L32 21z"/>
<path style="fill:#a9a7a7; stroke:none;" d="M40 21L41 22L40 21M62 21L63 22L62 21M71 21L72 22L71 21z"/>
<path style="fill:#515357; stroke:none;" d="M31 22L32 23L31 22z"/>
<path style="fill:#7a7470; stroke:none;" d="M39 22L40 23L39 22z"/>
<path style="fill:#a9a7a7; stroke:none;" d="M63 22L64 23L63 22z"/>
<path style="fill:#515357; stroke:none;" d="M65 22L66 23L65 22z"/>
<path style="fill:#a9a7a7; stroke:none;" d="M72 22L73 23L72 22z"/>
<path style="fill:#515357; stroke:none;" d="M30 23L31 24L30 23z"/>
<path style="fill:#a9a7a7; stroke:none;" d="M38 23L39 24L38 23M64 23L65 24L64 23M73 23L74 24L73 23z"/>
<path style="fill:#515357; stroke:none;" d="M29 24L30 25L29 24z"/>
<path style="fill:#7a7470; stroke:none;" d="M36 24L37 25L36 24z"/>
<path style="fill:#a9a7a7; stroke:none;" d="M37 24L38 25L37 24M65 24L66 25L65 24M74 24L77 27L74 24z"/>
<path style="fill:#515357; stroke:none;" d="M28 25L29 26L28 25M35 25L36 26L35 25z"/>
<path style="fill:#a9a7a7; stroke:none;" d="M36 25L37 26L36 25M66 25L67 26L66 25z"/>
<path style="fill:#515357; stroke:none;" d="M74 25L75 26L74 25M27 26L28 27L27 26M29 26L30 27L29 26z"/>
<path style="fill:#7a7470; stroke:none;" d="M34 26L29 32L34 26z"/>
<path style="fill:#a9a7a7; stroke:none;" d="M35 26L36 27L35 26z"/>
<path style="fill:#515357; stroke:none;" d="M75 26L76 27L75 26M26 27L27 28L26 27z"/>
<path style="fill:#a9a7a7; stroke:none;" d="M34 27L35 28L34 27M68 27L69 28L68 27M77 27L78 28L77 27z"/>
<path style="fill:#515357; stroke:none;" d="M25 28L26 29L25 28z"/>
<path style="fill:#a9a7a7; stroke:none;" d="M33 28L34 29L33 28M69 28L70 29L69 28M78 28L101 51L78 28z"/>
<path style="fill:#515357; stroke:none;" d="M24 29L25 30L24 29z"/>
<path style="fill:#a9a7a7; stroke:none;" d="M32 29L33 30L32 29M70 29L71 30L70 29z"/>
<path style="fill:#515357; stroke:none;" d="M78 29L79 30L78 29M23 30L24 31L23 30z"/>
<path style="fill:#a9a7a7; stroke:none;" d="M31 30L32 31L31 30z"/>
<path style="fill:#515357; stroke:none;" d="M79 30L80 31L79 30M22 31L23 32L22 31z"/>
<path style="fill:#a9a7a7; stroke:none;" d="M30 31L31 32L30 31z"/>
<path style="fill:#515357; stroke:none;" d="M80 31L81 32L80 31M21 32L22 33L21 32M28 32L27 34L28 32z"/>
<path style="fill:#a9a7a7; stroke:none;" d="M29 32L30 33L29 32z"/>
<path style="fill:#515357; stroke:none;" d="M81 32L82 33L81 32M20 33L21 34L20 33z"/>
<path style="fill:#a9a7a7; stroke:none;" d="M28 33L29 34L28 33z"/>
<path style="fill:#515357; stroke:none;" d="M82 33L83 34L82 33M19 34L20 35L19 34z"/>
<path style="fill:#7a7470; stroke:none;" d="M26 34L10 51C15.22 47.323 24.4651 40.3322 26 34z"/>
<path style="fill:#a9a7a7; stroke:none;" d="M27 34L28 35L27 34M75 34L76 35L75 34z"/>
<path style="fill:#515357; stroke:none;" d="M83 34L84 35L83 34M18 35L19 36L18 35z"/>
<path style="fill:#a9a7a7; stroke:none;" d="M26 35L27 36L26 35M76 35L88 47L76 35z"/>
<path style="fill:#515357; stroke:none;" d="M77 35L78 36L77 35M84 35L85 36L84 35M17 36L18 37L17 36z"/>
<path style="fill:#a9a7a7; stroke:none;" d="M25 36L26 37L25 36z"/>
<path style="fill:#515357; stroke:none;" d="M78 36L79 37L78 36M85 36L86 37L85 36M16 37L17 38L16 37z"/>
<path style="fill:#a9a7a7; stroke:none;" d="M24 37L25 38L24 37z"/>
<path style="fill:#515357; stroke:none;" d="M79 37L80 38L79 37M86 37L87 38L86 37M15 38L16 39L15 38z"/>
<path style="fill:#a9a7a7; stroke:none;" d="M23 38L24 39L23 38z"/>
<path style="fill:#515357; stroke:none;" d="M80 38L81 39L80 38M87 38L88 39L87 38M14 39L15 40L14 39M20 39L21 40L20 39z"/>
<path style="fill:#a9a7a7; stroke:none;" d="M22 39L23 40L22 39z"/>
<path style="fill:#515357; stroke:none;" d="M81 39L82 40L81 39z"/>
<path style="fill:#7a7470; stroke:none;" d="M88 39L89 40L88 39M13 40L14 41L13 40z"/>
<path style="fill:#515357; stroke:none;" d="M19 40L20 41L19 40z"/>
<path style="fill:#a9a7a7; stroke:none;" d="M21 40L22 41L21 40z"/>
<path style="fill:#515357; stroke:none;" d="M82 40L84 42L84 40L82 40z"/>
<path style="fill:#7a7470; stroke:none;" d="M89 40L90 41L89 40z"/>
<path style="fill:#515357; stroke:none;" d="M12 41L13 42L12 41M18 41L19 42L18 41z"/>
<path style="fill:#a9a7a7; stroke:none;" d="M20 41L21 42L20 41z"/>
<path style="fill:#515357; stroke:none;" d="M90 41L91 42L90 41M11 42L12 43L11 42z"/>
<path style="fill:#a9a7a7; stroke:none;" d="M19 42L20 43L19 42z"/>
<path style="fill:#515357; stroke:none;" d="M84 42L85 43L84 42M91 42L92 43L91 42M10 43L11 44L10 43M16 43L17 44L16 43z"/>
<path style="fill:#a9a7a7; stroke:none;" d="M18 43L19 44L18 43z"/>
<path style="fill:#515357; stroke:none;" d="M85 43L86 44L85 43M92 43L93 44L92 43M9 44L10 45L9 44M15 44L16 45L15 44z"/>
<path style="fill:#a9a7a7; stroke:none;" d="M17 44L18 45L17 44z"/>
<path style="fill:#515357; stroke:none;" d="M86 44L87 45L86 44M93 44L94 45L93 44M8 45L9 46L8 45z"/>
<path style="fill:#a9a7a7; stroke:none;" d="M16 45L17 46L16 45z"/>
<path style="fill:#515357; stroke:none;" d="M87 45L88 46L87 45M94 45L95 46L94 45M7 46L8 47L7 46M13 46L14 47L13 46z"/>
<path style="fill:#a9a7a7; stroke:none;" d="M15 46L16 47L15 46z"/>
<path style="fill:#515357; stroke:none;" d="M88 46L93 51L88 46M95 46L96 47L95 46M6 47L7 48L6 47z"/>
<path style="fill:#a9a7a7; stroke:none;" d="M14 47L15 48L14 47z"/>
<path style="fill:#7a7470; stroke:none;" d="M88 47L89 48L88 47z"/>
<path style="fill:#515357; stroke:none;" d="M96 47L97 48L96 47M5 48L6 49L5 48z"/>
<path style="fill:#a9a7a7; stroke:none;" d="M13 48L14 49L13 48z"/>
<path style="fill:#7a7470; stroke:none;" d="M89 48L90 49L89 48z"/>
<path style="fill:#515357; stroke:none;" d="M97 48L98 49L97 48M4 49L5 50L4 49z"/>
<path style="fill:#a9a7a7; stroke:none;" d="M12 49L13 50L12 49M90 49L91 50L90 49z"/>
<path style="fill:#515357; stroke:none;" d="M98 49L99 50L98 49M3 50L4 51L3 50M5 50L6 51L5 50z"/>
<path style="fill:#a9a7a7; stroke:none;" d="M11 50C14.7096 54.2452 26.5939 52 32 52L32 51L11 50M91 50L92 51L91 50z"/>
<path style="fill:#515357; stroke:none;" d="M99 50L100 51L99 50M2 51C5.99198 59.5603 16.3258 68.5942 24 74L2 51M10 51L11 52L10 51z"/>
<path style="fill:#7a7470; stroke:none;" d="M92.3333 51.6667L92.6667 52.3333L92.3333 51.6667z"/>
<path style="fill:#515357; stroke:none;" d="M100 51L101 52L100 51M27 52L27 53L30 53L27 52M31 52L31 53L34 53L31 52z"/>
<path style="fill:#7a7470; stroke:none;" d="M34 52L34 53L64 53L34 52z"/>
<path style="fill:#a9a7a7; stroke:none;" d="M64 52L64 53L67 53L64 52z"/>
<path style="fill:#7a7470; stroke:none;" d="M67.6667 52.3333L68.3333 52.6667L67.6667 52.3333z"/>
<path style="fill:#a9a7a7; stroke:none;" d="M69 52L69 53L92 53L69 52z"/>
<path style="fill:#7a7470; stroke:none;" d="M101 52L102 53L101 52z"/>
<path style="fill:#a9a7a7; stroke:none;" d="M2 53L3 54L2 53z"/>
<path style="fill:#515357; stroke:none;" d="M100 53L72 82C79.7703 76.5265 97.7519 62.2743 100 53z"/>
<path style="fill:#a9a7a7; stroke:none;" d="M101 53L102 54L101 53M3 54L4 55L3 54M100 54L101 55L100 54M4 55L5 56L4 55M99 55L100 56L99 55M5 56L6 57L5 56M98 56L99 57L98 56M6 57L7 58L6 57M97 57L98 58L97 57M7 58L8 59L7 58M96 58L97 59L96 58M8 59L9 60L8 59M95 59L96 60L95 59M9 60L10 61L9 60M94 60L95 61L94 60M10 61L11 62L10 61M93 61L94 62L93 61M11 62L12 63L11 62M92 62L93 63L92 62M12 63L13 64L12 63M91 63L92 64L91 63M13 64L14 65L13 64M90 64L91 65L90 64M14 65L15 66L14 65M89 65L90 66L89 65M15 66L16 67L15 66M88 66L89 67L88 66M16 67L17 68L16 67M87 67L88 68L87 67M17 68L18 69L17 68M86 68L87 69L86 68M18 69L19 70L18 69M85 69L86 70L85 69M19 70L20 71L19 70M84 70L85 71L84 70M20 71L21 72L20 71M83 71L84 72L83 71M21 72L22 73L21 72M82 72L83 73L82 72M22 73L23 74L22 73M81 73L82 74L81 73M23 74L24 75L23 74M80 74L81 75L80 74z"/>
<path style="fill:#7a7470; stroke:none;" d="M24 75L26 77L24 75z"/>
<path style="fill:#515357; stroke:none;" d="M25 75L26 76L25 75z"/>
<path style="fill:#a9a7a7; stroke:none;" d="M79 75L80 76L79 75z"/>
<path style="fill:#515357; stroke:none;" d="M27 76L28 77L27 76z"/>
<path style="fill:#a9a7a7; stroke:none;" d="M78 76L79 77L78 76z"/>
<path style="fill:#515357; stroke:none;" d="M26 77L27 78L26 77z"/>
<path style="fill:#a9a7a7; stroke:none;" d="M77 77L78 78L77 77M26 78C31.9819 86.492 42.5376 98.5873 52 103L52 102L26 78z"/>
<path style="fill:#7a7470; stroke:none;" d="M27 78L28 79L27 78z"/>
<path style="fill:#a9a7a7; stroke:none;" d="M76 78L77 79L76 78z"/>
<path style="fill:#7a7470; stroke:none;" d="M28 79L29 80L28 79z"/>
<path style="fill:#a9a7a7; stroke:none;" d="M75 79L76 80L75 79z"/>
<path style="fill:#7a7470; stroke:none;" d="M29 80L30 81L29 80z"/>
<path style="fill:#a9a7a7; stroke:none;" d="M74 80L75 81L74 80z"/>
<path style="fill:#515357; stroke:none;" d="M30 81L31 82L30 81z"/>
<path style="fill:#a9a7a7; stroke:none;" d="M73 81L74 82L73 81z"/>
<path style="fill:#515357; stroke:none;" d="M31 82L32 83L31 82z"/>
<path style="fill:#7a7470; stroke:none;" d="M71 82L70 84L71 82z"/>
<path style="fill:#a9a7a7; stroke:none;" d="M72 82L73 83L72 82z"/>
<path style="fill:#515357; stroke:none;" d="M32 83L33 84L32 83M69 83L52 101C57.4408 97.1674 67.4027 89.5896 69 83z"/>
<path style="fill:#a9a7a7; stroke:none;" d="M71 83L72 84L71 83z"/>
<path style="fill:#7a7470; stroke:none;" d="M33 84L34 85L33 84z"/>
<path style="fill:#a9a7a7; stroke:none;" d="M69 84L70 85L69 84z"/>
<path style="fill:#515357; stroke:none;" d="M34 85L35 86L34 85z"/>
<path style="fill:#a9a7a7; stroke:none;" d="M68 85L69 86L68 85z"/>
<path style="fill:#7a7470; stroke:none;" d="M35 86L36 87L35 86z"/>
<path style="fill:#a9a7a7; stroke:none;" d="M67 86L68 87L67 86z"/>
<path style="fill:#7a7470; stroke:none;" d="M36 87L37 88L36 87z"/>
<path style="fill:#a9a7a7; stroke:none;" d="M66 87L67 88L66 87z"/>
<path style="fill:#515357; stroke:none;" d="M37 88L38 89L37 88z"/>
<path style="fill:#a9a7a7; stroke:none;" d="M65 88L66 89L65 88z"/>
<path style="fill:#515357; stroke:none;" d="M38 89L39 90L38 89z"/>
<path style="fill:#a9a7a7; stroke:none;" d="M64 89L61 92L61 93L64 89z"/>
<path style="fill:#7a7470; stroke:none;" d="M39 90L40 91L39 90M63 90L64 91L63 90z"/>
<path style="fill:#515357; stroke:none;" d="M40 91L41 92L40 91z"/>
<path style="fill:#7a7470; stroke:none;" d="M62 91L63 92L62 91z"/>
<path style="fill:#515357; stroke:none;" d="M41 92L42 93L41 92M42 93L43 94L42 93z"/>
<path style="fill:#a9a7a7; stroke:none;" d="M60 93L61 94L60 93z"/>
<path style="fill:#515357; stroke:none;" d="M43 94L44 95L43 94z"/>
<path style="fill:#a9a7a7; stroke:none;" d="M59 94L60 95L59 94z"/>
<path style="fill:#515357; stroke:none;" d="M44 95L45 96L44 95z"/>
<path style="fill:#a9a7a7; stroke:none;" d="M58 95L59 96L58 95z"/>
<path style="fill:#515357; stroke:none;" d="M45 96L46 97L45 96z"/>
<path style="fill:#a9a7a7; stroke:none;" d="M57 96L58 97L57 96z"/>
<path style="fill:#515357; stroke:none;" d="M46 97L47 98L46 97z"/>
<path style="fill:#a9a7a7; stroke:none;" d="M56 97L57 98L56 97z"/>
<path style="fill:#515357; stroke:none;" d="M47 98L48 99L47 98z"/>
<path style="fill:#a9a7a7; stroke:none;" d="M55 98L56 99L55 98z"/>
<path style="fill:#515357; stroke:none;" d="M48 99L49 100L48 99z"/>
<path style="fill:#a9a7a7; stroke:none;" d="M54 99L55 100L54 99z"/>
<path style="fill:#515357; stroke:none;" d="M49 100L50 101L49 100z"/>
<path style="fill:#a9a7a7; stroke:none;" d="M53 100L54 101L53 100z"/>
<path style="fill:#515357; stroke:none;" d="M50 101L51 102L50 101z"/>
<path style="fill:#a9a7a7; stroke:none;" d="M52 101L53 102L52 101z"/>
</svg>
