<?xml version="1.0" standalone="yes"?>
<svg xmlns="http://www.w3.org/2000/svg" width="227" height="144">
<path style="fill:#ffffff; stroke:none;" d="M0 0L0 65L40 65L40 19L112 19L112 0L0 0z"/>
<path style="fill:#010101; stroke:none;" d="M112 0L112 19L40 19L40 65L0 65L0 68L40 68L40 115L112 115L112 144L115 144L115 115L187 115L187 68L227 68L227 65L187 65L187 19L115 19L115 0L112 0z"/>
<path style="fill:#ffffff; stroke:none;" d="M115 0L115 19L187 19L187 65L227 65L227 0L115 0M42 21L42 65L112 65L112 21L42 21M115 21L115 65L185 65L185 21L115 21M0 68L0 144L112 144L112 115L40 115L40 68L0 68M42 68L42 113L112 113L112 68L42 68M115 68L115 113L185 113L185 68L115 68M187 68L187 115L115 115L115 144L227 144L227 68L187 68z"/>
</svg>
