<?xml version="1.0" standalone="yes"?>
<svg xmlns="http://www.w3.org/2000/svg" width="174" height="163">
<path style="fill:#ffffff; stroke:none;" d="M0 0L0 163L174 163L174 0L0 0z"/>
<path style="fill:#5e5e5e; stroke:none;" d="M85 8L86 9L85 8z"/>
<path style="fill:#030303; stroke:none;" d="M85 9L71.9468 48L65.7222 60.9722L50 62L11 63L11 64L42 85.7199L53.6466 95.1844L50.3302 110L39 147L72 126L86 118.542L100 126.656L132 147L116 94L160 64L160 63L120 62L104.51 60.3966L98.9468 47L85 9z"/>
<path style="fill:#ababab; stroke:none;" d="M84 10L85 11L84 10M86 10L87 11L86 10z"/>
<path style="fill:#5e5e5e; stroke:none;" d="M84 11L85 12L84 11z"/>
<path style="fill:#393939; stroke:none;" d="M86 11L87 12L86 11z"/>
<path style="fill:#ababab; stroke:none;" d="M83 13L84 14L83 13M87 13L88 14L87 13z"/>
<path style="fill:#5e5e5e; stroke:none;" d="M83 14L84 15L83 14z"/>
<path style="fill:#393939; stroke:none;" d="M87 14L88 15L87 14z"/>
<path style="fill:#ababab; stroke:none;" d="M82 16L83 17L82 16M88 16L89 17L88 16z"/>
<path style="fill:#5e5e5e; stroke:none;" d="M82 17L83 18L82 17z"/>
<path style="fill:#ababab; stroke:none;" d="M81 19L82 20L81 19z"/>
<path style="fill:#393939; stroke:none;" d="M85 19L86 20L85 19z"/>
<path style="fill:#ababab; stroke:none;" d="M89 19L90 20L89 19z"/>
<path style="fill:#5e5e5e; stroke:none;" d="M81 20L82 21L81 20z"/>
<path style="fill:#ababab; stroke:none;" d="M85 20L86 21L85 20z"/>
<path style="fill:#ffffff; stroke:none;" d="M85 21L71 65L23 67L23 68L49 85.7199L58.4545 94.0934L55.3441 107L46 137L74 119.997L85.5756 113.404L97 119.947L125 137L115.667 107L112.272 94.3256L121 86.5756L148 68L148 67L117 66L102.225 64.142L96 51L85 21z"/>
<path style="fill:#5e5e5e; stroke:none;" d="M80 22L81 23L80 22M84 22L85 23L84 22z"/>
<path style="fill:#393939; stroke:none;" d="M86 22L87 23L86 22z"/>
<path style="fill:#5e5e5e; stroke:none;" d="M90 22L91 23L90 22z"/>
<path style="fill:#ababab; stroke:none;" d="M84 23L85 24L84 23M86 23L87 24L86 23M79 24L80 25L79 24z"/>
<path style="fill:#5e5e5e; stroke:none;" d="M79 25L80 26L79 25M83 25L84 26L83 25M87 25L88 26L87 25M91 25L92 26L91 25z"/>
<path style="fill:#ababab; stroke:none;" d="M83 26L84 27L83 26M87 26L88 27L87 26M78 27L79 28L78 27z"/>
<path style="fill:#5e5e5e; stroke:none;" d="M78 28L79 29L78 28M82 28L83 29L82 28M88 28L89 29L88 28M92 28L93 29L92 28z"/>
<path style="fill:#ababab; stroke:none;" d="M82 29L83 30L82 29M88 29L89 30L88 29M77 30L78 31L77 30M93 30L94 31L93 30z"/>
<path style="fill:#5e5e5e; stroke:none;" d="M77 31L78 32L77 31M81 31L82 32L81 31M89 31L90 32L89 31M93 31L94 32L93 31z"/>
<path style="fill:#ababab; stroke:none;" d="M81 32L82 33L81 32M89 32L90 33L89 32M76 33L77 34L76 33M94 33L95 34L94 33z"/>
<path style="fill:#5e5e5e; stroke:none;" d="M76 34L77 35L76 34M80 34L81 35L80 34M90 34L91 35L90 34M94 34L95 35L94 34z"/>
<path style="fill:#ababab; stroke:none;" d="M80 35L81 36L80 35M90 35L91 36L90 35M75 36L76 37L75 36M95 36L96 37L95 36z"/>
<path style="fill:#5e5e5e; stroke:none;" d="M75 37L76 38L75 37M79 37L80 38L79 37M91 37L92 38L91 37M95 37L96 38L95 37z"/>
<path style="fill:#ababab; stroke:none;" d="M79 38L80 39L79 38M74 39L75 40L74 39M96 39L97 40L96 39z"/>
<path style="fill:#5e5e5e; stroke:none;" d="M74 40L75 41L74 40M78 40L79 41L78 40M92 40L93 41L92 40z"/>
<path style="fill:#393939; stroke:none;" d="M96 40L97 41L96 40z"/>
<path style="fill:#ababab; stroke:none;" d="M78 41L79 42L78 41M73 42L74 43L73 42z"/>
<path style="fill:#5e5e5e; stroke:none;" d="M77 42L78 43L77 42z"/>
<path style="fill:#ababab; stroke:none;" d="M97 42L98 43L97 42z"/>
<path style="fill:#5e5e5e; stroke:none;" d="M73 43L74 44L73 43z"/>
<path style="fill:#ababab; stroke:none;" d="M77 43L78 44L77 43M93 43L94 44L93 43z"/>
<path style="fill:#393939; stroke:none;" d="M97 43L98 44L97 43z"/>
<path style="fill:#ababab; stroke:none;" d="M72 45L73 46L72 45z"/>
<path style="fill:#5e5e5e; stroke:none;" d="M76 45L77 46L76 45z"/>
<path style="fill:#ababab; stroke:none;" d="M98 45L99 46L98 45z"/>
<path style="fill:#5e5e5e; stroke:none;" d="M72 46L73 47L72 46z"/>
<path style="fill:#ababab; stroke:none;" d="M76 46L77 47L76 46M94 46L95 47L94 46M71 48L72 49L71 48z"/>
<path style="fill:#5e5e5e; stroke:none;" d="M75 48L76 49L75 48z"/>
<path style="fill:#393939; stroke:none;" d="M95 48L96 49L95 48z"/>
<path style="fill:#ababab; stroke:none;" d="M99 48L100 49L99 48z"/>
<path style="fill:#5e5e5e; stroke:none;" d="M71 49L72 50L71 49z"/>
<path style="fill:#ababab; stroke:none;" d="M75 49L76 50L75 49M95 49L96 50L95 49M70 50L71 51L70 50z"/>
<path style="fill:#5e5e5e; stroke:none;" d="M70 51L71 52L70 51M74 51L75 52L74 51z"/>
<path style="fill:#393939; stroke:none;" d="M96 51L97 52L96 51z"/>
<path style="fill:#5e5e5e; stroke:none;" d="M100 51L101 52L100 51z"/>
<path style="fill:#ababab; stroke:none;" d="M74 52L75 53L74 52M96 52L97 53L96 52M69 53L70 54L69 53z"/>
<path style="fill:#5e5e5e; stroke:none;" d="M69 54L70 55L69 54M73 54L74 55L73 54M97 54L98 55L97 54M101 54L102 55L101 54z"/>
<path style="fill:#ababab; stroke:none;" d="M73 55L74 56L73 55M97 55L98 56L97 55M68 56L69 57L68 56M102 56L103 57L102 56z"/>
<path style="fill:#5e5e5e; stroke:none;" d="M68 57L69 58L68 57M72 57L73 58L72 57M98 57L99 58L98 57M102 57L103 58L102 57z"/>
<path style="fill:#ababab; stroke:none;" d="M72 58L73 59L72 58M98 58L99 59L98 58M67 59L68 60L67 59M103 59L104 60L103 59z"/>
<path style="fill:#5e5e5e; stroke:none;" d="M67 60L68 61L67 60M71 60L72 61L71 60M99 60L100 61L99 60M103 60L104 61L103 60z"/>
<path style="fill:#ababab; stroke:none;" d="M42 61L42 62L55 62L42 61z"/>
<path style="fill:#5e5e5e; stroke:none;" d="M55 61L55 62L63 62L55 61z"/>
<path style="fill:#393939; stroke:none;" d="M63 61L63 62L67 62L63 61z"/>
<path style="fill:#ababab; stroke:none;" d="M71 61L72 62L71 61M99 61L100 62L99 61z"/>
<path style="fill:#393939; stroke:none;" d="M104 61L104 62L108 62L104 61z"/>
<path style="fill:#5e5e5e; stroke:none;" d="M108 61L108 62L116 62L108 61z"/>
<path style="fill:#ababab; stroke:none;" d="M116 61L116 62L129 62L116 61M9 62L9 63L13 63L9 62z"/>
<path style="fill:#5e5e5e; stroke:none;" d="M13 62L13 63L21 63L13 62z"/>
<path style="fill:#393939; stroke:none;" d="M21 62L21 63L26 63L21 62M145 62L145 63L149 63L145 62z"/>
<path style="fill:#5e5e5e; stroke:none;" d="M149 62L149 63L158 63L149 62z"/>
<path style="fill:#ababab; stroke:none;" d="M158 62L158 63L162 63L158 62z"/>
<path style="fill:#5e5e5e; stroke:none;" d="M10 63L11 64L10 63M70 63L71 64L70 63M100 63L101 64L100 63M160 63L161 64L160 63z"/>
<path style="fill:#ababab; stroke:none;" d="M11 64L12 65L11 64M70 64L71 65L70 64M159 64L160 65L159 64z"/>
<path style="fill:#5e5e5e; stroke:none;" d="M13 65L14 66L13 65z"/>
<path style="fill:#393939; stroke:none;" d="M42 65L42 66L47 66L42 65z"/>
<path style="fill:#5e5e5e; stroke:none;" d="M47 65L47 66L55 66L47 65z"/>
<path style="fill:#ababab; stroke:none;" d="M55 65L55 66L67 66L55 65M104 65L104 66L116 66L104 65z"/>
<path style="fill:#5e5e5e; stroke:none;" d="M116 65L116 66L125 66L116 65z"/>
<path style="fill:#393939; stroke:none;" d="M125 65L125 66L129 66L125 65M157 65L158 66L157 65z"/>
<path style="fill:#ababab; stroke:none;" d="M14 66L15 67L14 66z"/>
<path style="fill:#5e5e5e; stroke:none;" d="M21 66L22 67L21 66z"/>
<path style="fill:#ababab; stroke:none;" d="M22 66L22 67L26 67L22 66M145 66L145 67L149 67L145 66z"/>
<path style="fill:#5e5e5e; stroke:none;" d="M149 66L150 67L149 66z"/>
<path style="fill:#ababab; stroke:none;" d="M156 66L157 67L156 66M15 67L16 68L15 67z"/>
<path style="fill:#393939; stroke:none;" d="M16 67L17 68L16 67M22 67L23 68L22 67z"/>
<path style="fill:#5e5e5e; stroke:none;" d="M17 68L18 69L17 68z"/>
<path style="fill:#ababab; stroke:none;" d="M24 68L25 69L24 68M146 68L147 69L146 68z"/>
<path style="fill:#5e5e5e; stroke:none;" d="M153 68L154 69L153 68z"/>
<path style="fill:#ababab; stroke:none;" d="M18 69L19 70L18 69z"/>
<path style="fill:#5e5e5e; stroke:none;" d="M25 69L26 70L25 69M145 69L146 70L145 69z"/>
<path style="fill:#ababab; stroke:none;" d="M152 69L153 70L152 69z"/>
<path style="fill:#5e5e5e; stroke:none;" d="M20 70L21 71L20 70z"/>
<path style="fill:#ababab; stroke:none;" d="M27 70L28 71L27 70M143 70L144 71L143 70z"/>
<path style="fill:#5e5e5e; stroke:none;" d="M150 70L151 71L150 70z"/>
<path style="fill:#ababab; stroke:none;" d="M21 71L22 72L21 71z"/>
<path style="fill:#5e5e5e; stroke:none;" d="M28 71L29 72L28 71M142 71L143 72L142 71z"/>
<path style="fill:#ababab; stroke:none;" d="M149 71L150 72L149 71z"/>
<path style="fill:#393939; stroke:none;" d="M23 72L24 73L23 72z"/>
<path style="fill:#ababab; stroke:none;" d="M30 72L31 73L30 72M140 72L141 73L140 72z"/>
<path style="fill:#393939; stroke:none;" d="M147 72L148 73L147 72z"/>
<path style="fill:#ababab; stroke:none;" d="M24 73L25 74L24 73z"/>
<path style="fill:#5e5e5e; stroke:none;" d="M31 73L32 74L31 73M139 73L140 74L139 73z"/>
<path style="fill:#ababab; stroke:none;" d="M146 73L147 74L146 73M25 74L26 75L25 74z"/>
<path style="fill:#393939; stroke:none;" d="M32 74L33 75L32 74M138 74L139 75L138 74z"/>
<path style="fill:#5e5e5e; stroke:none;" d="M27 75L28 76L27 75z"/>
<path style="fill:#ababab; stroke:none;" d="M34 75L35 76L34 75M136 75L137 76L136 75z"/>
<path style="fill:#5e5e5e; stroke:none;" d="M143 75L144 76L143 75z"/>
<path style="fill:#ababab; stroke:none;" d="M28 76L29 77L28 76z"/>
<path style="fill:#5e5e5e; stroke:none;" d="M35 76L36 77L35 76M135 76L136 77L135 76z"/>
<path style="fill:#ababab; stroke:none;" d="M142 76L143 77L142 76z"/>
<path style="fill:#5e5e5e; stroke:none;" d="M30 77L31 78L30 77z"/>
<path style="fill:#ababab; stroke:none;" d="M37 77L38 78L37 77M133 77L134 78L133 77z"/>
<path style="fill:#5e5e5e; stroke:none;" d="M140 77L141 78L140 77z"/>
<path style="fill:#ababab; stroke:none;" d="M31 78L32 79L31 78z"/>
<path style="fill:#5e5e5e; stroke:none;" d="M38 78L39 79L38 78M132 78L133 79L132 78z"/>
<path style="fill:#ababab; stroke:none;" d="M139 78L140 79L139 78z"/>
<path style="fill:#393939; stroke:none;" d="M33 79L34 80L33 79z"/>
<path style="fill:#ababab; stroke:none;" d="M40 79L41 80L40 79z"/>
<path style="fill:#393939; stroke:none;" d="M137 79L138 80L137 79z"/>
<path style="fill:#ababab; stroke:none;" d="M34 80L35 81L34 80M41 80L42 81L41 80M129 80L130 81L129 80M136 80L137 81L136 80M35 81L36 82L35 81z"/>
<path style="fill:#393939; stroke:none;" d="M42 81L43 82L42 81M128 81L129 82L128 81z"/>
<path style="fill:#ababab; stroke:none;" d="M135 81L136 82L135 81z"/>
<path style="fill:#5e5e5e; stroke:none;" d="M37 82L38 83L37 82z"/>
<path style="fill:#ababab; stroke:none;" d="M44 82L45 83L44 82M126 82L127 83L126 82z"/>
<path style="fill:#5e5e5e; stroke:none;" d="M133 82L134 83L133 82z"/>
<path style="fill:#ababab; stroke:none;" d="M38 83L39 84L38 83z"/>
<path style="fill:#5e5e5e; stroke:none;" d="M45 83L46 84L45 83M125 83L126 84L125 83z"/>
<path style="fill:#ababab; stroke:none;" d="M132 83L133 84L132 83z"/>
<path style="fill:#5e5e5e; stroke:none;" d="M40 84L41 85L40 84z"/>
<path style="fill:#ababab; stroke:none;" d="M47 84L48 85L47 84M123 84L124 85L123 84z"/>
<path style="fill:#5e5e5e; stroke:none;" d="M130 84L131 85L130 84z"/>
<path style="fill:#ababab; stroke:none;" d="M41 85L42 86L41 85z"/>
<path style="fill:#5e5e5e; stroke:none;" d="M48 85L49 86L48 85M122 85L123 86L122 85z"/>
<path style="fill:#ababab; stroke:none;" d="M129 85L130 86L129 85z"/>
<path style="fill:#393939; stroke:none;" d="M43 86L44 87L43 86z"/>
<path style="fill:#ababab; stroke:none;" d="M50 86L51 87L50 86z"/>
<path style="fill:#393939; stroke:none;" d="M127 86L128 87L127 86z"/>
<path style="fill:#5e5e5e; stroke:none;" d="M44 87L45 88L44 87z"/>
<path style="fill:#ababab; stroke:none;" d="M51 87L52 88L51 87M119 87L120 88L119 87z"/>
<path style="fill:#5e5e5e; stroke:none;" d="M126 87L127 88L126 87z"/>
<path style="fill:#ababab; stroke:none;" d="M45 88L46 89L45 88z"/>
<path style="fill:#393939; stroke:none;" d="M52 88L53 89L52 88M118 88L119 89L118 88z"/>
<path style="fill:#ababab; stroke:none;" d="M125 88L126 89L125 88z"/>
<path style="fill:#5e5e5e; stroke:none;" d="M47 89L48 90L47 89z"/>
<path style="fill:#ababab; stroke:none;" d="M54 89L55 90L54 89M116 89L117 90L116 89z"/>
<path style="fill:#5e5e5e; stroke:none;" d="M123 89L124 90L123 89z"/>
<path style="fill:#ababab; stroke:none;" d="M48 90L49 91L48 90z"/>
<path style="fill:#5e5e5e; stroke:none;" d="M55 90L56 91L55 90M115 90L116 91L115 90z"/>
<path style="fill:#ababab; stroke:none;" d="M122 90L123 91L122 90z"/>
<path style="fill:#5e5e5e; stroke:none;" d="M50 91L51 92L50 91z"/>
<path style="fill:#ababab; stroke:none;" d="M57 91L58 92L57 91M113 91L114 92L113 91z"/>
<path style="fill:#5e5e5e; stroke:none;" d="M120 91L121 92L120 91z"/>
<path style="fill:#ababab; stroke:none;" d="M51 92L52 93L51 92z"/>
<path style="fill:#5e5e5e; stroke:none;" d="M58 92L59 93L58 92M112 92L113 93L112 92z"/>
<path style="fill:#ababab; stroke:none;" d="M119 92L120 93L119 92z"/>
<path style="fill:#393939; stroke:none;" d="M53 93L54 94L53 93z"/>
<path style="fill:#5e5e5e; stroke:none;" d="M59 93L60 94L59 93M111 93L112 94L111 93M54 94L55 95L54 94z"/>
<path style="fill:#ababab; stroke:none;" d="M59 94L60 95L59 94z"/>
<path style="fill:#5e5e5e; stroke:none;" d="M116 94L117 95L116 94z"/>
<path style="fill:#ababab; stroke:none;" d="M54 95L55 96L54 95M116 95L117 96L116 95z"/>
<path style="fill:#5e5e5e; stroke:none;" d="M54 96L55 97L54 96M58 96L59 97L58 96M112 96L113 97L112 96M116 96L117 97L116 96z"/>
<path style="fill:#ababab; stroke:none;" d="M58 97L59 98L58 97M112 97L113 98L112 97M53 98L54 99L53 98M117 98L118 99L117 98z"/>
<path style="fill:#5e5e5e; stroke:none;" d="M53 99L54 100L53 99M57 99L58 100L57 99M113 99L114 100L113 99M117 99L118 100L117 99z"/>
<path style="fill:#ababab; stroke:none;" d="M57 100L58 101L57 100M113 100L114 101L113 100M52 101L53 102L52 101z"/>
<path style="fill:#5e5e5e; stroke:none;" d="M52 102L53 103L52 102M56 102L57 103L56 102M114 102L115 103L114 102M118 102L119 103L118 102z"/>
<path style="fill:#ababab; stroke:none;" d="M56 103L57 104L56 103M114 103L115 104L114 103M51.3333 104.667L51.6667 105.333L51.3333 104.667z"/>
<path style="fill:#5e5e5e; stroke:none;" d="M55 105L56 106L55 105z"/>
<path style="fill:#393939; stroke:none;" d="M115 105L116 106L115 105z"/>
<path style="fill:#ababab; stroke:none;" d="M119 105L120 106L119 105z"/>
<path style="fill:#5e5e5e; stroke:none;" d="M51 106L52 107L51 106z"/>
<path style="fill:#ababab; stroke:none;" d="M55 106L56 107L55 106M115 106L116 107L115 106M50 108L51 109L50 108z"/>
<path style="fill:#5e5e5e; stroke:none;" d="M54 108L55 109L54 108z"/>
<path style="fill:#393939; stroke:none;" d="M116 108L117 109L116 108z"/>
<path style="fill:#ababab; stroke:none;" d="M120 108L121 109L120 108z"/>
<path style="fill:#5e5e5e; stroke:none;" d="M50 109L51 110L50 109z"/>
<path style="fill:#ababab; stroke:none;" d="M54 109L55 110L54 109M116 109L117 110L116 109z"/>
<path style="fill:#393939; stroke:none;" d="M120 109L121 110L120 109z"/>
<path style="fill:#ababab; stroke:none;" d="M49 111L50 112L49 111z"/>
<path style="fill:#5e5e5e; stroke:none;" d="M53 111L54 112L53 111z"/>
<path style="fill:#ababab; stroke:none;" d="M121 111L122 112L121 111z"/>
<path style="fill:#5e5e5e; stroke:none;" d="M49 112L50 113L49 112z"/>
<path style="fill:#ababab; stroke:none;" d="M53.3333 112.667L53.6667 113.333L53.3333 112.667z"/>
<path style="fill:#5e5e5e; stroke:none;" d="M85 112L86 113L85 112z"/>
<path style="fill:#ababab; stroke:none;" d="M117 112L118 113L117 112z"/>
<path style="fill:#393939; stroke:none;" d="M121 112L122 113L121 112z"/>
<path style="fill:#ababab; stroke:none;" d="M83 113L84 114L83 113M87 113L88 114L87 113M48 114L49 115L48 114z"/>
<path style="fill:#5e5e5e; stroke:none;" d="M82 114L83 115L82 114M88 114L89 115L88 114z"/>
<path style="fill:#ababab; stroke:none;" d="M122 114L123 115L122 114z"/>
<path style="fill:#5e5e5e; stroke:none;" d="M48 115L49 116L48 115M52 115L53 116L52 115z"/>
<path style="fill:#ababab; stroke:none;" d="M80 115L81 116L80 115M90 115L91 116L90 115z"/>
<path style="fill:#5e5e5e; stroke:none;" d="M118 115L119 116L118 115M122 115L123 116L122 115z"/>
<path style="fill:#ababab; stroke:none;" d="M52 116L53 117L52 116z"/>
<path style="fill:#5e5e5e; stroke:none;" d="M79 116L80 117L79 116M91 116L92 117L91 116z"/>
<path style="fill:#ababab; stroke:none;" d="M47 117L48 118L47 117M77 117L78 118L77 117M85 117L86 118L85 117z"/>
<path style="fill:#393939; stroke:none;" d="M86 117L87 118L86 117z"/>
<path style="fill:#ababab; stroke:none;" d="M93 117L94 118L93 117M123 117L124 118L123 117z"/>
<path style="fill:#5e5e5e; stroke:none;" d="M47 118L48 119L47 118M51 118L52 119L51 118M76 118L77 119L76 118z"/>
<path style="fill:#ababab; stroke:none;" d="M83 118L84 119L83 118M87 118L88 119L87 118z"/>
<path style="fill:#5e5e5e; stroke:none;" d="M94 118L95 119L94 118M119 118L120 119L119 118M123 118L124 119L123 118z"/>
<path style="fill:#ababab; stroke:none;" d="M51 119L52 120L51 119M74 119L75 120L74 119M88 119L89 120L88 119z"/>
<path style="fill:#393939; stroke:none;" d="M89 119L90 120L89 119z"/>
<path style="fill:#ababab; stroke:none;" d="M96 119L97 120L96 119M119 119L120 120L119 119M46 120L47 121L46 120z"/>
<path style="fill:#393939; stroke:none;" d="M73 120L74 121L73 120z"/>
<path style="fill:#ababab; stroke:none;" d="M80 120L81 121L80 120M90 120L91 121L90 120z"/>
<path style="fill:#393939; stroke:none;" d="M97 120L98 121L97 120z"/>
<path style="fill:#5e5e5e; stroke:none;" d="M46 121L47 122L46 121M50 121L51 122L50 121z"/>
<path style="fill:#ababab; stroke:none;" d="M71 121L72 122L71 121z"/>
<path style="fill:#393939; stroke:none;" d="M78 121L79 122L78 121z"/>
<path style="fill:#5e5e5e; stroke:none;" d="M92 121L93 122L92 121z"/>
<path style="fill:#ababab; stroke:none;" d="M99 121L100 122L99 121z"/>
<path style="fill:#5e5e5e; stroke:none;" d="M120 121L121 122L120 121M124 121L125 122L124 121z"/>
<path style="fill:#ababab; stroke:none;" d="M50 122L51 123L50 122M77 122L78 123L77 122M93 122L94 123L93 122z"/>
<path style="fill:#393939; stroke:none;" d="M100 122L101 123L100 122z"/>
<path style="fill:#ababab; stroke:none;" d="M101 122L102 123L101 122M120 122L121 123L120 122M45.3333 123.667L45.6667 124.333L45.3333 123.667z"/>
<path style="fill:#5e5e5e; stroke:none;" d="M68 123L69 124L68 123M75 123L76 124L75 123M95 123L96 124L95 123M102 123L103 124L102 123M49 124L50 125L49 124z"/>
<path style="fill:#ababab; stroke:none;" d="M66 124L67 125L66 124M74 124L75 125L74 124M96 124L97 125L96 124M104 124L105 125L104 124z"/>
<path style="fill:#393939; stroke:none;" d="M121 124L122 125L121 124z"/>
<path style="fill:#ababab; stroke:none;" d="M125 124L126 125L125 124z"/>
<path style="fill:#5e5e5e; stroke:none;" d="M45 125L46 126L45 125z"/>
<path style="fill:#ababab; stroke:none;" d="M49 125L50 126L49 125z"/>
<path style="fill:#5e5e5e; stroke:none;" d="M65 125L66 126L65 125M72 125L73 126L72 125M98 125L99 126L98 125M105 125L106 126L105 125z"/>
<path style="fill:#ababab; stroke:none;" d="M121 125L122 126L121 125M63 126L64 127L63 126M71 126L72 127L71 126M99 126L100 127L99 126M107 126L108 127L107 126M44 127L45 128L44 127z"/>
<path style="fill:#5e5e5e; stroke:none;" d="M48 127L49 128L48 127M62 127L63 128L62 127M69 127L70 128L69 127M101 127L102 128L101 127M108 127L109 128L108 127z"/>
<path style="fill:#393939; stroke:none;" d="M122 127L123 128L122 127z"/>
<path style="fill:#ababab; stroke:none;" d="M126 127L127 128L126 127z"/>
<path style="fill:#5e5e5e; stroke:none;" d="M44 128L45 129L44 128z"/>
<path style="fill:#ababab; stroke:none;" d="M48 128L49 129L48 128M60 128L61 129L60 128M68 128L69 129L68 128M102 128L103 129L102 128M110 128L111 129L110 128M122 128L123 129L122 128z"/>
<path style="fill:#393939; stroke:none;" d="M126 128L127 129L126 128z"/>
<path style="fill:#5e5e5e; stroke:none;" d="M59 129L60 130L59 129M66 129L67 130L66 129M104 129L105 130L104 129M111 129L112 130L111 129z"/>
<path style="fill:#ababab; stroke:none;" d="M43 130L44 131L43 130z"/>
<path style="fill:#5e5e5e; stroke:none;" d="M47 130L48 131L47 130z"/>
<path style="fill:#ababab; stroke:none;" d="M57 130L58 131L57 130M105 130L106 131L105 130z"/>
<path style="fill:#393939; stroke:none;" d="M106 130L107 131L106 130z"/>
<path style="fill:#ababab; stroke:none;" d="M113 130L114 131L113 130M127 130L128 131L127 130z"/>
<path style="fill:#5e5e5e; stroke:none;" d="M43 131L44 132L43 131z"/>
<path style="fill:#ababab; stroke:none;" d="M47.3333 131.667L47.6667 132.333L47.3333 131.667z"/>
<path style="fill:#393939; stroke:none;" d="M56 131L57 132L56 131z"/>
<path style="fill:#ababab; stroke:none;" d="M63 131L64 132L63 131M107 131L108 132L107 131z"/>
<path style="fill:#5e5e5e; stroke:none;" d="M114 131L115 132L114 131z"/>
<path style="fill:#ababab; stroke:none;" d="M123 131L124 132L123 131z"/>
<path style="fill:#393939; stroke:none;" d="M127 131L128 132L127 131z"/>
<path style="fill:#ababab; stroke:none;" d="M54 132L55 133L54 132z"/>
<path style="fill:#393939; stroke:none;" d="M61 132L62 133L61 132z"/>
<path style="fill:#ababab; stroke:none;" d="M108 132L109 133L108 132z"/>
<path style="fill:#393939; stroke:none;" d="M109 132L110 133L109 132z"/>
<path style="fill:#ababab; stroke:none;" d="M116 132L117 133L116 132M42 133L43 134L42 133z"/>
<path style="fill:#393939; stroke:none;" d="M53 133L54 134L53 133z"/>
<path style="fill:#ababab; stroke:none;" d="M60 133L61 134L60 133M110 133L111 134L110 133z"/>
<path style="fill:#393939; stroke:none;" d="M117 133L118 134L117 133z"/>
<path style="fill:#ababab; stroke:none;" d="M118 133L119 134L118 133M128 133L129 134L128 133z"/>
<path style="fill:#5e5e5e; stroke:none;" d="M42 134L43 135L42 134M46 134L47 135L46 134z"/>
<path style="fill:#ababab; stroke:none;" d="M51 134L52 135L51 134z"/>
<path style="fill:#5e5e5e; stroke:none;" d="M58 134L59 135L58 134M112 134L113 135L112 134z"/>
<path style="fill:#ababab; stroke:none;" d="M119 134L120 135L119 134z"/>
<path style="fill:#5e5e5e; stroke:none;" d="M124 134L125 135L124 134M128 134L129 135L128 134z"/>
<path style="fill:#ababab; stroke:none;" d="M46 135L47 136L46 135M57 135L58 136L57 135M113 135L114 136L113 135z"/>
<path style="fill:#393939; stroke:none;" d="M120 135L121 136L120 135z"/>
<path style="fill:#ababab; stroke:none;" d="M121 135L122 136L121 135M41 136L42 137L41 136z"/>
<path style="fill:#5e5e5e; stroke:none;" d="M48 136L49 137L48 136M55 136L56 137L55 136M115 136L116 137L115 136M122 136L123 137L122 136z"/>
<path style="fill:#ababab; stroke:none;" d="M129 136L130 137L129 136z"/>
<path style="fill:#5e5e5e; stroke:none;" d="M41 137L42 138L41 137M45.3333 137.667L45.6667 138.333L45.3333 137.667z"/>
<path style="fill:#ababab; stroke:none;" d="M46 137L47 138L46 137M54 137L55 138L54 137M116 137L117 138L116 137M124 137L125 138L124 137z"/>
<path style="fill:#5e5e5e; stroke:none;" d="M125.333 137.667L125.667 138.333L125.333 137.667M129 137L130 138L129 137M52 138L53 139L52 138M118 138L119 139L118 138z"/>
<path style="fill:#ababab; stroke:none;" d="M40 139L41 140L40 139M51 139L52 140L51 139M119 139L120 140L119 139M130 139L131 140L130 139z"/>
<path style="fill:#5e5e5e; stroke:none;" d="M40 140L41 141L40 140M49 140L50 141L49 140M121 140L122 141L121 140M130 140L131 141L130 140z"/>
<path style="fill:#ababab; stroke:none;" d="M48 141L49 142L48 141M122 141L123 142L122 141M39 142L40 143L39 142z"/>
<path style="fill:#5e5e5e; stroke:none;" d="M46 142L47 143L46 142M124 142L125 143L124 142M39.3333 143.667L39.6667 144.333L39.3333 143.667z"/>
<path style="fill:#ababab; stroke:none;" d="M125 143L126 144L125 143z"/>
<path style="fill:#393939; stroke:none;" d="M126 143L127 144L126 143z"/>
<path style="fill:#5e5e5e; stroke:none;" d="M131 143L132 144L131 143z"/>
<path style="fill:#ababab; stroke:none;" d="M43 144L44 145L43 144M127 144L128 145L127 144z"/>
<path style="fill:#393939; stroke:none;" d="M41 145L42 146L41 145M129 145L130 146L129 145z"/>
<path style="fill:#ababab; stroke:none;" d="M38 146L39 147L38 146M40 146L41 147L40 146M130 146L131 147L130 146M132 146L133 147L132 146z"/>
<path style="fill:#5e5e5e; stroke:none;" d="M38 147L39 148L38 147M132 147L133 148L132 147z"/>
</svg>
