<?xml version="1.0" standalone="yes"?>
<svg xmlns="http://www.w3.org/2000/svg" width="164" height="132">
<path style="fill:#ffffff; stroke:none;" d="M0 0L0 132L164 132L164 0L0 0z"/>
<path style="fill:#5d5d5d; stroke:none;" d="M32.3333 5.66666L32.6667 6.33334L32.3333 5.66666z"/>
<path style="fill:#030303; stroke:none;" d="M33 6L46 43L23 50L35.7932 64L30.9985 71.2708L11 88L11 89L52 87L48 117L71 103.192L80.5756 98.5062L105 117L110 90L136 90L128 70L156 58L156 57L125 47L142 14L101 30L89 13L72 26.3341L61 21.7191L33 6z"/>
<path style="fill:#ababab; stroke:none;" d="M34 6L35 7L34 6M32 7L33 8L32 7M36 7L37 8L36 7z"/>
<path style="fill:#5d5d5d; stroke:none;" d="M37 8L38 9L37 8z"/>
<path style="fill:#ababab; stroke:none;" d="M38 8L39 9L38 8z"/>
<path style="fill:#5d5d5d; stroke:none;" d="M33 9L34 10L33 9M39 9L40 10L39 9z"/>
<path style="fill:#ababab; stroke:none;" d="M41 10L42 11L41 10M43 11L44 12L43 11M34 12L35 13L34 12z"/>
<path style="fill:#5d5d5d; stroke:none;" d="M44 12L45 13L44 12z"/>
<path style="fill:#ababab; stroke:none;" d="M45 12L46 13L45 12M88 12L89 13L88 12z"/>
<path style="fill:#5d5d5d; stroke:none;" d="M46 13L47 14L46 13M87 13L88 14L87 13z"/>
<path style="fill:#ababab; stroke:none;" d="M142.333 13.6667L142.667 14.3333L142.333 13.6667z"/>
<path style="fill:#5d5d5d; stroke:none;" d="M35 14L36 15L35 14M39.6667 14.3333L40.3333 14.6667L39.6667 14.3333z"/>
<path style="fill:#ababab; stroke:none;" d="M48 14L49 15L48 14z"/>
<path style="fill:#5d5d5d; stroke:none;" d="M86 14L87 15L86 14z"/>
<path style="fill:#393939; stroke:none;" d="M89 14L90 15L89 14z"/>
<path style="fill:#ababab; stroke:none;" d="M140 14L141 15L140 14M35 15L36 16L35 15z"/>
<path style="fill:#ffffff; stroke:none;" d="M40 15L51 46L31 51L45 66L23 83L23 84L57 83L53 109L80.5756 93.4406L102 109L107 86L130 86L122 69C128.603 66.251 140.005 63.0991 144 57L119 50L133 22L100 35L88 19L87 19C83.2236 22.7759 77.6448 30.5702 72 31.3125C63.2182 32.4673 48.2083 18.4355 40 15z"/>
<path style="fill:#ababab; stroke:none;" d="M41 15L42 16L41 15z"/>
<path style="fill:#5d5d5d; stroke:none;" d="M42 15L43 16L42 15z"/>
<path style="fill:#ababab; stroke:none;" d="M50 15L51 16L50 15z"/>
<path style="fill:#393939; stroke:none;" d="M85 15L86 16L85 15z"/>
<path style="fill:#5d5d5d; stroke:none;" d="M90 15L91 16L90 15z"/>
<path style="fill:#ababab; stroke:none;" d="M137 15L138 16L137 15z"/>
<path style="fill:#5d5d5d; stroke:none;" d="M138 15L139 16L138 15M141 15L142 16L141 15z"/>
<path style="fill:#ababab; stroke:none;" d="M40 16L41 17L40 16M43 16L44 17L43 16z"/>
<path style="fill:#5d5d5d; stroke:none;" d="M51 16L52 17L51 16z"/>
<path style="fill:#ababab; stroke:none;" d="M52 16L53 17L52 16z"/>
<path style="fill:#393939; stroke:none;" d="M84 16L85 17L84 16z"/>
<path style="fill:#ababab; stroke:none;" d="M91 16L92 17L91 16z"/>
<path style="fill:#5d5d5d; stroke:none;" d="M135 16L136 17L135 16z"/>
<path style="fill:#ababab; stroke:none;" d="M141 16L142 17L141 16z"/>
<path style="fill:#5d5d5d; stroke:none;" d="M36 17L37 18L36 17M40 17L41 18L40 17z"/>
<path style="fill:#ababab; stroke:none;" d="M45 17L46 18L45 17z"/>
<path style="fill:#5d5d5d; stroke:none;" d="M53 17L54 18L53 17z"/>
<path style="fill:#393939; stroke:none;" d="M83 17L84 18L83 17z"/>
<path style="fill:#ababab; stroke:none;" d="M92 17L93 18L92 17M132 17L133 18L132 17z"/>
<path style="fill:#393939; stroke:none;" d="M133 17L134 18L133 17z"/>
<path style="fill:#5d5d5d; stroke:none;" d="M140 17L141 18L140 17M47 18L48 19L47 18z"/>
<path style="fill:#ababab; stroke:none;" d="M55 18L56 19L55 18z"/>
<path style="fill:#5d5d5d; stroke:none;" d="M130 18L131 19L130 18z"/>
<path style="fill:#ababab; stroke:none;" d="M140 18L141 19L140 18M41 19L42 20L41 19M48 19L49 20L48 19z"/>
<path style="fill:#5d5d5d; stroke:none;" d="M49 19L50 20L49 19z"/>
<path style="fill:#ababab; stroke:none;" d="M57 19L58 20L57 19z"/>
<path style="fill:#393939; stroke:none;" d="M86 19L87 20L86 19z"/>
<path style="fill:#ababab; stroke:none;" d="M88 19L89 20L88 19z"/>
<path style="fill:#393939; stroke:none;" d="M93 19L94 20L93 19z"/>
<path style="fill:#ababab; stroke:none;" d="M127 19L128 20L127 19z"/>
<path style="fill:#5d5d5d; stroke:none;" d="M139 19L140 20L139 19z"/>
<path style="fill:#ababab; stroke:none;" d="M37 20L38 21L37 20M50 20L51 21L50 20z"/>
<path style="fill:#5d5d5d; stroke:none;" d="M58 20L59 21L58 20z"/>
<path style="fill:#ababab; stroke:none;" d="M59 20L60 21L59 20M79 20L80 21L79 20z"/>
<path style="fill:#393939; stroke:none;" d="M85 20L86 21L85 20z"/>
<path style="fill:#5d5d5d; stroke:none;" d="M89 20L90 21L89 20M94 20L95 21L94 20M125 20L126 21L125 20z"/>
<path style="fill:#ababab; stroke:none;" d="M52 21L53 22L52 21z"/>
<path style="fill:#5d5d5d; stroke:none;" d="M60 21L61 22L60 21z"/>
<path style="fill:#ababab; stroke:none;" d="M78 21L79 22L78 21z"/>
<path style="fill:#5d5d5d; stroke:none;" d="M84 21L85 22L84 21z"/>
<path style="fill:#393939; stroke:none;" d="M90 21L91 22L90 21z"/>
<path style="fill:#ababab; stroke:none;" d="M95 21L96 22L95 21M122 21L123 22L122 21z"/>
<path style="fill:#5d5d5d; stroke:none;" d="M133.333 21.6667L133.667 22.3333L133.333 21.6667M138 21L139 22L138 21z"/>
<path style="fill:#393939; stroke:none;" d="M38 22L39 23L38 22z"/>
<path style="fill:#5d5d5d; stroke:none;" d="M42 22L43 23L42 22M54 22L55 23L54 22z"/>
<path style="fill:#ababab; stroke:none;" d="M62 22L63 23L62 22M77 22L78 23L77 22z"/>
<path style="fill:#5d5d5d; stroke:none;" d="M83 22L84 23L83 22z"/>
<path style="fill:#ababab; stroke:none;" d="M119 22L120 23L119 22z"/>
<path style="fill:#5d5d5d; stroke:none;" d="M120 22L121 23L120 22z"/>
<path style="fill:#393939; stroke:none;" d="M130 22L131 23L130 22z"/>
<path style="fill:#ababab; stroke:none;" d="M131 22L132 23L131 22M38 23L39 24L38 23M55 23L56 24L55 23z"/>
<path style="fill:#5d5d5d; stroke:none;" d="M56 23L57 24L56 23z"/>
<path style="fill:#ababab; stroke:none;" d="M64 23L65 24L64 23M76 23L77 24L76 23z"/>
<path style="fill:#5d5d5d; stroke:none;" d="M82 23L83 24L82 23z"/>
<path style="fill:#ababab; stroke:none;" d="M91 23L92 24L91 23z"/>
<path style="fill:#5d5d5d; stroke:none;" d="M117 23L118 24L117 23z"/>
<path style="fill:#ababab; stroke:none;" d="M128 23L129 24L128 23M137 23L138 24L137 23M43 24L44 25L43 24M57 24L58 25L57 24z"/>
<path style="fill:#5d5d5d; stroke:none;" d="M65 24L66 25L65 24z"/>
<path style="fill:#ababab; stroke:none;" d="M66 24L67 25L66 24M75 24L76 25L75 24M81 24L82 25L81 24M92 24L93 25L92 24z"/>
<path style="fill:#5d5d5d; stroke:none;" d="M97 24L98 25L97 24z"/>
<path style="fill:#ababab; stroke:none;" d="M114 24L115 25L114 24z"/>
<path style="fill:#393939; stroke:none;" d="M115 24L116 25L115 24z"/>
<path style="fill:#5d5d5d; stroke:none;" d="M125 24L126 25L125 24z"/>
<path style="fill:#ababab; stroke:none;" d="M126 24L127 25L126 24z"/>
<path style="fill:#5d5d5d; stroke:none;" d="M132 24L133 25L132 24M39 25L40 26L39 25M43 25L44 26L43 25z"/>
<path style="fill:#ababab; stroke:none;" d="M59 25L60 26L59 25z"/>
<path style="fill:#5d5d5d; stroke:none;" d="M67 25L68 26L67 25M74 25L75 26L74 25z"/>
<path style="fill:#ababab; stroke:none;" d="M80 25L81 26L80 25z"/>
<path style="fill:#5d5d5d; stroke:none;" d="M93 25L94 26L93 25z"/>
<path style="fill:#ababab; stroke:none;" d="M98 25L99 26L98 25z"/>
<path style="fill:#5d5d5d; stroke:none;" d="M112 25L113 26L112 25z"/>
<path style="fill:#ababab; stroke:none;" d="M123 25L124 26L123 25M136 25L137 26L136 25M39 26L40 27L39 26z"/>
<path style="fill:#5d5d5d; stroke:none;" d="M61 26L62 27L61 26z"/>
<path style="fill:#ababab; stroke:none;" d="M69 26L70 27L69 26z"/>
<path style="fill:#5d5d5d; stroke:none;" d="M73 26L74 27L73 26z"/>
<path style="fill:#ababab; stroke:none;" d="M79 26L80 27L79 26z"/>
<path style="fill:#393939; stroke:none;" d="M94 26L95 27L94 26z"/>
<path style="fill:#ababab; stroke:none;" d="M99 26L100 27L99 26M109 26L110 27L109 26z"/>
<path style="fill:#5d5d5d; stroke:none;" d="M120 26L121 27L120 26M131 26L132 27L131 26z"/>
<path style="fill:#ababab; stroke:none;" d="M44 27L45 28L44 27M62 27L63 28L62 27z"/>
<path style="fill:#5d5d5d; stroke:none;" d="M63 27L64 28L63 27z"/>
<path style="fill:#ababab; stroke:none;" d="M71 27L72 28L71 27z"/>
<path style="fill:#5d5d5d; stroke:none;" d="M72 27L73 28L72 27z"/>
<path style="fill:#ababab; stroke:none;" d="M78 27L79 28L78 27z"/>
<path style="fill:#5d5d5d; stroke:none;" d="M107 27L108 28L107 27z"/>
<path style="fill:#ababab; stroke:none;" d="M118 27L119 28L118 27M130 27L131 28L130 27M135 27L136 28L135 27M40 28L41 29L40 28M64 28L65 29L64 28M77 28L78 29L77 28M95 28L96 29L95 28M104 28L105 29L104 28z"/>
<path style="fill:#5d5d5d; stroke:none;" d="M115 28L116 29L115 28M130 28L131 29L130 28M134 28L135 29L134 28z"/>
<path style="fill:#ababab; stroke:none;" d="M66 29L67 30L66 29M96 29L97 30L96 29z"/>
<path style="fill:#5d5d5d; stroke:none;" d="M101.667 29.3333L102.333 29.6667L101.667 29.3333z"/>
<path style="fill:#393939; stroke:none;" d="M112 29L113 30L112 29z"/>
<path style="fill:#ababab; stroke:none;" d="M113 29L114 30L113 29M129 29L130 30L129 29M134 29L135 30L134 29z"/>
<path style="fill:#393939; stroke:none;" d="M41 30L42 31L41 30z"/>
<path style="fill:#5d5d5d; stroke:none;" d="M45 30L46 31L45 30M68 30L69 31L68 30M97 30L98 31L97 30M110 30L111 31L110 30z"/>
<path style="fill:#393939; stroke:none;" d="M129 30L130 31L129 30z"/>
<path style="fill:#5d5d5d; stroke:none;" d="M133 30L134 31L133 30z"/>
<path style="fill:#ababab; stroke:none;" d="M41 31L42 32L41 31M69 31L70 32L69 31z"/>
<path style="fill:#5d5d5d; stroke:none;" d="M70 31L71 32L70 31z"/>
<path style="fill:#393939; stroke:none;" d="M73 31L74 32L73 31z"/>
<path style="fill:#5d5d5d; stroke:none;" d="M107 31L108 32L107 31z"/>
<path style="fill:#ababab; stroke:none;" d="M108 31L109 32L108 31M128 31L129 32L128 31M133 31L134 32L133 31M46 32L47 33L46 32M71 32L72 33L71 32z"/>
<path style="fill:#393939; stroke:none;" d="M72 32L73 33L72 32z"/>
<path style="fill:#ababab; stroke:none;" d="M105 32L106 33L105 32z"/>
<path style="fill:#5d5d5d; stroke:none;" d="M132 32L133 33L132 32M42 33L43 34L42 33M46 33L47 34L46 33z"/>
<path style="fill:#ababab; stroke:none;" d="M99 33L100 34L99 33z"/>
<path style="fill:#5d5d5d; stroke:none;" d="M102 33L103 34L102 33z"/>
<path style="fill:#ababab; stroke:none;" d="M127 33L128 34L127 33M42 34L43 35L42 34M100 34L101 35L100 34z"/>
<path style="fill:#5d5d5d; stroke:none;" d="M131 34L132 35L131 34z"/>
<path style="fill:#ababab; stroke:none;" d="M47 35L48 36L47 35z"/>
<path style="fill:#5d5d5d; stroke:none;" d="M126 35L127 36L126 35M43 36L44 37L43 36z"/>
<path style="fill:#393939; stroke:none;" d="M47 36L48 37L47 36z"/>
<path style="fill:#ababab; stroke:none;" d="M130 36L131 37L130 36z"/>
<path style="fill:#5d5d5d; stroke:none;" d="M125 37L126 38L125 37z"/>
<path style="fill:#ababab; stroke:none;" d="M48 38L49 39L48 38M129 38L130 39L129 38M44 39L45 40L44 39z"/>
<path style="fill:#5d5d5d; stroke:none;" d="M124 39L125 40L124 39z"/>
<path style="fill:#ababab; stroke:none;" d="M49 40L50 41L49 40M123 40L124 41L123 40M128 40L129 41L128 40z"/>
<path style="fill:#5d5d5d; stroke:none;" d="M45 41L46 42L45 41M49 41L50 42L49 41M123 41L124 42L123 41z"/>
<path style="fill:#393939; stroke:none;" d="M127 41L128 42L127 41z"/>
<path style="fill:#ababab; stroke:none;" d="M45 42L46 43L45 42M122 42L123 43L122 42M127 42L128 43L127 42z"/>
<path style="fill:#5d5d5d; stroke:none;" d="M42 43L43 44L42 43z"/>
<path style="fill:#ababab; stroke:none;" d="M50 43L51 44L50 43z"/>
<path style="fill:#393939; stroke:none;" d="M122 43L123 44L122 43z"/>
<path style="fill:#5d5d5d; stroke:none;" d="M126 43L127 44L126 43z"/>
<path style="fill:#ababab; stroke:none;" d="M38 44L39 45L38 44z"/>
<path style="fill:#5d5d5d; stroke:none;" d="M39 44L40 45L39 44z"/>
<path style="fill:#393939; stroke:none;" d="M50 44L51 45L50 44z"/>
<path style="fill:#ababab; stroke:none;" d="M121 44L122 45L121 44M126 44L127 45L126 44M35 45L36 46L35 45z"/>
<path style="fill:#5d5d5d; stroke:none;" d="M36 45L37 46L36 45M49 45L50 46L49 45z"/>
<path style="fill:#ababab; stroke:none;" d="M50 45L51 46L50 45z"/>
<path style="fill:#5d5d5d; stroke:none;" d="M125 45L126 46L125 45z"/>
<path style="fill:#ababab; stroke:none;" d="M32 46L33 47L32 46z"/>
<path style="fill:#393939; stroke:none;" d="M45 46L46 47L45 46z"/>
<path style="fill:#ababab; stroke:none;" d="M46 46L47 47L46 46M120 46L121 47L120 46M28 47L29 48L28 47z"/>
<path style="fill:#5d5d5d; stroke:none;" d="M29 47L30 48L29 47M42 47L43 48L42 47z"/>
<path style="fill:#ababab; stroke:none;" d="M43 47L44 48L43 47z"/>
<path style="fill:#5d5d5d; stroke:none;" d="M126 47L127 48L126 47z"/>
<path style="fill:#ababab; stroke:none;" d="M127 47L128 48L127 47M25 48L26 49L25 48z"/>
<path style="fill:#5d5d5d; stroke:none;" d="M26 48L27 49L26 48M39 48L40 49L39 48z"/>
<path style="fill:#ababab; stroke:none;" d="M40 48L41 49L40 48M119.333 48.6667L119.667 49.3333L119.333 48.6667z"/>
<path style="fill:#5d5d5d; stroke:none;" d="M129 48L130 49L129 48z"/>
<path style="fill:#ababab; stroke:none;" d="M130 48L131 49L130 48M22.3333 49.6667L22.6667 50.3333L22.3333 49.6667z"/>
<path style="fill:#393939; stroke:none;" d="M23 49L24 50L23 49z"/>
<path style="fill:#ababab; stroke:none;" d="M36 49L37 50L36 49z"/>
<path style="fill:#5d5d5d; stroke:none;" d="M120 49L121 50L120 49M132 49L133 50L132 49z"/>
<path style="fill:#ababab; stroke:none;" d="M133 49L134 50L133 49z"/>
<path style="fill:#393939; stroke:none;" d="M32 50L33 51L32 50z"/>
<path style="fill:#ababab; stroke:none;" d="M33 50L34 51L33 50M122 50L123 51L122 50z"/>
<path style="fill:#5d5d5d; stroke:none;" d="M123 50L124 51L123 50M135 50L136 51L135 50z"/>
<path style="fill:#ababab; stroke:none;" d="M136 50L137 51L136 50M23 51L24 52L23 51z"/>
<path style="fill:#5d5d5d; stroke:none;" d="M29 51L31 53L29 51z"/>
<path style="fill:#ababab; stroke:none;" d="M30 51L31 52L30 51M125 51L126 52L125 51z"/>
<path style="fill:#5d5d5d; stroke:none;" d="M126 51L127 52L126 51M138 51L139 52L138 51z"/>
<path style="fill:#ababab; stroke:none;" d="M139 51L140 52L139 51M24 52L25 53L24 52M128 52L129 53L128 52z"/>
<path style="fill:#5d5d5d; stroke:none;" d="M129 52L130 53L129 52M141 52L142 53L141 52z"/>
<path style="fill:#ababab; stroke:none;" d="M142 52L143 53L142 52M25 53L26 54L25 53z"/>
<path style="fill:#5d5d5d; stroke:none;" d="M31 53L32 54L31 53z"/>
<path style="fill:#ababab; stroke:none;" d="M131 53L132 54L131 53z"/>
<path style="fill:#5d5d5d; stroke:none;" d="M132 53L133 54L132 53M144 53L145 54L144 53z"/>
<path style="fill:#ababab; stroke:none;" d="M145 53L146 54L145 53M26 54L27 55L26 54z"/>
<path style="fill:#5d5d5d; stroke:none;" d="M32 54L33 55L32 54z"/>
<path style="fill:#ababab; stroke:none;" d="M134.667 54.3333L135.333 54.6667L134.667 54.3333z"/>
<path style="fill:#5d5d5d; stroke:none;" d="M136 54L137 55L136 54M147 54L148 55L147 54z"/>
<path style="fill:#ababab; stroke:none;" d="M148 54L149 55L148 54M27 55L28 56L27 55z"/>
<path style="fill:#393939; stroke:none;" d="M33 55L34 56L33 55z"/>
<path style="fill:#ababab; stroke:none;" d="M138 55L139 56L138 55z"/>
<path style="fill:#5d5d5d; stroke:none;" d="M139 55L140 56L139 55M150 55L151 56L150 55z"/>
<path style="fill:#ababab; stroke:none;" d="M151 55L152 56L151 55z"/>
<path style="fill:#393939; stroke:none;" d="M34 56L35 57L34 56z"/>
<path style="fill:#ababab; stroke:none;" d="M141 56L142 57L141 56z"/>
<path style="fill:#5d5d5d; stroke:none;" d="M142 56L143 57L142 56M153 56L154 57L153 56z"/>
<path style="fill:#ababab; stroke:none;" d="M154 56L155 57L154 56M144.333 57.6667L144.667 58.3333L144.333 57.6667z"/>
<path style="fill:#5d5d5d; stroke:none;" d="M145 57L146 58L145 57M156 57L157 58L156 57z"/>
<path style="fill:#393939; stroke:none;" d="M31 58L32 59L31 58z"/>
<path style="fill:#ababab; stroke:none;" d="M154 58L155 59L154 58z"/>
<path style="fill:#393939; stroke:none;" d="M32 59L33 60L32 59z"/>
<path style="fill:#ababab; stroke:none;" d="M38 59L39 60L38 59M142 59L143 60L142 59M152 59L153 60L152 59z"/>
<path style="fill:#5d5d5d; stroke:none;" d="M33 60L34 61L33 60z"/>
<path style="fill:#ababab; stroke:none;" d="M39 60L40 61L39 60M140 60L141 61L140 60M150 60L151 61L150 60z"/>
<path style="fill:#5d5d5d; stroke:none;" d="M34 61L35 62L34 61z"/>
<path style="fill:#ababab; stroke:none;" d="M40 61L41 62L40 61z"/>
<path style="fill:#5d5d5d; stroke:none;" d="M138 61L139 62L138 61M147 61L148 62L147 61z"/>
<path style="fill:#ababab; stroke:none;" d="M148 61L149 62L148 61z"/>
<path style="fill:#5d5d5d; stroke:none;" d="M35 62L36 63L35 62z"/>
<path style="fill:#ababab; stroke:none;" d="M41 62L42 63L41 62z"/>
<path style="fill:#5d5d5d; stroke:none;" d="M136 62L137 63L136 62M145 62L146 63L145 62z"/>
<path style="fill:#ababab; stroke:none;" d="M36 63L37 64L36 63M42 63L43 64L42 63z"/>
<path style="fill:#5d5d5d; stroke:none;" d="M134 63L135 64L134 63M143 63L144 64L143 63z"/>
<path style="fill:#ababab; stroke:none;" d="M37 64L38 65L37 64z"/>
<path style="fill:#5d5d5d; stroke:none;" d="M43 64L44 65L43 64z"/>
<path style="fill:#ababab; stroke:none;" d="M131 64L132 65L131 64M141 64L142 65L141 64M44 65L45 66L44 65M129 65L130 66L129 65M139 65L140 66L139 65M36 66L37 67L36 66M127 66L128 67L127 66M137 66L138 67L137 66M35 67L36 68L35 67z"/>
<path style="fill:#393939; stroke:none;" d="M41 67L42 68L41 67z"/>
<path style="fill:#5d5d5d; stroke:none;" d="M125 67L126 68L125 67M134 67L135 68L134 67z"/>
<path style="fill:#ababab; stroke:none;" d="M135 67L136 68L135 67z"/>
<path style="fill:#5d5d5d; stroke:none;" d="M34 68L35 69L34 68M40 68L41 69L40 68M123 68L124 69L123 68M132 68L133 69L132 68M33 69L34 70L33 69z"/>
<path style="fill:#ababab; stroke:none;" d="M39 69L40 70L39 69M122 69L123 70L122 69z"/>
<path style="fill:#5d5d5d; stroke:none;" d="M130 69L131 70L130 69z"/>
<path style="fill:#ababab; stroke:none;" d="M38 70L39 71L38 70M128 70L129 71L128 70M30 71L31 72L30 71M37 71L38 72L37 71z"/>
<path style="fill:#5d5d5d; stroke:none;" d="M123 71L124 72L123 71z"/>
<path style="fill:#ababab; stroke:none;" d="M29 72L30 73L29 72z"/>
<path style="fill:#393939; stroke:none;" d="M35 72L36 73L35 72z"/>
<path style="fill:#ababab; stroke:none;" d="M128 72L129 73L128 72M28 73L29 74L28 73z"/>
<path style="fill:#5d5d5d; stroke:none;" d="M34 73L35 74L34 73M124 73L125 74L124 73M27 74L28 75L27 74M33 74L34 75L33 74z"/>
<path style="fill:#ababab; stroke:none;" d="M129 74L130 75L129 74z"/>
<path style="fill:#393939; stroke:none;" d="M26 75L27 76L26 75z"/>
<path style="fill:#ababab; stroke:none;" d="M32 75L33 76L32 75z"/>
<path style="fill:#5d5d5d; stroke:none;" d="M125 75L126 76L125 75z"/>
<path style="fill:#ababab; stroke:none;" d="M31 76L32 77L31 76M23 77L24 78L23 77z"/>
<path style="fill:#5d5d5d; stroke:none;" d="M126 77L127 78L126 77M130 77L131 78L130 77z"/>
<path style="fill:#ababab; stroke:none;" d="M22 78L23 79L22 78z"/>
<path style="fill:#393939; stroke:none;" d="M28 78L29 79L28 78z"/>
<path style="fill:#5d5d5d; stroke:none;" d="M21 79L22 80L21 79M27 79L28 80L27 79M131 79L132 80L131 79z"/>
<path style="fill:#393939; stroke:none;" d="M20 80L21 81L20 80z"/>
<path style="fill:#ababab; stroke:none;" d="M26 80L27 81L26 80M127 80L128 81L127 80M25 81L26 82L25 81z"/>
<path style="fill:#5d5d5d; stroke:none;" d="M132 81L133 82L132 81z"/>
<path style="fill:#ababab; stroke:none;" d="M17 82L18 83L17 82M128 82L129 83L128 82M16 83L17 84L16 83z"/>
<path style="fill:#393939; stroke:none;" d="M22 83L23 84L22 83z"/>
<path style="fill:#ababab; stroke:none;" d="M42 83L42 84L50 84L42 83z"/>
<path style="fill:#5d5d5d; stroke:none;" d="M50 83L50 84L54 84L50 83z"/>
<path style="fill:#393939; stroke:none;" d="M54.6667 83.3333L55.3333 83.6667L54.6667 83.3333z"/>
<path style="fill:#ababab; stroke:none;" d="M56 83L57 84L56 83z"/>
<path style="fill:#5d5d5d; stroke:none;" d="M133 83L134 84L133 83M15 84L16 85L15 84M21 84L22 85L21 84z"/>
<path style="fill:#ababab; stroke:none;" d="M22 84L22 85L25 85L22 84z"/>
<path style="fill:#5d5d5d; stroke:none;" d="M25 84L25 85L30 85L25 84z"/>
<path style="fill:#393939; stroke:none;" d="M30.6667 84.3333L31.3333 84.6667L30.6667 84.3333z"/>
<path style="fill:#ababab; stroke:none;" d="M129 84L130 85L129 84z"/>
<path style="fill:#5d5d5d; stroke:none;" d="M14 85L15 86L14 85z"/>
<path style="fill:#ababab; stroke:none;" d="M134 85L135 86L134 85z"/>
<path style="fill:#393939; stroke:none;" d="M13 86L14 87L13 86M55 86L56 87L55 86z"/>
<path style="fill:#5d5d5d; stroke:none;" d="M107 86L107 87L115 87L107 86z"/>
<path style="fill:#393939; stroke:none;" d="M115 86L115 87L121 87L115 86M43.6667 87.3333L44.3333 87.6667L43.6667 87.3333z"/>
<path style="fill:#5d5d5d; stroke:none;" d="M45 87L45 88L50 88L45 87z"/>
<path style="fill:#ababab; stroke:none;" d="M50.6667 87.3333L51.3333 87.6667L50.6667 87.3333z"/>
<path style="fill:#5d5d5d; stroke:none;" d="M55 87L56 88L55 87z"/>
<path style="fill:#ababab; stroke:none;" d="M135 87L136 88L135 87M10 88L11 89L10 88z"/>
<path style="fill:#393939; stroke:none;" d="M18 88L18 89L21 89L18 88z"/>
<path style="fill:#5d5d5d; stroke:none;" d="M21 88L21 89L25 89L21 88z"/>
<path style="fill:#ababab; stroke:none;" d="M25 88L25 89L33 89L25 88z"/>
<path style="fill:#5d5d5d; stroke:none;" d="M51.3333 88.6667L51.6667 89.3333L51.3333 88.6667z"/>
<path style="fill:#ababab; stroke:none;" d="M55 88L55 91L56 91L55 88M106 89L107 90L106 89M136 89L137 90L136 89z"/>
<path style="fill:#5d5d5d; stroke:none;" d="M106.333 90.6667L106.667 91.3333L106.333 90.6667M110 90L111 91L110 90z"/>
<path style="fill:#ababab; stroke:none;" d="M111 90L111 91L121 91L111 90M110 91L111 92L110 91z"/>
<path style="fill:#5d5d5d; stroke:none;" d="M80 92L81 93L80 92z"/>
<path style="fill:#ababab; stroke:none;" d="M50.3333 93.6667L50.6667 94.3333L50.3333 93.6667z"/>
<path style="fill:#393939; stroke:none;" d="M54 93L55 94L54 93z"/>
<path style="fill:#ababab; stroke:none;" d="M78 93L79 94L78 93M82 93L83 94L82 93M105.333 93.6667L105.667 94.3333L105.333 93.6667z"/>
<path style="fill:#5d5d5d; stroke:none;" d="M54 94L55 95L54 94M77 94L78 95L77 94z"/>
<path style="fill:#ababab; stroke:none;" d="M83 94L84 95L83 94z"/>
<path style="fill:#5d5d5d; stroke:none;" d="M109 94L110 95L109 94M50.3333 95.6667L50.6667 96.3333L50.3333 95.6667z"/>
<path style="fill:#ababab; stroke:none;" d="M54 95L54 98L55 98L54 95M75 95L76 96L75 95z"/>
<path style="fill:#5d5d5d; stroke:none;" d="M84 95L85 96L84 95M105 95L106 96L105 95z"/>
<path style="fill:#ababab; stroke:none;" d="M109.333 95.6667L109.667 96.3333L109.333 95.6667z"/>
<path style="fill:#393939; stroke:none;" d="M74 96L75 97L74 96M85 96L86 97L85 96M105 96L106 97L105 96z"/>
<path style="fill:#5d5d5d; stroke:none;" d="M72 97L73 98L72 97z"/>
<path style="fill:#ababab; stroke:none;" d="M80 97L81 98L80 97M87 97L88 98L87 97M70 98L71 99L70 98M78 98L79 99L78 98M88 98L89 99L88 98M104.333 98.6667L104.667 99.3333L104.333 98.6667z"/>
<path style="fill:#5d5d5d; stroke:none;" d="M69 99L70 100L69 99M76 99L77 100L76 99z"/>
<path style="fill:#393939; stroke:none;" d="M83 99L84 100L83 99z"/>
<path style="fill:#5d5d5d; stroke:none;" d="M89 99L90 100L89 99M108 99L109 100L108 99z"/>
<path style="fill:#ababab; stroke:none;" d="M49.3333 100.667L49.6667 101.333L49.3333 100.667z"/>
<path style="fill:#393939; stroke:none;" d="M53 100L54 101L53 100z"/>
<path style="fill:#ababab; stroke:none;" d="M67 100L68 101L67 100M75 100L76 101L75 100z"/>
<path style="fill:#5d5d5d; stroke:none;" d="M84 100L85 101L84 100M90 100L91 101L90 100M104 100L105 101L104 100z"/>
<path style="fill:#ababab; stroke:none;" d="M108.333 100.667L108.667 101.333L108.333 100.667z"/>
<path style="fill:#5d5d5d; stroke:none;" d="M53 101L54 102L53 101M66 101L67 102L66 101M73 101L74 102L73 101z"/>
<path style="fill:#ababab; stroke:none;" d="M85 101L86 102L85 101z"/>
<path style="fill:#393939; stroke:none;" d="M91 101L92 102L91 101z"/>
<path style="fill:#5d5d5d; stroke:none;" d="M49.3333 102.667L49.6667 103.333L49.3333 102.667z"/>
<path style="fill:#ababab; stroke:none;" d="M53 102L53 105L54 105L53 102M64 102L65 103L64 102M72 102L73 103L72 102M86 102L87 103L86 102M93 102L94 103L93 102M70 103L71 104L70 103z"/>
<path style="fill:#393939; stroke:none;" d="M88 103L89 104L88 103z"/>
<path style="fill:#ababab; stroke:none;" d="M94 103L95 104L94 103M103.333 103.667L103.667 104.333L103.333 103.667z"/>
<path style="fill:#5d5d5d; stroke:none;" d="M61 104L62 105L61 104z"/>
<path style="fill:#393939; stroke:none;" d="M68 104L69 105L68 104z"/>
<path style="fill:#5d5d5d; stroke:none;" d="M89 104L90 105L89 104M95 104L96 105L95 104M107 104L108 105L107 104z"/>
<path style="fill:#ababab; stroke:none;" d="M59 105L60 106L59 105M67 105L68 106L67 105M90 105L91 106L90 105z"/>
<path style="fill:#393939; stroke:none;" d="M96 105L97 106L96 105z"/>
<path style="fill:#5d5d5d; stroke:none;" d="M103 105L104 106L103 105z"/>
<path style="fill:#ababab; stroke:none;" d="M107.333 105.667L107.667 106.333L107.333 105.667z"/>
<path style="fill:#5d5d5d; stroke:none;" d="M58 106L59 107L58 106M65 106L66 107L65 106z"/>
<path style="fill:#ababab; stroke:none;" d="M91 106L92 107L91 106M98 106L99 107L98 106M48.3333 107.667L48.6667 108.333L48.3333 107.667z"/>
<path style="fill:#393939; stroke:none;" d="M52 107L53 108L52 107z"/>
<path style="fill:#ababab; stroke:none;" d="M56 107L57 108L56 107M64 107L65 108L64 107M99 107L100 108L99 107z"/>
<path style="fill:#5d5d5d; stroke:none;" d="M52 108L54 110L52 108z"/>
<path style="fill:#393939; stroke:none;" d="M55 108L56 109L55 108z"/>
<path style="fill:#5d5d5d; stroke:none;" d="M62 108L63 109L62 108z"/>
<path style="fill:#393939; stroke:none;" d="M94 108L95 109L94 108z"/>
<path style="fill:#5d5d5d; stroke:none;" d="M100 108L101 109L100 108z"/>
<path style="fill:#ababab; stroke:none;" d="M102 108L103 109L102 108z"/>
<path style="fill:#393939; stroke:none;" d="M106 108L107 109L106 108z"/>
<path style="fill:#5d5d5d; stroke:none;" d="M48.3333 109.667L48.6667 110.333L48.3333 109.667z"/>
<path style="fill:#ababab; stroke:none;" d="M52 109L53 110L52 109z"/>
<path style="fill:#5d5d5d; stroke:none;" d="M95 109L96 110L95 109M101.667 109.333L102.333 109.667L101.667 109.333M106 109L107 110L106 109z"/>
<path style="fill:#ababab; stroke:none;" d="M59 110L60 111L59 110M96 110L97 111L96 110M106 110L107 111L106 110z"/>
<path style="fill:#5d5d5d; stroke:none;" d="M57 111L58 112L57 111z"/>
<path style="fill:#ababab; stroke:none;" d="M97 111L98 112L97 111M56 112L57 113L56 112z"/>
<path style="fill:#393939; stroke:none;" d="M99 112L100 113L99 112z"/>
<path style="fill:#5d5d5d; stroke:none;" d="M54 113L55 114L54 113M100 113L101 114L100 113M105.333 113.667L105.667 114.333L105.333 113.667z"/>
<path style="fill:#ababab; stroke:none;" d="M47.3333 114.667L47.6667 115.333L47.3333 114.667M53 114L54 115L53 114M101 114L102 115L101 114M51 115L52 116L51 115M102 115L103 116L102 115M105 115L106 116L105 115z"/>
<path style="fill:#5d5d5d; stroke:none;" d="M47.3333 116.667L47.6667 117.333L47.3333 116.667z"/>
<path style="fill:#393939; stroke:none;" d="M49 116L50 117L49 116z"/>
<path style="fill:#ababab; stroke:none;" d="M48 117L49 118L48 117z"/>
</svg>
