<?xml version="1.0" standalone="yes"?>
<svg xmlns="http://www.w3.org/2000/svg" width="113" height="104">
<path style="fill:#ffffff; stroke:none;" d="M0 0L0 104L113 104L113 0L0 0z"/>
<path style="fill:#cad4e3; stroke:none;" d="M45.6667 15.3333L46.3333 15.6667L45.6667 15.3333z"/>
<path style="fill:#a5b6cf; stroke:none;" d="M47 15L48 16L47 15z"/>
<path style="fill:#8ba1c2; stroke:none;" d="M48 15L48 16L51 16L48 15z"/>
<path style="fill:#6d89b1; stroke:none;" d="M51 15.4398C36.2124 17.0905 22.9951 24.4914 17.4676 39C8.5993 62.2776 29.7444 87.5124 54 85.6752C69.4022 84.5085 83.7338 76.2247 88.8958 61C96.8369 37.5789 75.2341 12.7347 51 15.4398z"/>
<path style="fill:#8ba1c2; stroke:none;" d="M56 15L57 16L56 15z"/>
<path style="fill:#a5b6cf; stroke:none;" d="M57.6667 15.3333L58.3333 15.6667L57.6667 15.3333z"/>
<path style="fill:#cad4e3; stroke:none;" d="M59.6667 15.3333L60.3333 15.6667L59.6667 15.3333M41 16L42 17L41 16z"/>
<path style="fill:#a5b6cf; stroke:none;" d="M42 16L43 17L42 16z"/>
<path style="fill:#8ba1c2; stroke:none;" d="M43 16L44 17L43 16M62 16L63 17L62 16z"/>
<path style="fill:#a5b6cf; stroke:none;" d="M63 16L64 17L63 16z"/>
<path style="fill:#cad4e3; stroke:none;" d="M64 16L65 17L64 16M38 17L39 18L38 17z"/>
<path style="fill:#a5b6cf; stroke:none;" d="M39 17L40 18L39 17M66 17L67 18L66 17z"/>
<path style="fill:#cad4e3; stroke:none;" d="M67 17L68 18L67 17M36 18L37 19L36 18z"/>
<path style="fill:#8ba1c2; stroke:none;" d="M37 18L38 19L37 18z"/>
<path style="fill:#cad4e3; stroke:none;" d="M69 18L70 19L69 18M34 19L35 20L34 19z"/>
<path style="fill:#8ba1c2; stroke:none;" d="M35 19L36 20L35 19z"/>
<path style="fill:#cad4e3; stroke:none;" d="M71 19L72 20L71 19M32 20L33 21L32 20z"/>
<path style="fill:#8ba1c2; stroke:none;" d="M33 20L34 21L33 20z"/>
<path style="fill:#cad4e3; stroke:none;" d="M73 20L74 21L73 20z"/>
<path style="fill:#8ba1c2; stroke:none;" d="M31 21L32 22L31 21M74 21L75 22L74 21z"/>
<path style="fill:#cad4e3; stroke:none;" d="M29 22L30 23L29 22M76 22L77 23L76 22z"/>
<path style="fill:#a5b6cf; stroke:none;" d="M28 23L29 24L28 23M77 23L78 24L77 23z"/>
<path style="fill:#8ba1c2; stroke:none;" d="M27 24L28 25L27 24M78 24L79 25L78 24M26 25L27 26L26 25M79 25L80 26L79 25M25 26L26 27L25 26M80 26L81 27L80 26M24 27L25 28L24 27M81 27L82 28L81 27M23 28L24 29L23 28M82 28L83 29L82 28z"/>
<path style="fill:#a5b6cf; stroke:none;" d="M22 29L23 30L22 29M83 29L84 30L83 29z"/>
<path style="fill:#cad4e3; stroke:none;" d="M21 30L22 31L21 30M84 30L85 31L84 30z"/>
<path style="fill:#a5b6cf; stroke:none;" d="M20 32L21 33L20 32z"/>
<path style="fill:#8ba1c2; stroke:none;" d="M80 32L81 33L80 32z"/>
<path style="fill:#a5b6cf; stroke:none;" d="M81 32L82 45L83 45L81 32z"/>
<path style="fill:#8ba1c2; stroke:none;" d="M85 32L86 33L85 32z"/>
<path style="fill:#cad4e3; stroke:none;" d="M19 33L20 34L19 33z"/>
<path style="fill:#8ba1c2; stroke:none;" d="M21 33L21 34L24 35L21 33z"/>
<path style="fill:#a5b6cf; stroke:none;" d="M79 33L80 34L79 33z"/>
<path style="fill:#cad4e3; stroke:none;" d="M80 33L81 34L80 33z"/>
<path style="fill:#ffffff; stroke:none;" d="M81 33L54 51L82 66L81 33z"/>
<path style="fill:#cad4e3; stroke:none;" d="M86 33L87 34L86 33z"/>
<path style="fill:#8ba1c2; stroke:none;" d="M19 34L20 35L19 34z"/>
<path style="fill:#cad4e3; stroke:none;" d="M21 34L21 50L22 50L22 35L25 36L21 34z"/>
<path style="fill:#8ba1c2; stroke:none;" d="M77 34L78 35L77 34z"/>
<path style="fill:#cad4e3; stroke:none;" d="M78 34L79 35L78 34z"/>
<path style="fill:#8ba1c2; stroke:none;" d="M86 34L87 35L86 34z"/>
<path style="fill:#cad4e3; stroke:none;" d="M18 35L19 36L18 35z"/>
<path style="fill:#ffffff; stroke:none;" d="M22 35L22 67L51 50L22 35z"/>
<path style="fill:#a5b6cf; stroke:none;" d="M25 35L26 36L25 35z"/>
<path style="fill:#8ba1c2; stroke:none;" d="M75 35L76 36L75 35z"/>
<path style="fill:#cad4e3; stroke:none;" d="M76 35L77 36L76 35M87 35L88 36L87 35z"/>
<path style="fill:#8ba1c2; stroke:none;" d="M18 36L19 37L18 36z"/>
<path style="fill:#cad4e3; stroke:none;" d="M26 36L28 38L26 36z"/>
<path style="fill:#8ba1c2; stroke:none;" d="M27 36L28 37L27 36z"/>
<path style="fill:#a5b6cf; stroke:none;" d="M74 36L75 37L74 36z"/>
<path style="fill:#cad4e3; stroke:none;" d="M75 36L76 37L75 36z"/>
<path style="fill:#8ba1c2; stroke:none;" d="M87 36L88 37L87 36z"/>
<path style="fill:#cad4e3; stroke:none;" d="M17 37L18 38L17 37z"/>
<path style="fill:#a5b6cf; stroke:none;" d="M28 37L29 38L28 37z"/>
<path style="fill:#8ba1c2; stroke:none;" d="M29 37L30 38L29 37M72 37L73 38L72 37z"/>
<path style="fill:#cad4e3; stroke:none;" d="M73 37L74 38L73 37M88 37L89 38L88 37z"/>
<path style="fill:#a5b6cf; stroke:none;" d="M17 38L18 39L17 38z"/>
<path style="fill:#cad4e3; stroke:none;" d="M29 38L30 39L29 38z"/>
<path style="fill:#a5b6cf; stroke:none;" d="M30 38L31 39L30 38z"/>
<path style="fill:#8ba1c2; stroke:none;" d="M31 38L32 39L31 38M70 38L71 39L70 38z"/>
<path style="fill:#a5b6cf; stroke:none;" d="M71 38L72 39L71 38z"/>
<path style="fill:#cad4e3; stroke:none;" d="M72 38L73 39L72 38z"/>
<path style="fill:#8ba1c2; stroke:none;" d="M88 38L89 39L88 38z"/>
<path style="fill:#cad4e3; stroke:none;" d="M31 39L32 40L31 39z"/>
<path style="fill:#a5b6cf; stroke:none;" d="M32 39L33 40L32 39z"/>
<path style="fill:#8ba1c2; stroke:none;" d="M33 39L34 40L33 39z"/>
<path style="fill:#a5b6cf; stroke:none;" d="M69 39L70 40L69 39z"/>
<path style="fill:#cad4e3; stroke:none;" d="M70 39L71 40L70 39M16 40L17 41L16 40M33 40L34 41L33 40z"/>
<path style="fill:#a5b6cf; stroke:none;" d="M34 40L35 41L34 40z"/>
<path style="fill:#8ba1c2; stroke:none;" d="M35 40L36 41L35 40M67 40L68 41L67 40z"/>
<path style="fill:#cad4e3; stroke:none;" d="M68.6667 40.3333L69.3333 40.6667L68.6667 40.3333M89 40L90 41L89 40z"/>
<path style="fill:#a5b6cf; stroke:none;" d="M16 41L17 42L16 41z"/>
<path style="fill:#cad4e3; stroke:none;" d="M35 41L36 42L35 41z"/>
<path style="fill:#a5b6cf; stroke:none;" d="M36 41L37 42L36 41z"/>
<path style="fill:#8ba1c2; stroke:none;" d="M65 41L66 42L65 41z"/>
<path style="fill:#a5b6cf; stroke:none;" d="M66 41L67 42L66 41z"/>
<path style="fill:#cad4e3; stroke:none;" d="M67 41L68 42L67 41z"/>
<path style="fill:#8ba1c2; stroke:none;" d="M89 41L90 42L89 41z"/>
<path style="fill:#cad4e3; stroke:none;" d="M37 42L38 43L37 42z"/>
<path style="fill:#a5b6cf; stroke:none;" d="M38 42L39 43L38 42M64 42L65 43L64 42z"/>
<path style="fill:#cad4e3; stroke:none;" d="M65 42L66 43L65 42M15.3333 43.6667L15.6667 44.3333L15.3333 43.6667M39 43L40 44L39 43z"/>
<path style="fill:#a5b6cf; stroke:none;" d="M40 43L41 44L40 43z"/>
<path style="fill:#8ba1c2; stroke:none;" d="M62 43L63 44L62 43z"/>
<path style="fill:#cad4e3; stroke:none;" d="M63.6667 43.3333L64.3333 43.6667L63.6667 43.3333M41 44L41 45L45 47L45 46L41 44z"/>
<path style="fill:#8ba1c2; stroke:none;" d="M42 44L43 45L42 44M60 44L61 45L60 44z"/>
<path style="fill:#a5b6cf; stroke:none;" d="M61 44L62 45L61 44z"/>
<path style="fill:#cad4e3; stroke:none;" d="M62 44L63 45L62 44M90 44L91 45L90 44z"/>
<path style="fill:#a5b6cf; stroke:none;" d="M15.3333 45.6667L15.6667 46.3333L15.3333 45.6667z"/>
<path style="fill:#8ba1c2; stroke:none;" d="M44 45L45 46L44 45z"/>
<path style="fill:#a5b6cf; stroke:none;" d="M59 45L58 47L59 45z"/>
<path style="fill:#cad4e3; stroke:none;" d="M60 45L61 46L60 45M82 45L81 67C84.9019 63.5904 83.9247 49.5869 82 45z"/>
<path style="fill:#a5b6cf; stroke:none;" d="M90 45L91 46L90 45M45 46L46 47L45 46z"/>
<path style="fill:#8ba1c2; stroke:none;" d="M46 46L47 47L46 46M57 46L58 47L57 46z"/>
<path style="fill:#cad4e3; stroke:none;" d="M59 46L60 47L59 46z"/>
<path style="fill:#8ba1c2; stroke:none;" d="M90 46L90 49L91 49L90 46M15 47L16 48L15 47z"/>
<path style="fill:#cad4e3; stroke:none;" d="M46 47L47 48L46 47z"/>
<path style="fill:#a5b6cf; stroke:none;" d="M47 47L48 48L47 47z"/>
<path style="fill:#8ba1c2; stroke:none;" d="M48 47L49 48L48 47z"/>
<path style="fill:#a5b6cf; stroke:none;" d="M56 47L57 48L56 47z"/>
<path style="fill:#cad4e3; stroke:none;" d="M57 47L58 48L57 47M48 48L49 49L48 48z"/>
<path style="fill:#a5b6cf; stroke:none;" d="M49 48L50 49L49 48z"/>
<path style="fill:#8ba1c2; stroke:none;" d="M50 48L51 49L50 48M54 48L55 49L54 48z"/>
<path style="fill:#a5b6cf; stroke:none;" d="M55 48L56 49L55 48z"/>
<path style="fill:#cad4e3; stroke:none;" d="M50 49L51 50L50 49z"/>
<path style="fill:#a5b6cf; stroke:none;" d="M50 52L54 50L50 52z"/>
<path style="fill:#8ba1c2; stroke:none;" d="M52 49L53 50L52 49z"/>
<path style="fill:#cad4e3; stroke:none;" d="M54 49L55 50L54 49z"/>
<path style="fill:#a5b6cf; stroke:none;" d="M21 50L21 64L22 64L21 50z"/>
<path style="fill:#cad4e3; stroke:none;" d="M53 50L54 51L53 50M49 51L50 52L49 51z"/>
<path style="fill:#8ba1c2; stroke:none;" d="M51 51L52 52L51 51M53 51L54 52L53 51z"/>
<path style="fill:#a5b6cf; stroke:none;" d="M54 51L55 52L54 51z"/>
<path style="fill:#cad4e3; stroke:none;" d="M55 51L55 52L59 54L59 53L55 51z"/>
<path style="fill:#8ba1c2; stroke:none;" d="M15 52L15 55L16 55L15 52z"/>
<path style="fill:#cad4e3; stroke:none;" d="M47 52L48 53L47 52z"/>
<path style="fill:#a5b6cf; stroke:none;" d="M48 52L49 53L48 52z"/>
<path style="fill:#8ba1c2; stroke:none;" d="M49 52L50 53L49 52M55 52L56 53L55 52z"/>
<path style="fill:#a5b6cf; stroke:none;" d="M46 53L47 54L46 53z"/>
<path style="fill:#8ba1c2; stroke:none;" d="M47 53L48 54L47 53M57 53L58 54L57 53M90 53L91 54L90 53z"/>
<path style="fill:#cad4e3; stroke:none;" d="M44 54L45 55L44 54z"/>
<path style="fill:#a5b6cf; stroke:none;" d="M45 54L46 55L45 54z"/>
<path style="fill:#8ba1c2; stroke:none;" d="M58 54L59 55L58 54z"/>
<path style="fill:#a5b6cf; stroke:none;" d="M59 54L60 55L59 54z"/>
<path style="fill:#cad4e3; stroke:none;" d="M60 54L61 55L60 54z"/>
<path style="fill:#a5b6cf; stroke:none;" d="M90.3333 54.6667L90.6667 55.3333L90.3333 54.6667M15 55L16 56L15 55z"/>
<path style="fill:#cad4e3; stroke:none;" d="M42 55L41 57L42 55z"/>
<path style="fill:#a5b6cf; stroke:none;" d="M43 55L44 56L43 55z"/>
<path style="fill:#8ba1c2; stroke:none;" d="M44 55L45 56L44 55M60 55L61 56L60 55z"/>
<path style="fill:#a5b6cf; stroke:none;" d="M61 55L62 56L61 55z"/>
<path style="fill:#cad4e3; stroke:none;" d="M62 55L62 56L66 58L66 57L62 55M15 56L16 57L15 56z"/>
<path style="fill:#8ba1c2; stroke:none;" d="M42 56L43 57L42 56M62 56L63 57L62 56z"/>
<path style="fill:#cad4e3; stroke:none;" d="M90.3333 56.6667L90.6667 57.3333L90.3333 56.6667M39 57L40 58L39 57z"/>
<path style="fill:#a5b6cf; stroke:none;" d="M40 57L41 58L40 57z"/>
<path style="fill:#8ba1c2; stroke:none;" d="M41 57L42 58L41 57M64 57L65 58L64 57z"/>
<path style="fill:#cad4e3; stroke:none;" d="M37 58L34 60L34 61L38 59L37 58z"/>
<path style="fill:#a5b6cf; stroke:none;" d="M38 58L39 59L38 58z"/>
<path style="fill:#8ba1c2; stroke:none;" d="M39 58L40 59L39 58z"/>
<path style="fill:#a5b6cf; stroke:none;" d="M66 58L67 59L66 58z"/>
<path style="fill:#cad4e3; stroke:none;" d="M67 58L68 59L67 58z"/>
<path style="fill:#8ba1c2; stroke:none;" d="M16 59L17 60L16 59M37 59L38 60L37 59M67 59L68 60L67 59z"/>
<path style="fill:#a5b6cf; stroke:none;" d="M68 59L69 60L68 59z"/>
<path style="fill:#cad4e3; stroke:none;" d="M69 59L69 60L73 62L73 61L69 59z"/>
<path style="fill:#a5b6cf; stroke:none;" d="M89 59L90 60L89 59z"/>
<path style="fill:#cad4e3; stroke:none;" d="M16 60L17 61L16 60z"/>
<path style="fill:#a5b6cf; stroke:none;" d="M35 60L36 61L35 60z"/>
<path style="fill:#8ba1c2; stroke:none;" d="M69 60L70 61L69 60z"/>
<path style="fill:#cad4e3; stroke:none;" d="M89 60L90 61L89 60M32 61L29 63L29 64L33 62L32 61z"/>
<path style="fill:#a5b6cf; stroke:none;" d="M33 61L34 62L33 61M71 61L72 62L71 61z"/>
<path style="fill:#8ba1c2; stroke:none;" d="M17 62L18 63L17 62M32 62L33 63L32 62z"/>
<path style="fill:#a5b6cf; stroke:none;" d="M73 62L74 63L73 62z"/>
<path style="fill:#cad4e3; stroke:none;" d="M74 62L75 63L74 62z"/>
<path style="fill:#a5b6cf; stroke:none;" d="M88 62L89 63L88 62z"/>
<path style="fill:#cad4e3; stroke:none;" d="M17 63L18 64L17 63z"/>
<path style="fill:#8ba1c2; stroke:none;" d="M30 63L31 64L30 63M74 63L75 64L74 63z"/>
<path style="fill:#a5b6cf; stroke:none;" d="M75 63L76 64L75 63z"/>
<path style="fill:#cad4e3; stroke:none;" d="M76 63L76 64L80 66L80 65L76 63M88 63L89 64L88 63z"/>
<path style="fill:#8ba1c2; stroke:none;" d="M18 64L19 65L18 64M21 64L21 68L22 68L21 64z"/>
<path style="fill:#cad4e3; stroke:none;" d="M27 64L28 65L27 64z"/>
<path style="fill:#a5b6cf; stroke:none;" d="M28 64L29 65L28 64z"/>
<path style="fill:#8ba1c2; stroke:none;" d="M76 64L77 65L76 64M87 64L88 65L87 64z"/>
<path style="fill:#cad4e3; stroke:none;" d="M18 65L19 66L18 65M25 65L26 66L25 65z"/>
<path style="fill:#a5b6cf; stroke:none;" d="M26 65L27 66L26 65M78 65L79 66L78 65z"/>
<path style="fill:#cad4e3; stroke:none;" d="M87 65L88 66L87 65z"/>
<path style="fill:#8ba1c2; stroke:none;" d="M19 66L20 67L19 66z"/>
<path style="fill:#cad4e3; stroke:none;" d="M24 66L25 67L24 66z"/>
<path style="fill:#a5b6cf; stroke:none;" d="M80 66L81 67L80 66z"/>
<path style="fill:#8ba1c2; stroke:none;" d="M86 66L87 67L86 66z"/>
<path style="fill:#cad4e3; stroke:none;" d="M19 67L20 68L19 67M22 67L23 68L22 67z"/>
<path style="fill:#8ba1c2; stroke:none;" d="M23 67L24 68L23 67M81 67L82 68L81 67z"/>
<path style="fill:#a5b6cf; stroke:none;" d="M82 67L83 68L82 67z"/>
<path style="fill:#cad4e3; stroke:none;" d="M86 67L87 68L86 67z"/>
<path style="fill:#8ba1c2; stroke:none;" d="M20 68L21 69L20 68z"/>
<path style="fill:#a5b6cf; stroke:none;" d="M85 68L86 69L85 68z"/>
<path style="fill:#cad4e3; stroke:none;" d="M21 70L22 71L21 70M84 70L85 71L84 70z"/>
<path style="fill:#a5b6cf; stroke:none;" d="M22 71L23 72L22 71M83 71L84 72L83 71z"/>
<path style="fill:#8ba1c2; stroke:none;" d="M23 72L24 73L23 72M82 72L83 73L82 72M24 73L25 74L24 73M81 73L82 74L81 73M25 74L26 75L25 74M80 74L81 75L80 74M26 75L27 76L26 75M79 75L80 76L79 75M27 76L28 77L27 76M78 76L79 77L78 76z"/>
<path style="fill:#a5b6cf; stroke:none;" d="M28 77L29 78L28 77M77 77L78 78L77 77z"/>
<path style="fill:#cad4e3; stroke:none;" d="M29 78L30 79L29 78M76 78L77 79L76 78z"/>
<path style="fill:#8ba1c2; stroke:none;" d="M31 79L32 80L31 79M74 79L75 80L74 79z"/>
<path style="fill:#cad4e3; stroke:none;" d="M32 80L33 81L32 80z"/>
<path style="fill:#8ba1c2; stroke:none;" d="M72 80L73 81L72 80z"/>
<path style="fill:#cad4e3; stroke:none;" d="M73 80L74 81L73 80M34 81L35 82L34 81z"/>
<path style="fill:#8ba1c2; stroke:none;" d="M70 81L71 82L70 81z"/>
<path style="fill:#cad4e3; stroke:none;" d="M71 81L72 82L71 81M36 82L37 83L36 82z"/>
<path style="fill:#8ba1c2; stroke:none;" d="M68 82L69 83L68 82z"/>
<path style="fill:#cad4e3; stroke:none;" d="M69 82L70 83L69 82M38 83L39 84L38 83z"/>
<path style="fill:#a5b6cf; stroke:none;" d="M39 83L40 84L39 83M66 83L67 84L66 83z"/>
<path style="fill:#cad4e3; stroke:none;" d="M67 83L68 84L67 83M41 84L42 85L41 84z"/>
<path style="fill:#a5b6cf; stroke:none;" d="M42 84L43 85L42 84z"/>
<path style="fill:#8ba1c2; stroke:none;" d="M43 84L44 85L43 84M62 84L63 85L62 84z"/>
<path style="fill:#a5b6cf; stroke:none;" d="M63 84L64 85L63 84z"/>
<path style="fill:#cad4e3; stroke:none;" d="M64 84L65 85L64 84M45.6667 85.3333L46.3333 85.6667L45.6667 85.3333z"/>
<path style="fill:#a5b6cf; stroke:none;" d="M47.6667 85.3333L48.3333 85.6667L47.6667 85.3333z"/>
<path style="fill:#8ba1c2; stroke:none;" d="M49 85L50 86L49 85M55 85L55 86L58 86L55 85z"/>
<path style="fill:#a5b6cf; stroke:none;" d="M58 85L59 86L58 85z"/>
<path style="fill:#cad4e3; stroke:none;" d="M59.6667 85.3333L60.3333 85.6667L59.6667 85.3333z"/>
</svg>
