<?xml version="1.0" standalone="yes"?>
<svg xmlns="http://www.w3.org/2000/svg" width="115" height="48">
<path style="fill:#fafafb; stroke:none;" d="M0 0L0 48L115 48L115 0L0 0z"/>
<path style="fill:#030304; stroke:none;" d="M21 1C11.8702 12.3201 5.64001 31.167 1 45L27 46L78 46.0147L114 46L94 1C84.6041 8.84261 84.6822 34.4851 73 38L58 1C49.0498 8.02847 43.1293 27.2077 40 38L21 1z"/>
<path style="fill:#bdd8ec; stroke:none;" d="M22 1L23 2L22 1z"/>
<path style="fill:#5a5a5b; stroke:none;" d="M59 4L60 5L59 4z"/>
<path style="fill:#bdd8ec; stroke:none;" d="M21 10L20 13L23 13L21 10z"/>
<path style="fill:#5a5a5b; stroke:none;" d="M27.3333 11.6667L27.6667 12.3333L27.3333 11.6667z"/>
<path style="fill:#bdd8ec; stroke:none;" d="M56 11L57 12L56 11M93 11L92 13L94 13L93 11z"/>
<path style="fill:#fafafb; stroke:none;" d="M21 12L9 40C16.0675 42.0891 26.9325 42.0891 34 40C31.5238 31.3381 27.4499 18.3819 21 12M56 12L45 41L70 40L70 39L58 12L56 12z"/>
<path style="fill:#5a5a5b; stroke:none;" d="M87 12L88 13L87 12z"/>
<path style="fill:#bdd8ec; stroke:none;" d="M55 13L56 14L55 13z"/>
<path style="fill:#fafafb; stroke:none;" d="M92 13L80 41L106 41L94 13L92 13z"/>
<path style="fill:#bdd8ec; stroke:none;" d="M23 14L24 15L23 14z"/>
<path style="fill:#5a5a5b; stroke:none;" d="M28 14L29 15L28 14M86 14L87 15L86 14z"/>
<path style="fill:#bdd8ec; stroke:none;" d="M94 14L95 15L94 14M18 16L19 17L18 16M17 18L18 19L17 18M96 18L97 19L96 18M97.3333 19.6667L97.6667 20.3333L97.3333 19.6667M16 20L17 21L16 20z"/>
<path style="fill:#5a5a5b; stroke:none;" d="M31 20L32 21L31 20z"/>
<path style="fill:#bdd8ec; stroke:none;" d="M61 20L62 21L61 20M51 22L52 23L51 22M62.3333 22.6667L62.6667 23.3333L62.3333 22.6667z"/>
<path style="fill:#5a5a5b; stroke:none;" d="M67.3333 22.6667L67.6667 23.3333L67.3333 22.6667z"/>
<path style="fill:#bdd8ec; stroke:none;" d="M87.3333 22.6667L87.6667 23.3333L87.3333 22.6667M98 22L99 23L98 22M15 23L16 24L15 23z"/>
<path style="fill:#5a5a5b; stroke:none;" d="M32 23L33 24L32 23z"/>
<path style="fill:#bdd8ec; stroke:none;" d="M63 25L64 26L63 25z"/>
<path style="fill:#5a5a5b; stroke:none;" d="M68 25L69 26L68 25M81 25L82 26L81 25z"/>
<path style="fill:#bdd8ec; stroke:none;" d="M86 25L87 26L86 25M28 26L29 27L28 26M44 26L45 27L44 26M49 27L50 28L49 27M64 27L65 28L64 27M100 27L101 28L100 27M43 28L44 29L43 28M12 29L13 30L12 29z"/>
<path style="fill:#5a5a5b; stroke:none;" d="M35 29L36 30L35 29z"/>
<path style="fill:#bdd8ec; stroke:none;" d="M48 29L49 30L48 29M101 29L102 30L101 29M30 30L31 31L30 30M84 30L84 33L85 33L84 30z"/>
<path style="fill:#5a5a5b; stroke:none;" d="M66 31L67 32L66 31z"/>
<path style="fill:#bdd8ec; stroke:none;" d="M102 31L103 32L102 31M31.3333 32.6667L31.6667 33.3333L31.3333 32.6667M66.3333 32.6667L66.6667 33.3333L66.3333 32.6667M78 32L79 33L78 32z"/>
<path style="fill:#5a5a5b; stroke:none;" d="M36 33L37 34L36 33M78 33L79 34L78 33z"/>
<path style="fill:#979ea3; stroke:none;" d="M72 34L73 35L72 34z"/>
<path style="fill:#5a5a5b; stroke:none;" d="M83 34L84 35L83 34z"/>
<path style="fill:#bdd8ec; stroke:none;" d="M32 35L33 36L32 35M83 35L84 36L83 35z"/>
<path style="fill:#979ea3; stroke:none;" d="M67 36L68 37L67 36z"/>
<path style="fill:#5a5a5b; stroke:none;" d="M77 36L78 37L77 36z"/>
<path style="fill:#bdd8ec; stroke:none;" d="M104 36L105 37L104 36M9 37L10 38L9 37M67 37L68 38L67 37M8 38L10 41L8 38M105.333 38.6667L105.667 39.3333L105.333 38.6667M34 39L33 41L35 41L34 39M44 39L43 41L45 41L44 39M80 39L81 40L80 39M68 42L71 40L68 42M20 41L21 42L20 41M22 41L23 42L22 41M27 41L28 42L27 41M29 41L30 42L29 41M48 41L48 42L51 42L48 41M54 41L55 42L54 41M59 41L60 42L59 41M61 41L62 42L61 41M65.6667 41.3333L66.3333 41.6667L65.6667 41.3333M80 41L81 42L80 41M82 41L83 42L82 41M86 41L86 42L89 42L86 41M105.667 41.3333L106.333 41.6667L105.667 41.3333z"/>
<path style="fill:#5a5a5b; stroke:none;" d="M36 46L37 47L36 46M42 46L43 47L42 46M48.6667 46.3333L49.3333 46.6667L48.6667 46.3333M55 46L56 47L55 46M57 46L58 47L57 46M62 46L62 47L65 47L62 46M68 46L68 47L72 47L68 46M76 46L76 47L80 47L76 46M83 46L84 47L83 46z"/>
<path style="fill:#bdd8ec; stroke:none;" d="M113 46L114 47L113 46z"/>
</svg>
