<?xml version="1.0" standalone="yes"?>
<svg xmlns="http://www.w3.org/2000/svg" width="376" height="72">
<path style="fill:#fdfdfd; stroke:none;" d="M0 0L0 72L376 72L376 0L0 0z"/>
<path style="fill:#b4b2ae; stroke:none;" d="M160 3L160 4C170.706 0.659271 186.371 0.126045 197 4C190.376 -2.20648 167.97 -0.377205 160 3z"/>
<path style="fill:#888680; stroke:none;" d="M162 3L162 4L196 4C189.224 -0.629425 169.728 0.715736 162 3z"/>
<path style="fill:#b4b2ae; stroke:none;" d="M1 31L2 31C4.06836 23.631 11.5731 18.7262 18 15.1813C34.4008 6.13513 52.6482 4.2242 71 5C65.6882 2.4473 60.6279 3.84746 55 3.98534C40.078 4.35091 27.8434 6.81168 15 15.179C9.09436 19.0265 2.13947 23.6154 1 31z"/>
<path style="fill:#696761; stroke:none;" d="M166 3L166 4L194 4L166 3z"/>
<path style="fill:#888680; stroke:none;" d="M2 29L3 29L6 27C7.70254 21.0806 15.6676 17.6682 21 15.4491C35.2744 9.50875 50.5759 6.21728 66 5C61.8092 3.36427 55.529 4.77586 51 5.08951C34.8784 6.20596 9.42716 13.0839 2 29M69 5L69 6L108 5C98.8453 1.15852 78.6203 2.7096 69 5z"/>
<path style="fill:#b4b2ae; stroke:none;" d="M108 4L108 5L155 5C142.823 -0.10952 121.265 4 108 4z"/>
<path style="fill:#888680; stroke:none;" d="M155 4L155 5L161 5L155 4z"/>
<path style="fill:#696761; stroke:none;" d="M161 4L128 7L128 8L157 6L157 7C140.739 10.8715 108.139 9.20324 100 28C121.94 11.404 150.663 6.73166 177.91 7.58179C187.655 7.88583 197.297 8.23943 207 9.08642C213.927 9.69111 216.991 13.0045 211 18L211 19C217.191 16.8696 220.285 10.3197 211.995 8.48302C197.749 5.32646 175.09 2.83528 161 7L161 4z"/>
<path style="fill:#514c45; stroke:none;" d="M161 7C174.676 3.74397 190.224 6.45356 204 7.83102C207.503 8.18132 217.553 7.80878 216.789 13.7184C215.824 21.1796 198.673 23.2851 195.703 32.0039C191.899 43.1721 203.07 47.2639 208.663 54.1836C210.894 56.9434 210.249 59.5876 206.941 60.8519C199.68 63.6266 190.619 63 183 63C162.297 63 139.3 60.7668 120.001 52.8573C109.57 48.5825 92.5363 40.2043 101.214 26.2099C111.872 9.02151 140.669 11.8273 157 7L157 6L133.424 8.13272L109 7L109 8C116.223 15.6565 92.9728 24.0741 93.0988 34C93.2476 45.7296 108.265 47.6108 114.667 54.4599C119.56 59.6952 112.497 62.8429 108 62.9846C105.668 63.058 103.331 62.9299 101 63.0895C97.2995 63.3429 93.7257 63.9692 90 64C105.782 70.6226 126.703 59.644 143 61.1698C160.654 62.8226 178.159 65.7419 196 64.9606C206.867 64.4848 219.331 60.4059 230 61.4144C257.373 64.0016 283.958 71.9299 312 67.561C329.031 64.9075 346.823 62.9206 362 53.9815C369.258 49.7064 376.082 43.2068 373.566 34C369.956 20.7861 346.591 14.5704 335 11.8873C311.021 6.33669 285.504 5.41145 261 7.08951C253.449 7.60657 245.465 10.5305 238 10.375C229.072 10.189 220.136 6.28119 211 6.01389C198.902 5.65994 187.172 4 175 4C170.259 4 163.854 2.59788 161 7z"/>
<path style="fill:#696761; stroke:none;" d="M196 4L197 5L196 4z"/>
<path style="fill:#888680; stroke:none;" d="M197 4L197 5L209 5L197 4z"/>
<path style="fill:#b4b2ae; stroke:none;" d="M209 4L209 5L240 7.99614L303 5.08951L352 16C344.016 8.6187 331.8 9.88018 322 7.21528C295.655 0.0513382 267.416 5.01562 241 6.94521C230.462 7.71494 219.859 4 209 4z"/>
<path style="fill:#696761; stroke:none;" d="M5 26L14 22L14 23L9 29L10 29C24.6335 8.42915 60.535 8.83677 83 7.96142C87.6663 7.77959 106.667 5.33015 108.248 11.2137C109.501 15.8726 96.593 23.8663 94 28C98.3545 24.7705 117.43 13.535 109 8L109 7L127 7C118.143 3.28197 105.486 5 96 5C75.0715 5 55.393 5.22088 35 10.3349C24.4275 12.9862 11.8696 17.0454 5 26z"/>
<path style="fill:#888680; stroke:none;" d="M117 5L117 6L149 6L117 5z"/>
<path style="fill:#696761; stroke:none;" d="M198 5L198 6L201 6L198 5M203 5L203 6L215 6L203 5z"/>
<path style="fill:#888680; stroke:none;" d="M215 5L215 6L230 8L215 5M246 7L246 8L319 8L297 5L246 7z"/>
<path style="fill:#696761; stroke:none;" d="M216 6L216 7L223 7L216 6M261 6L261 7L284 7L261 6M287 6L287 7L304 7L287 6z"/>
<path style="fill:#514c45; stroke:none;" d="M55.6667 7.33334L56.3333 7.66666L55.6667 7.33334z"/>
<path style="fill:#888680; stroke:none;" d="M9 30L10 30C25.0001 13.6483 55.0924 10.0013 76 10C82.2782 9.9996 114.277 6.59469 101 19C104.68 18.8112 112.183 12.9999 107.396 9.17901C102.489 5.26221 87.9391 7.70287 82 7.96065C60.9672 8.87354 20.507 7.97636 9 30M100 29C124.901 11.5476 154.272 8.99809 184 9C191.397 9.00048 213.328 6.85475 213 17C217.333 12.7073 214.277 9.80477 208.999 9.17361C200.686 8.17942 192.338 8.05807 184 7.42593C164.113 5.9183 141.982 8.86827 123 14.8086C114.122 17.587 105.269 20.943 100 29z"/>
<path style="fill:#696761; stroke:none;" d="M224 7L224 8L228 8L224 7M250 7L250 8L258 8L250 7M307 7L307 8L315 8L307 7M229 8L229 9L244 10L229 8z"/>
<path style="fill:#888680; stroke:none;" d="M233 8L233 9L245 9L233 8z"/>
<path style="fill:#696761; stroke:none;" d="M245 8L245 9L249 9L245 8M317 8L317 9L321 9L317 8z"/>
<path style="fill:#888680; stroke:none;" d="M321 8L322 9L321 8z"/>
<path style="fill:#b4b2ae; stroke:none;" d="M59 10L59 11C72.9122 11 91.962 7.42773 104 15L104 16L96 23C98.6281 21.5758 109.997 13.8439 103.667 10.6034C93.0527 5.17026 70.849 10 59 10M148 10L148 11L210 11C192.846 3.80196 166.242 10 148 10z"/>
<path style="fill:#696761; stroke:none;" d="M322 9L322 10L325 10L322 9z"/>
<path style="fill:#888680; stroke:none;" d="M325 9L325 10L334 11L325 9z"/>
<path style="fill:#696761; stroke:none;" d="M232 15L232 16L268 11.0895L309 12L285 10L232 15M327 10L327 11L332 11L327 10z"/>
<path style="fill:#b4b2ae; stroke:none;" d="M9 33L10 33C15.9926 20.5034 45.107 13.7447 58 12C53.602 10.2841 48.4203 12.493 44 13.6296C33.1589 16.4173 12.0795 20.3501 9 33z"/>
<path style="fill:#fdfdfd; stroke:none;" d="M104 16C98.865 9.25984 90.6863 11 83 11C74.8627 11 66.0311 10.0441 58 11.4637C49.2737 13.0062 41.5464 17.5886 33 19.385C25.8154 20.8952 11.2643 24.1028 9.86188 33.0046C8.78056 39.8684 16.9025 47.1154 23 48.6829C42.914 53.8022 61.201 57 82 57C86.6329 57 97.6535 59.0235 101.392 55.9722C106.122 52.112 92.4115 40.807 91.3974 36C89.6187 27.5691 98.2456 20.6991 104 16z"/>
<path style="fill:#b4b2ae; stroke:none;" d="M99 36L100 36C101.909 18.8553 133.481 15.4977 147 12C141.975 10.4545 135.889 12.8303 131 14.2793C119.293 17.7488 99.8258 20.9152 99 36z"/>
<path style="fill:#fdfdfd; stroke:none;" d="M213 12C203.778 9.80434 193.441 11 184 11C162.939 11 145.145 11.3708 125 18.0532C116.843 20.759 97.6479 23.2034 100.434 36C102.371 44.8927 112.742 47.1027 120 49.865C137.905 56.6794 159.891 59 179 59C184.205 59 193.246 60.7161 197.851 57.9722C204.71 53.8856 191.658 39.0731 194.742 31C198.249 21.8194 210.459 20.9533 213 12z"/>
<path style="fill:#b4b2ae; stroke:none;" d="M211.667 11.3333L212.333 11.6667L211.667 11.3333z"/>
<path style="fill:#888680; stroke:none;" d="M224 18L224 19C253.426 13.4557 280.257 13 310 13C303.14 10.1215 292.448 11 285 11C264.408 11 243.932 12.3988 224 18z"/>
<path style="fill:#696761; stroke:none;" d="M333.667 11.3333L334.333 11.6667L333.667 11.3333z"/>
<path style="fill:#888680; stroke:none;" d="M335 11L335 12L340 12L335 11z"/>
<path style="fill:#b4b2ae; stroke:none;" d="M213 12L213 15L214 15L213 12M215 22L215 23L263 14.0895L317 15C310.432 12.0517 302.964 13.5362 296 12.7145C268.83 9.50865 240.987 14.5853 215 22z"/>
<path style="fill:#696761; stroke:none;" d="M310 12L310 13L336 17L310 12M337 12L337 13L346 15L337 12z"/>
<path style="fill:#888680; stroke:none;" d="M341.667 12.3333L342.333 12.6667L341.667 12.3333M311 13L311 14L317 14L311 13M343 13L343 14L346 14L343 13z"/>
<path style="fill:#fdfdfd; stroke:none;" d="M259 14.4252C244.435 16.4088 225.955 17.2672 213 24.4167C206.558 27.9715 198.342 33.617 203.742 41.9606C210.528 52.4446 226.141 53.8783 237 56.4144C264.354 62.8025 297.869 64.3216 326 59.5571C336.798 57.7283 349.933 54.5822 358.999 48.1196C367.522 42.0448 368.69 34.9589 359.985 28.6381C357.754 27.0187 355.545 25.1983 353 24.0887C326.234 12.4181 287.732 10.5122 259 14.4252z"/>
<path style="fill:#888680; stroke:none;" d="M317 14L317 15L322 15L317 14M346.667 14.3333L347.333 14.6667L346.667 14.3333z"/>
<path style="fill:#b4b2ae; stroke:none;" d="M212 15L209 19L212 15M318 15L318 16L350 23C340.648 18.195 328.502 15.4509 318 15z"/>
<path style="fill:#888680; stroke:none;" d="M323 15L323 16L327 16L323 15z"/>
<path style="fill:#696761; stroke:none;" d="M347.667 15.3333L348.333 15.6667L347.667 15.3333z"/>
<path style="fill:#888680; stroke:none;" d="M349 15L350 16L349 15z"/>
<path style="fill:#696761; stroke:none;" d="M226 16L226 17L230 17L226 16z"/>
<path style="fill:#888680; stroke:none;" d="M329 16L329 17L332 17L329 16z"/>
<path style="fill:#696761; stroke:none;" d="M350 16L350 17L356 19L356 18L350 16z"/>
<path style="fill:#888680; stroke:none;" d="M351.667 16.3333L352.333 16.6667L351.667 16.3333z"/>
<path style="fill:#b4b2ae; stroke:none;" d="M353 16L353 17L358 19L353 16z"/>
<path style="fill:#888680; stroke:none;" d="M211 17L212 18L211 17z"/>
<path style="fill:#696761; stroke:none;" d="M224.667 17.3333L225.333 17.6667L224.667 17.3333z"/>
<path style="fill:#888680; stroke:none;" d="M332 17L332 18L340 19L332 17z"/>
<path style="fill:#696761; stroke:none;" d="M337 17L337 18L340 18L337 17z"/>
<path style="fill:#888680; stroke:none;" d="M354 17L355 18L354 17M210 18L211 19L210 18z"/>
<path style="fill:#696761; stroke:none;" d="M222.667 18.3333L223.333 18.6667L222.667 18.3333M340.667 18.3333L341.333 18.6667L340.667 18.3333z"/>
<path style="fill:#888680; stroke:none;" d="M356 18L357 19L356 18z"/>
<path style="fill:#514c45; stroke:none;" d="M14 21L18 20L14 21z"/>
<path style="fill:#b4b2ae; stroke:none;" d="M206.667 19.3333L207.333 19.6667L206.667 19.3333z"/>
<path style="fill:#888680; stroke:none;" d="M208 19L209 20L208 19z"/>
<path style="fill:#696761; stroke:none;" d="M209 19L210 20L209 19M219.667 19.3333L220.333 19.6667L219.667 19.3333z"/>
<path style="fill:#888680; stroke:none;" d="M221 19L222 20L221 19M342 19L343 20L342 19z"/>
<path style="fill:#696761; stroke:none;" d="M343.667 19.3333L344.333 19.6667L343.667 19.3333M357 19L358 20L357 19z"/>
<path style="fill:#888680; stroke:none;" d="M358 19L359 20L358 19z"/>
<path style="fill:#b4b2ae; stroke:none;" d="M359 19L359 20L374 31C370.174 25.5689 365.567 20.7143 359 19z"/>
<path style="fill:#888680; stroke:none;" d="M99 20L100 21L99 20z"/>
<path style="fill:#b4b2ae; stroke:none;" d="M194 33L195 33L205 21C199.389 20.8813 195.005 28.0205 194 33z"/>
<path style="fill:#888680; stroke:none;" d="M205.667 20.3333L206.333 20.6667L205.667 20.3333z"/>
<path style="fill:#696761; stroke:none;" d="M207 20L208 21L207 20M213 23L218 21L213 23z"/>
<path style="fill:#888680; stroke:none;" d="M218.667 20.3333L219.333 20.6667L218.667 20.3333M344 20L344 21L348 22L348 21L344 20z"/>
<path style="fill:#696761; stroke:none;" d="M346.667 20.3333L347.333 20.6667L346.667 20.3333M359 20L359 21L366 25L359 20z"/>
<path style="fill:#888680; stroke:none;" d="M360 20L361 21L360 20M203 21L199 26L203 21z"/>
<path style="fill:#696761; stroke:none;" d="M203 22L203 23L207 22L203 22z"/>
<path style="fill:#888680; stroke:none;" d="M216.667 21.3333L217.333 21.6667L216.667 21.3333z"/>
<path style="fill:#696761; stroke:none;" d="M348.667 21.3333L349.333 21.6667L348.667 21.3333z"/>
<path style="fill:#888680; stroke:none;" d="M362 21L363 22L362 21z"/>
<path style="fill:#514c45; stroke:none;" d="M14 46L14 45C6.57213 38.8404 6.29693 29.0873 14 23C8.66317 21.1536 2.45153 27.7293 2.19136 33.0039C1.8746 39.4256 8.16572 45.0992 14 46z"/>
<path style="fill:#888680; stroke:none;" d="M97 22L98 23L97 22M214 22L215 23L214 22M350.667 22.3333L351.333 22.6667L350.667 22.3333M364 22L365 23L364 22M96 23L92 30L93 30L96 23z"/>
<path style="fill:#696761; stroke:none;" d="M202 23L203 24L202 23M206 27L212 24L206 27z"/>
<path style="fill:#888680; stroke:none;" d="M212 23L209 25L209 26L212 23z"/>
<path style="fill:#b4b2ae; stroke:none;" d="M213 23L214 24L213 23M352 23L353 24L352 23z"/>
<path style="fill:#888680; stroke:none;" d="M353 23L354 24L353 23z"/>
<path style="fill:#696761; stroke:none;" d="M354 23L356 25L354 23z"/>
<path style="fill:#888680; stroke:none;" d="M365 23L366 24L365 23z"/>
<path style="fill:#b4b2ae; stroke:none;" d="M95 24L96 25L95 24z"/>
<path style="fill:#696761; stroke:none;" d="M201 24L202 25L201 24z"/>
<path style="fill:#b4b2ae; stroke:none;" d="M212 24L213 25L212 24M354 24L355 25L354 24z"/>
<path style="fill:#888680; stroke:none;" d="M366 24L367 25L366 24z"/>
<path style="fill:#b4b2ae; stroke:none;" d="M94 25L95 26L94 25z"/>
<path style="fill:#696761; stroke:none;" d="M200 25L201 26L200 25z"/>
<path style="fill:#b4b2ae; stroke:none;" d="M211 25L212 26L211 25M355 25L356 26L355 25z"/>
<path style="fill:#888680; stroke:none;" d="M356 25L357 26L356 25z"/>
<path style="fill:#696761; stroke:none;" d="M357 25L359 27L357 25z"/>
<path style="fill:#888680; stroke:none;" d="M367 25L368 26L367 25z"/>
<path style="fill:#696761; stroke:none;" d="M4 26L5 27L4 26z"/>
<path style="fill:#b4b2ae; stroke:none;" d="M93 26L94 27L93 26z"/>
<path style="fill:#888680; stroke:none;" d="M198 26L199 27L198 26M207 26L208 27L207 26z"/>
<path style="fill:#b4b2ae; stroke:none;" d="M208 26L208 27L211 27L208 26M357 26L358 27L357 26z"/>
<path style="fill:#696761; stroke:none;" d="M368 26L369 27L368 26M3.33333 27.6667L3.66667 28.3333L3.33333 27.6667z"/>
<path style="fill:#b4b2ae; stroke:none;" d="M92.3333 27.6667L92.6667 28.3333L92.3333 27.6667z"/>
<path style="fill:#888680; stroke:none;" d="M197 27L196 29L197 27z"/>
<path style="fill:#696761; stroke:none;" d="M204 27L203 29L204 27z"/>
<path style="fill:#888680; stroke:none;" d="M205 27L203 30L205 27z"/>
<path style="fill:#b4b2ae; stroke:none;" d="M206 27L207 28L206 27M358 27L362 30L362 29L358 27z"/>
<path style="fill:#888680; stroke:none;" d="M359 27L361 29L359 27z"/>
<path style="fill:#696761; stroke:none;" d="M360 27L361 28L360 27M369 27L370 28L369 27M197 28L198 29L197 28z"/>
<path style="fill:#b4b2ae; stroke:none;" d="M205 28L206 29L205 28z"/>
<path style="fill:#696761; stroke:none;" d="M361 28L361 29L365 31L361 28M370 28L371 29L370 28M2 29L3 30L2 29z"/>
<path style="fill:#b4b2ae; stroke:none;" d="M91 29C91.004 35.0341 91.4465 40.0123 95.5293 44.8302C97.5402 47.2032 103.573 50.8857 101.824 54.6821C99.8044 59.066 86.9562 57 83 57C72.5118 57 60.2884 57.6657 50 55.7261C40.8261 53.9965 32.5129 49.0336 23 49L23 50L47 56.3912L92 60L111 58L95.3943 42L91 29z"/>
<path style="fill:#696761; stroke:none;" d="M93 29L94 30L93 29M99 29L100 30L99 29M196 29L197 30L196 29z"/>
<path style="fill:#b4b2ae; stroke:none;" d="M204 29L205 30L204 29z"/>
<path style="fill:#888680; stroke:none;" d="M362 29L363 30L362 29M371 29L372 30L371 29z"/>
<path style="fill:#696761; stroke:none;" d="M8.33333 30.6667L8.66667 31.3333L8.33333 30.6667M92 30L92 36L93 36L92 30z"/>
<path style="fill:#888680; stroke:none;" d="M99 30L100 31L99 30z"/>
<path style="fill:#696761; stroke:none;" d="M195.333 30.6667L195.667 31.3333L195.333 30.6667M202 30L201 33L202 33L202 30z"/>
<path style="fill:#b4b2ae; stroke:none;" d="M203 30L204 31L203 30M363 30L364 31L363 30z"/>
<path style="fill:#696761; stroke:none;" d="M372 30L373 31L372 30z"/>
<path style="fill:#888680; stroke:none;" d="M1 31L1 37L2 37L1 31z"/>
<path style="fill:#b4b2ae; stroke:none;" d="M202.333 31.6667L202.667 32.3333L202.333 31.6667M364 31L366 36L367 36L364 31z"/>
<path style="fill:#888680; stroke:none;" d="M365 31L366 32L365 31M373 31L374 32L373 31M8 32L8 35L9 35L8 32z"/>
<path style="fill:#696761; stroke:none;" d="M366 32L367 33L366 32M373 32L374 33L373 32z"/>
<path style="fill:#b4b2ae; stroke:none;" d="M374 32L375 33L374 32z"/>
<path style="fill:#888680; stroke:none;" d="M194 33L194 39L195 39L194 33M201 33L202 34L201 33M366 33L367 34L366 33M374 33L374 42L375 42L374 33z"/>
<path style="fill:#b4b2ae; stroke:none;" d="M9 34L11 42L12 42L9 34z"/>
<path style="fill:#696761; stroke:none;" d="M200 34L200 40L201 40L200 34z"/>
<path style="fill:#b4b2ae; stroke:none;" d="M201 34C201.132 39.4589 202.571 42.6997 207 46L201 34z"/>
<path style="fill:#696761; stroke:none;" d="M367.333 34.6667L367.667 35.3333L367.333 34.6667M8 35L8 39L9 39L8 35z"/>
<path style="fill:#888680; stroke:none;" d="M92.3333 36.6667L92.6667 37.3333L92.3333 36.6667M99.3333 36.6667L99.6667 37.3333L99.3333 36.6667M367 36L367 40L368 40L367 36z"/>
<path style="fill:#b4b2ae; stroke:none;" d="M1 37C2.03965 46.3352 14.0103 55.0236 23 56L23 55C13.516 52.1893 5.99579 45.197 1 37z"/>
<path style="fill:#696761; stroke:none;" d="M2 37C5.39435 46.9781 16.8356 51.6247 26 55.0502C44.3664 61.9151 62.5683 64.1885 82 65.0394C90.4277 65.4084 98.6215 66.9948 107 65L107 64L90 65L90 64C94.9785 63.9863 121.566 65.1298 115.957 55.2593C111.944 48.1979 99.5402 44.8625 94 38L93 38C96.1308 44.0185 101.357 47.4855 107 51.0008C109.124 52.3236 113.556 54.3594 113.503 57.3819C113.378 64.4782 92.4019 62 88 62C60.4379 62 34.3576 56.5457 11 42L14 45L14 46L2 37z"/>
<path style="fill:#b4b2ae; stroke:none;" d="M100 37L103 41L100 37z"/>
<path style="fill:#696761; stroke:none;" d="M99 38L100 39L99 38z"/>
<path style="fill:#888680; stroke:none;" d="M2.33333 39.6667L2.66667 40.3333L2.33333 39.6667M9 39L10 40L9 39M93 39L94 40L93 39M100 39L103 42L100 39z"/>
<path style="fill:#b4b2ae; stroke:none;" d="M194 39C194.535 43.9217 201.314 50.5023 199.745 54.9414C197.464 61.3947 184.226 59 179 59C167.026 59 152.698 58.1279 141 55.7014C132.769 53.9939 124.372 49.6015 116 49L116 50C145.198 56.5969 176.731 65.457 207 58L194 39z"/>
<path style="fill:#696761; stroke:none;" d="M9 40L10 41L9 40M100 40L101 41L100 40M195 40L209 60L167 60.9105L133 56L133 57C151.817 62.9669 172.442 63.2288 192 62.9961C195.885 62.9499 209.935 63.1216 210.534 57.8565C211.129 52.6214 198.471 43.8472 195 40z"/>
<path style="fill:#888680; stroke:none;" d="M201 40L202 41L201 40z"/>
<path style="fill:#b4b2ae; stroke:none;" d="M366 40L354 52C358.492 49.5964 366.121 45.7179 366 40z"/>
<path style="fill:#696761; stroke:none;" d="M367.333 40.6667L367.667 41.3333L367.333 40.6667z"/>
<path style="fill:#888680; stroke:none;" d="M3 41L4 42L3 41M10 41L11 42L10 41M94 41L95 42L94 41z"/>
<path style="fill:#696761; stroke:none;" d="M101 41L102 42L101 41M201 41L202 42L201 41z"/>
<path style="fill:#888680; stroke:none;" d="M4 42L8 46L4 42M12 42L19 48L12 42z"/>
<path style="fill:#b4b2ae; stroke:none;" d="M13.6667 42.3333L14.3333 42.6667L13.6667 42.3333z"/>
<path style="fill:#888680; stroke:none;" d="M95 42L96 43L95 42z"/>
<path style="fill:#696761; stroke:none;" d="M102.333 42.6667L102.667 43.3333L102.333 42.6667z"/>
<path style="fill:#b4b2ae; stroke:none;" d="M103 42L106 45L103 42z"/>
<path style="fill:#888680; stroke:none;" d="M195 42L196 43L195 42z"/>
<path style="fill:#696761; stroke:none;" d="M202 42L203 43L202 42z"/>
<path style="fill:#888680; stroke:none;" d="M366 42L361 48L366 42z"/>
<path style="fill:#b4b2ae; stroke:none;" d="M374 42L375 43L374 42M15 43L16 44L15 43z"/>
<path style="fill:#888680; stroke:none;" d="M96 43L97 44L96 43M103 43L104 44L103 43M203 43L204 44L203 43z"/>
<path style="fill:#696761; stroke:none;" d="M366 43L367 44L366 43z"/>
<path style="fill:#888680; stroke:none;" d="M373.333 43.6667L373.667 44.3333L373.333 43.6667z"/>
<path style="fill:#b4b2ae; stroke:none;" d="M16 44L17 45L16 44z"/>
<path style="fill:#888680; stroke:none;" d="M97 44L98 45L97 44M104 44L105 45L104 44M196 44L197 45L196 44M204 44L205 45L204 44z"/>
<path style="fill:#696761; stroke:none;" d="M365 44L366 45L365 44z"/>
<path style="fill:#b4b2ae; stroke:none;" d="M17 45L18 46L17 45z"/>
<path style="fill:#888680; stroke:none;" d="M98 45L99 46L98 45M105 45L105 46L108 46L105 45z"/>
<path style="fill:#b4b2ae; stroke:none;" d="M108 45L108 46L115 49L115 48L108 45z"/>
<path style="fill:#888680; stroke:none;" d="M197 45L198 46L197 45z"/>
<path style="fill:#696761; stroke:none;" d="M205 45L206 46L205 45M364 45L365 46L364 45M372 45L366 52L372 45z"/>
<path style="fill:#b4b2ae; stroke:none;" d="M373 45L374 46L373 45z"/>
<path style="fill:#888680; stroke:none;" d="M8 46L11 48L8 46z"/>
<path style="fill:#b4b2ae; stroke:none;" d="M18 46L19 47L18 46z"/>
<path style="fill:#888680; stroke:none;" d="M99 46L111 58C85.7633 67.1977 57.9806 53.5322 33 53L33 54C52.7312 60.2569 73.3997 62 94 62C98.811 62 109.726 63.8635 113.083 59.4367C117.257 53.934 102.644 47.5121 99 46z"/>
<path style="fill:#696761; stroke:none;" d="M106 46L106 47L112 49L106 46z"/>
<path style="fill:#888680; stroke:none;" d="M109 46L112 48L109 46M198.333 46.6667L198.667 47.3333L198.333 46.6667z"/>
<path style="fill:#696761; stroke:none;" d="M206 46L216 53L216 52L206 46z"/>
<path style="fill:#888680; stroke:none;" d="M207 46L209 48L207 46z"/>
<path style="fill:#b4b2ae; stroke:none;" d="M208 46L209 47L208 46z"/>
<path style="fill:#696761; stroke:none;" d="M363 46L364 47L363 46z"/>
<path style="fill:#b4b2ae; stroke:none;" d="M372 46L373 47L372 46M19 47L20 48L19 47M209 47L210 48L209 47z"/>
<path style="fill:#696761; stroke:none;" d="M362 47L363 48L362 47z"/>
<path style="fill:#b4b2ae; stroke:none;" d="M371 47L372 48L371 47z"/>
<path style="fill:#888680; stroke:none;" d="M11 48L12 49L11 48z"/>
<path style="fill:#514c45; stroke:none;" d="M14 48L14 49L20 50L14 48z"/>
<path style="fill:#b4b2ae; stroke:none;" d="M20 48L21 49L20 48z"/>
<path style="fill:#888680; stroke:none;" d="M112 48L113 49L112 48M199 48L200 49L199 48z"/>
<path style="fill:#b4b2ae; stroke:none;" d="M210 48L211 49L210 48z"/>
<path style="fill:#696761; stroke:none;" d="M360 48L361 49L360 48z"/>
<path style="fill:#b4b2ae; stroke:none;" d="M370 48L371 49L370 48z"/>
<path style="fill:#888680; stroke:none;" d="M12.6667 49.3333L13.3333 49.6667L12.6667 49.3333M21.6667 49.3333L22.3333 49.6667L21.6667 49.3333z"/>
<path style="fill:#696761; stroke:none;" d="M113 49L118 52L118 51L113 49z"/>
<path style="fill:#888680; stroke:none;" d="M114.667 49.3333L115.333 49.6667L114.667 49.3333M200 49L207 58L163 60L163 61L209 60C208.663 53.8979 205.477 51.2803 200 49M211 49L212 50L211 49z"/>
<path style="fill:#b4b2ae; stroke:none;" d="M212 49L212 50L215 51L212 49z"/>
<path style="fill:#888680; stroke:none;" d="M358 49L359 50L358 49z"/>
<path style="fill:#696761; stroke:none;" d="M359 49L360 50L359 49z"/>
<path style="fill:#b4b2ae; stroke:none;" d="M369 49L370 50L369 49z"/>
<path style="fill:#888680; stroke:none;" d="M14 50C18.1055 54.7765 23.4779 55.12 29 57.4599C44.7377 64.1286 62.9591 66.9989 80 67C100.166 67.0013 120.039 64.4403 140 64.054C149.304 63.8739 158.668 66.7567 168 66.9853C188.514 67.4879 208.735 64.0461 229 64.0787C236.702 64.0911 244.178 66.9784 252 67L252 66C244.175 65.8385 236.628 62.2942 229 62.1975C214.324 62.0116 198.954 65.7217 184 65.7554C169.545 65.7879 155.289 62.5164 141 62.0432C125.28 61.5226 109.016 66.3777 93 65.9853C76.1552 65.5727 58.3394 64.4992 42 60.0802C32.3756 57.4773 23.4992 52.7355 14 50M24 50L24 51L33 53L24 50M116 50L116 51L121 52L116 50M213 50L214 51L213 50M356 50L355 52L356 50z"/>
<path style="fill:#696761; stroke:none;" d="M357.667 50.3333L358.333 50.6667L357.667 50.3333z"/>
<path style="fill:#b4b2ae; stroke:none;" d="M368 50L369 51L368 50M215 51L215 52L258 61L258 60L215 51z"/>
<path style="fill:#696761; stroke:none;" d="M356 51L357 52L356 51z"/>
<path style="fill:#b4b2ae; stroke:none;" d="M367 51L368 52L367 51z"/>
<path style="fill:#514c45; stroke:none;" d="M23.6667 52.3333L24.3333 52.6667L23.6667 52.3333z"/>
<path style="fill:#696761; stroke:none;" d="M119 52L119 53L131 56L131 55L119 52z"/>
<path style="fill:#888680; stroke:none;" d="M122 52L123 53L122 52M216 52L217 53L216 52z"/>
<path style="fill:#b4b2ae; stroke:none;" d="M344 55L344 56L353 53L344 55z"/>
<path style="fill:#888680; stroke:none;" d="M353 52L354 53L353 52z"/>
<path style="fill:#696761; stroke:none;" d="M354 52L355 53L354 52M364 52L365 53L364 52z"/>
<path style="fill:#888680; stroke:none;" d="M365 52L366 53L365 52z"/>
<path style="fill:#b4b2ae; stroke:none;" d="M366 52L367 53L366 52z"/>
<path style="fill:#888680; stroke:none;" d="M125 53L125 54L128 54L125 53z"/>
<path style="fill:#696761; stroke:none;" d="M217 53L217 54L225 56L225 55L217 53z"/>
<path style="fill:#888680; stroke:none;" d="M220.667 53.3333L221.333 53.6667L220.667 53.3333M350 53L351 54L350 53z"/>
<path style="fill:#696761; stroke:none;" d="M351.667 53.3333L352.333 53.6667L351.667 53.3333M362 53L361 55L362 53z"/>
<path style="fill:#888680; stroke:none;" d="M363 53L357 57L357 58L363 53z"/>
<path style="fill:#b4b2ae; stroke:none;" d="M364 53L365 54L364 53z"/>
<path style="fill:#888680; stroke:none;" d="M128 54L128 55L137 56L128 54M222 54L222 55L227 56L222 54M346 56L349 55L346 56z"/>
<path style="fill:#696761; stroke:none;" d="M349.667 54.3333L350.333 54.6667L349.667 54.3333z"/>
<path style="fill:#b4b2ae; stroke:none;" d="M363 54L364 55L363 54z"/>
<path style="fill:#696761; stroke:none;" d="M347 55L348 56L347 55M359 55L360 56L359 55z"/>
<path style="fill:#b4b2ae; stroke:none;" d="M362 55L363 56L362 55M27 56L28 57L27 56z"/>
<path style="fill:#514c45; stroke:none;" d="M35 56L35 57L38 57L35 56z"/>
<path style="fill:#888680; stroke:none;" d="M137 56L138 57L137 56z"/>
<path style="fill:#696761; stroke:none;" d="M226 56L226 57L231 58L231 57L226 56z"/>
<path style="fill:#888680; stroke:none;" d="M228 56L229 57L228 56z"/>
<path style="fill:#b4b2ae; stroke:none;" d="M331 58L331 59L343 57L331 58z"/>
<path style="fill:#888680; stroke:none;" d="M343 56L344 57L343 56z"/>
<path style="fill:#696761; stroke:none;" d="M344.667 56.3333L345.333 56.6667L344.667 56.3333M357 56L358 57L357 56z"/>
<path style="fill:#b4b2ae; stroke:none;" d="M360 56L361 57L360 56M28 57L39 61L39 60L28 57z"/>
<path style="fill:#888680; stroke:none;" d="M139 57L139 58L162 60L139 57M231 57L231 58L242 60L231 57M333 58L333 59L340 58L333 58z"/>
<path style="fill:#696761; stroke:none;" d="M340 57L340 58L343 58L340 57M352 58L352 59L357 58L352 58z"/>
<path style="fill:#b4b2ae; stroke:none;" d="M358 57L359 58L358 57z"/>
<path style="fill:#696761; stroke:none;" d="M232 58L232 59L236 59L232 58M335 58L335 59L339 59L335 58z"/>
<path style="fill:#888680; stroke:none;" d="M351 59L351 60L356 59L351 59z"/>
<path style="fill:#b4b2ae; stroke:none;" d="M356.667 58.3333L357.333 58.6667L356.667 58.3333z"/>
<path style="fill:#696761; stroke:none;" d="M236 59L236 60L240 60L236 59z"/>
<path style="fill:#b4b2ae; stroke:none;" d="M326 59L326 60L330 60L326 59z"/>
<path style="fill:#888680; stroke:none;" d="M330.667 59.3333L331.333 59.6667L330.667 59.3333z"/>
<path style="fill:#696761; stroke:none;" d="M332 59L332 60L335 60L332 59M350 59L351 60L350 59z"/>
<path style="fill:#b4b2ae; stroke:none;" d="M354.667 59.3333L355.333 59.6667L354.667 59.3333z"/>
<path style="fill:#696761; stroke:none;" d="M240 60L240 61L243 61L240 60z"/>
<path style="fill:#888680; stroke:none;" d="M243 60L243 61L246 61L243 60z"/>
<path style="fill:#b4b2ae; stroke:none;" d="M315 60L315 61L325 61L315 60z"/>
<path style="fill:#888680; stroke:none;" d="M325 60L325 61L328 61L325 60z"/>
<path style="fill:#696761; stroke:none;" d="M328 60L328 61L331 61L328 60M347.667 60.3333L348.333 60.6667L347.667 60.3333z"/>
<path style="fill:#888680; stroke:none;" d="M349 60L339 63L339 64L350 61L349 60z"/>
<path style="fill:#b4b2ae; stroke:none;" d="M350 60L350 61L353 61L350 60M39 61L39 62C57.1451 70.8843 80.3528 68 100 68L201 68C210.891 68 221.272 65.431 231 66.0972C251.923 67.5301 271.744 71 293 71C301.622 71 310.806 72.0688 319 69L319 68C299.922 71.5418 278.208 71.3464 259 68.8194C249.191 67.5289 238.912 64.0331 229 64.0293C209.77 64.0219 190.44 67.093 171 66.9992C160.312 66.9477 149.65 63.6244 139 64.0401C104.311 65.394 73.4829 68.1173 39 61z"/>
<path style="fill:#696761; stroke:none;" d="M123 63L123 64L159 64C147.595 58.5191 134.815 62.4914 123 63M226 61L226 62L232 62L226 61M246 61L247 62L246 61z"/>
<path style="fill:#888680; stroke:none;" d="M247 61L247 62L299 64L280 62.9853L247 61z"/>
<path style="fill:#b4b2ae; stroke:none;" d="M259 61L259 62L314 62L296 61L259 61z"/>
<path style="fill:#888680; stroke:none;" d="M314 61L314 62L324 62L314 61z"/>
<path style="fill:#696761; stroke:none;" d="M324.667 61.3333L325.333 61.6667L324.667 61.3333M343 61L343 62L346 62L343 61z"/>
<path style="fill:#b4b2ae; stroke:none;" d="M349 61L350 62L349 61z"/>
<path style="fill:#696761; stroke:none;" d="M215 63L215 64L226 63L215 63M232 62L232 63L239 64L239 63L232 62M250 62L250 63L258 63L250 62z"/>
<path style="fill:#888680; stroke:none;" d="M300 62L300 63L313 63L300 62z"/>
<path style="fill:#696761; stroke:none;" d="M313 62L313 63L321 63L313 62M340 62L340 63L343 63L340 62z"/>
<path style="fill:#b4b2ae; stroke:none;" d="M343 63L343 64L349 63L343 63z"/>
<path style="fill:#696761; stroke:none;" d="M258 63L258 64L272 64L258 63M299 63L299 64L312 64L299 63M336 63L336 64L339 64L336 63M110 64L110 65L123 65L110 64M159 64L159 65L180 65L159 64M200 64L200 65L214 65L200 64M239 64L239 65L244 65L239 64M272 64L272 65L296 65L272 64M331 64L331 65L335 65L331 64z"/>
<path style="fill:#888680; stroke:none;" d="M323 66L323 67L338 65L323 66z"/>
<path style="fill:#b4b2ae; stroke:none;" d="M338 64L338 65L343 65L338 64z"/>
<path style="fill:#696761; stroke:none;" d="M180 65L180 66L187 66L180 65M189 65L189 66L195 66L189 65M245 65L245 66L251 66L245 65M326 65L326 66L330 66L326 65z"/>
<path style="fill:#b4b2ae; stroke:none;" d="M320 67L320 68L338 66L320 67z"/>
<path style="fill:#696761; stroke:none;" d="M252 66L252 67L263 68L252 66M312 67L312 68L323 67L312 67z"/>
<path style="fill:#888680; stroke:none;" d="M253 67L253 68L256 68L253 67M318.667 67.3333L319.333 67.6667L318.667 67.3333M256 68L256 69L317 69L298 69L256 68z"/>
<path style="fill:#696761; stroke:none;" d="M269 68L269 69L307 69C296.964 64.7887 279.911 68 269 68z"/>
</svg>
