<?xml version="1.0" standalone="yes"?>
<svg xmlns="http://www.w3.org/2000/svg" width="139" height="140">
<path style="fill:#fefffe; stroke:none;" d="M0 0L0 140L139 140L139 0L0 0z"/>
<path style="fill:#e3edca; stroke:none;" d="M88 7L95 4C97.0852 -1.49117 89.1326 5.34787 88 7M38 3L38 4L52 14C48.7245 9.35007 44.0459 2.90991 38 3z"/>
<path style="fill:#010101; stroke:none;" d="M93 2L76 22L67.9853 28.7932L59.0008 22L39 3L38 4L40.4637 32L38.7623 42.9722L2 44L2 46L23 63.5903L29.2176 71.4244L21 80.7145L4 99C14.1922 102.013 32.6621 99.4612 43 97L44 138L62.0764 118L70.0934 110.346L79 117L99 136L98.2955 108L99.4344 97.0278L137 95L117 76.4205L110.207 68L117 59.1698L135 40C126.222 37.4054 116.022 40.5863 106.999 41.0008C103.99 41.139 99.0498 42.7334 96.6034 40.3819C87.6291 31.7559 102.253 11.0612 93 2z"/>
<path style="fill:#d1dea8; stroke:none;" d="M94 2L95 3L94 2z"/>
<path style="fill:#e3edca; stroke:none;" d="M38 6L38 11L39 11L38 6M96 6L96 9L97 9L96 6M87 8L88 9L87 8M86 9L87 10L86 9M85 10L86 11L85 10M96.3333 12.6667L96.6667 13.3333L96.3333 12.6667M83 13L84 14L83 13M82 14L83 15L82 14M52 15L53 16L52 15M81 15L82 16L81 15M53 16L54 17L53 16M80 16L81 17L80 16z"/>
<path style="fill:#1f201d; stroke:none;" d="M95 16L95 32L96 32L95 16z"/>
<path style="fill:#e3edca; stroke:none;" d="M54 17L55 18L54 17M79 17L80 18L79 17M55 18L56 19L55 18M56 19L57 20L56 19M78 19L79 20L78 19M57 20L58 21L57 20M77 20L78 21L77 20M39 21L40 22L39 21M58 21L59 22L58 21M76 21L77 22L76 21M59 22L60 23L59 22M75 22L76 23L75 22z"/>
<path style="fill:#1f201d; stroke:none;" d="M40 23L40 28L41 28L40 23z"/>
<path style="fill:#e3edca; stroke:none;" d="M60 23L61 24L60 23M74 23L75 24L74 23M61 24L62 25L61 24M62 25L63 26L62 25M63 26L64 27L63 26M72 26L73 27L72 26M64 27L65 28L64 27M65 28L66 29L65 28M66 29L67 30L66 29M69 29L70 30L69 29M40 32L40 37L41 37L40 32M95.3333 32.6667L95.6667 33.3333L95.3333 32.6667z"/>
<path style="fill:#1f201d; stroke:none;" d="M95 34L95 37L96 37L95 34z"/>
<path style="fill:#e3edca; stroke:none;" d="M95 37L95 41L96 41L95 37M129 38L129 39L136 39L129 38z"/>
<path style="fill:#1f201d; stroke:none;" d="M63 39L63 40L67 40L63 39z"/>
<path style="fill:#e3edca; stroke:none;" d="M67 39L67 40L70 40L67 39z"/>
<path style="fill:#1f201d; stroke:none;" d="M70.6667 39.3333L71.3333 39.6667L70.6667 39.3333z"/>
<path style="fill:#e3edca; stroke:none;" d="M119 39L119 40L124 40L119 39z"/>
<path style="fill:#d1dea8; stroke:none;" d="M134.667 39.3333L135.333 39.6667L134.667 39.3333z"/>
<path style="fill:#1f201d; stroke:none;" d="M41.3333 40.6667L41.6667 41.3333L41.3333 40.6667z"/>
<path style="fill:#e3edca; stroke:none;" d="M59 40L59 41L62 41L59 40z"/>
<path style="fill:#fefffe; stroke:none;" d="M62 40.4676C21.8011 48.0022 35.2409 110.192 75 101.61C113.767 93.2415 100.658 33.2217 62 40.4676z"/>
<path style="fill:#e3edca; stroke:none;" d="M73.6667 40.3333L74.3333 40.6667L73.6667 40.3333M104 40L104 41L113 41L104 40z"/>
<path style="fill:#1f201d; stroke:none;" d="M114 40L115 41L114 40z"/>
<path style="fill:#e3edca; stroke:none;" d="M135 40L136 41L135 40M57 41L58 42L57 41M76.6667 41.3333L77.3333 41.6667L76.6667 41.3333z"/>
<path style="fill:#1f201d; stroke:none;" d="M78 41L79 42L78 41z"/>
<path style="fill:#e3edca; stroke:none;" d="M96 41L96 42L99 42L96 41z"/>
<path style="fill:#1f201d; stroke:none;" d="M99.6667 41.3333L100.333 41.6667L99.6667 41.3333z"/>
<path style="fill:#e3edca; stroke:none;" d="M101 41L102 42L101 41M134 41L135 42L134 41M1 45L2 45L6 43L1 45M9 42L9 43L12 43L9 42M15 42L15 43L19 43L15 42z"/>
<path style="fill:#1f201d; stroke:none;" d="M54 42L55 43L54 42z"/>
<path style="fill:#e3edca; stroke:none;" d="M55 42L56 43L55 42M80.6667 42.3333L81.3333 42.6667L80.6667 42.3333M133 42L134 43L133 42z"/>
<path style="fill:#d1dea8; stroke:none;" d="M2 43L3 44L2 43z"/>
<path style="fill:#1f201d; stroke:none;" d="M25.6667 43.3333L26.3333 43.6667L25.6667 43.3333z"/>
<path style="fill:#e3edca; stroke:none;" d="M27 43L28 44L27 43z"/>
<path style="fill:#1f201d; stroke:none;" d="M28 43L29 44L28 43z"/>
<path style="fill:#e3edca; stroke:none;" d="M29 43L30 44L29 43z"/>
<path style="fill:#1f201d; stroke:none;" d="M30 43L30 44L34 44L30 43z"/>
<path style="fill:#e3edca; stroke:none;" d="M34 43L34 44L40 44L34 43M52 43L53 44L52 43M82 43L83 44L82 43M51 44L52 45L51 44M84 44L85 45L84 44M132 44L133 45L132 44M49 45L48 47L50 47L49 45M85 45L86 46L85 45M131 45L132 46L131 45M130 46L131 47L130 46M4 47L5 48L4 47M47 47L48 48L47 47M88 47L89 48L88 47M129 47L130 48L129 47M46 48L47 49L46 48M89 48L90 49L89 48M128 48L129 49L128 48M45 49L46 50L45 49M90 49L91 50L90 49M127 49L128 50L127 49M7 50L8 51L7 50M44 50L45 51L44 50M91 50L92 51L91 50M126 50L127 51L126 50M8 51L9 52L8 51M43 51L44 52L43 51M92 51L93 52L92 51M125 51L126 52L125 51M9 52L10 53L9 52M42 52L43 53L42 52M124 52L125 53L124 52M11 53L12 54L11 53M123 53L124 54L123 53M12 54L13 55L12 54M41 54L42 55L41 54M122 54L123 55L122 54M13 55L14 56L13 55z"/>
<path style="fill:#1f201d; stroke:none;" d="M95 55L96 56L95 55z"/>
<path style="fill:#e3edca; stroke:none;" d="M14 56L15 57L14 56M40 56L41 57L40 56M95 56L96 57L95 56M120 56L121 57L120 56M15 57L16 58L15 57M39 57L40 58L39 57M118 57L119 58L118 57M16 58L17 59L16 58M96 58L97 59L96 58M117 58L118 59L117 58M18 59L19 60L18 59M116 59L117 60L116 59M19 60L20 61L19 60M38 60L39 61L38 60M97 60L98 61L97 60M115 60L116 61L115 60M20 61L21 62L20 61M114 61L115 62L114 61M21 62L22 63L21 62z"/>
<path style="fill:#1f201d; stroke:none;" d="M98 62L98 65L99 65L98 62z"/>
<path style="fill:#e3edca; stroke:none;" d="M113 62L114 63L113 62M22 63L23 64L22 63z"/>
<path style="fill:#1f201d; stroke:none;" d="M37 63L38 64L37 63z"/>
<path style="fill:#e3edca; stroke:none;" d="M112 63L113 64L112 63M24 64L25 65L24 64M37 64L38 65L37 64M111 64L112 65L111 64M25 65L26 66L25 65M98 65L99 66L98 65M110 65L111 66L110 65M26 66L27 67L26 66z"/>
<path style="fill:#d1dea8; stroke:none;" d="M109 66L110 67L109 66z"/>
<path style="fill:#e3edca; stroke:none;" d="M27 67L28 68L27 67M109 67L110 68L109 67M28 68L29 69L28 68M29 69L30 70L29 69M109 69L110 70L109 69M30 70L31 71L30 70M110 70L111 71L110 70M111 71L112 72L111 71M29 72L30 73L29 72M112 72L113 73L112 72M28 73L29 74L28 73M113 73L114 74L113 73M114 74L115 75L114 74M26 75L27 76L26 75M115 75L116 76L115 75M25 76L26 77L25 76M37 76L38 77L37 76M98.3333 76.6667L98.6667 77.3333L98.3333 76.6667M24 77L25 78L24 77M118 77L119 78L118 77M23 78L24 79L23 78z"/>
<path style="fill:#1f201d; stroke:none;" d="M98 78L99 79L98 78z"/>
<path style="fill:#e3edca; stroke:none;" d="M119 78L120 79L119 78M22 79L23 80L22 79M120 79L121 80L120 79M21 80L22 81L21 80M121 80L122 81L121 80M20 81L21 82L20 81M38 81L39 82L38 81z"/>
<path style="fill:#1f201d; stroke:none;" d="M97 81L98 82L97 81z"/>
<path style="fill:#e3edca; stroke:none;" d="M122 81L123 82L122 81M96 83L97 84L96 83M125 83L126 84L125 83M126 84L127 85L126 84M127 85L128 86L127 85M14 86L15 87L14 86M95 86L96 87L95 86M128 86L129 87L128 86M13 87L14 88L13 87M41 87L42 88L41 87M94 87L95 88L94 87M12 88L13 89L12 88M131 88L132 89L131 88M11 89L12 90L11 89M42 89L43 90L42 89M132 89L133 90L132 89M10 90L11 91L10 90M43 90L44 91L43 90M92 90L93 91L92 90M133 90L134 91L133 90M9 91L10 92L9 91M44 91L45 92L44 91M91 91L92 92L91 91M134 91L135 92L134 91M8 92L9 93L8 92M45 92L46 93L45 92M90 92L91 93L90 92M135 92L136 93L135 92M7 93L8 94L7 93M46 93L47 94L46 93M89 93L90 94L89 93M136 93L137 94L136 93M6 94L7 95L6 94M47 94L48 95L47 94M88 94L89 95L88 94M137 94L131 96L131 97C133.575 96.9579 137.542 97.2855 137 94M5 95L6 96L5 95M48 95L49 96L48 95M87 95L88 96L87 95z"/>
<path style="fill:#d1dea8; stroke:none;" d="M136 95L137 96L136 95z"/>
<path style="fill:#e3edca; stroke:none;" d="M4 96L5 97L4 96M49 96L50 97L49 96M86 96L87 97L86 96M98.6667 96.3333L99.3333 96.6667L98.6667 96.3333M105.667 96.3333L106.333 96.6667L105.667 96.3333M111 96L111 97L114 97L111 96M117 96L117 97L130 97L117 96M3.33333 97.6667L3.66667 98.3333L3.33333 97.6667M41.6667 97.3333L42.3333 97.6667L41.6667 97.3333M50 97L51 98L50 97M85 97L86 98L85 97z"/>
<path style="fill:#1f201d; stroke:none;" d="M26.6667 98.3333L27.3333 98.6667L26.6667 98.3333z"/>
<path style="fill:#e3edca; stroke:none;" d="M28 98L28 99L40 99L28 98M52.6667 98.3333L53.3333 98.6667L52.6667 98.3333M82.6667 98.3333L83.3333 98.6667L82.6667 98.3333M97 98L98 99L97 98z"/>
<path style="fill:#d1dea8; stroke:none;" d="M3.66667 99.3333L4.33333 99.6667L3.66667 99.3333z"/>
<path style="fill:#1f201d; stroke:none;" d="M15.6667 99.3333L16.3333 99.6667L15.6667 99.3333z"/>
<path style="fill:#e3edca; stroke:none;" d="M17 99L17 100L25 100L17 99z"/>
<path style="fill:#1f201d; stroke:none;" d="M43 99L44 100L43 99z"/>
<path style="fill:#e3edca; stroke:none;" d="M54 99L55 100L54 99M80.6667 99.3333L81.3333 99.6667L80.6667 99.3333z"/>
<path style="fill:#1f201d; stroke:none;" d="M97 99L97 104L98 104L97 99z"/>
<path style="fill:#e3edca; stroke:none;" d="M3 100L3 101L13 101L3 100M56 100L57 101L56 100M78.6667 100.333L79.3333 100.667L78.6667 100.333M59 101L60 102L59 101z"/>
<path style="fill:#1f201d; stroke:none;" d="M76 101L77 102L76 101z"/>
<path style="fill:#e3edca; stroke:none;" d="M98 105L98 109L99 109L98 105M69 109L70 110L69 109M71 109L72 110L71 109z"/>
<path style="fill:#1f201d; stroke:none;" d="M67 110L68 111L67 110z"/>
<path style="fill:#e3edca; stroke:none;" d="M73 111L74 112L73 111z"/>
<path style="fill:#1f201d; stroke:none;" d="M98 111L98 120L99 120L98 111z"/>
<path style="fill:#e3edca; stroke:none;" d="M66 112L67 113L66 112M74 112L75 113L74 112M65 113L66 114L65 113M64 115L65 116L64 115M77 115L78 116L77 115M63 116L64 117L63 116M78 116L79 117L78 116M62 117L63 118L62 117M79 117L80 118L79 117M61 118L62 119L61 118M80 118L81 119L80 118z"/>
<path style="fill:#d1dea8; stroke:none;" d="M60 119L61 120L60 119z"/>
<path style="fill:#e3edca; stroke:none;" d="M81 119L82 120L81 119M60 120L61 121L60 120M82 120L83 121L82 120M59 121L60 122L59 121M99.3333 121.667L99.6667 122.333L99.3333 121.667M58 122L59 123L58 122M84 122L85 123L84 122M57 123L58 124L57 123M85 123L86 124L85 123z"/>
<path style="fill:#1f201d; stroke:none;" d="M99 123L99 135L100 135L99 123z"/>
<path style="fill:#e3edca; stroke:none;" d="M42.3333 124.667L42.6667 125.333L42.3333 124.667M56 124L57 125L56 124M86 124L87 125L86 124M55 125L56 126L55 125M87 125L88 126L87 125M54 126L55 127L54 126M88 126L89 127L88 126M89 127L90 128L89 127M90 128L91 129L90 128M42 129L42 135L43 135L42 129M52 129L53 130L52 129M91 129L92 130L91 129M92 130L93 131L92 130M93 131L94 132L93 131M94 132L95 133L94 132M49 133L50 134L49 133M95 133L96 134L95 133M48 134L49 135L48 134M96 134L97 135L96 134M47 135L48 136L47 135M97 135L98 136L97 135M99 135L100 136L99 135M42 136L45 139L45 138L42 136M46 136L47 137L46 136z"/>
<path style="fill:#d1dea8; stroke:none;" d="M43 137L44 138L43 137z"/>
<path style="fill:#e3edca; stroke:none;" d="M45 137L46 138L45 137z"/>
</svg>
