<?xml version="1.0" standalone="yes"?>
<svg xmlns="http://www.w3.org/2000/svg" width="125" height="48">
<path style="fill:#fcfcfc; stroke:none;" d="M0 0L0 48L125 48L125 0L0 0z"/>
<path style="fill:#b0afae; stroke:none;" d="M35 6L36 6C41.2131 0.676628 56.4764 1.01377 60 8C63.1579 -1.9724 38.5491 -1.03682 35 6z"/>
<path style="fill:#898581; stroke:none;" d="M36 4L36 5C43.502 3.21392 52.8494 2.97007 60 6C55.0949 0.991165 42.3899 2.11123 36 4z"/>
<path style="fill:#666564; stroke:none;" d="M36 7L45 5C41.4755 3.52468 38.1441 3.69275 36 7z"/>
<path style="fill:#47423d; stroke:none;" d="M4 29L4 31C11.1844 31 29.5146 34.3305 35.2971 29.9722C41.5757 25.24 37.2705 2.87485 50.8665 8.6034C58.6429 11.8799 55.0102 25.6273 61.4298 29.9722C71.327 36.6709 84.9471 23.5552 85 42C95.7557 41.442 108.296 34.538 118 30C110.455 23.0246 94.9755 19.0645 85 17C84.9711 27.0725 79.0773 30.3943 69.0548 27.6821C59.3984 25.069 64.8886 7.81784 55.892 4.91204C53.7761 4.22865 51.1935 4.79356 49 4.71528C29.9704 4.03613 39.505 18.1219 29.348 27.3966C24.665 31.6728 10.0748 29 4 29z"/>
<path style="fill:#666564; stroke:none;" d="M47 4L47 5L54 5L47 4M56.6667 4.33333L57.3333 4.66667L56.6667 4.33333M58 5L59 6L58 5z"/>
<path style="fill:#898581; stroke:none;" d="M35.3333 6.66667L35.6667 7.33333L35.3333 6.66667z"/>
<path style="fill:#666564; stroke:none;" d="M59.3333 6.66667L59.6667 7.33333L59.3333 6.66667z"/>
<path style="fill:#b0afae; stroke:none;" d="M34.3333 7.66667L34.6667 8.33333L34.3333 7.66667z"/>
<path style="fill:#666564; stroke:none;" d="M35.3333 8.66667L35.6667 9.33333L35.3333 8.66667M41 12L42 12C45.2314 8.70021 49.2502 8.15974 53 11C53.8397 5.90613 42.5651 7.43062 41 12z"/>
<path style="fill:#898581; stroke:none;" d="M60.3333 8.66667L60.6667 9.33333L60.3333 8.66667M34.3333 9.66667L34.6667 10.3333L34.3333 9.66667M42 10L42 11L54 12C51.1169 8.00227 46.3519 8.71363 42 10z"/>
<path style="fill:#b0afae; stroke:none;" d="M61.3333 9.66667L61.6667 10.3333L61.3333 9.66667M33 10L33 13L34 13L33 10M43 10L43 11L52 11L43 10z"/>
<path style="fill:#666564; stroke:none;" d="M60 10L61 11L60 10M34 11L34 14L35 14L34 11z"/>
<path style="fill:#b0afae; stroke:none;" d="M42.3333 11.6667L42.6667 12.3333L42.3333 11.6667M52 11L53 12L52 11z"/>
<path style="fill:#898581; stroke:none;" d="M61.3333 11.6667L61.6667 12.3333L61.3333 11.6667M41.3333 12.6667L41.6667 13.3333L41.3333 12.6667z"/>
<path style="fill:#b0afae; stroke:none;" d="M53.3333 12.6667L53.6667 13.3333L53.3333 12.6667z"/>
<path style="fill:#666564; stroke:none;" d="M54 12L55 13L54 12z"/>
<path style="fill:#b0afae; stroke:none;" d="M62.3333 12.6667L62.6667 13.3333L62.3333 12.6667z"/>
<path style="fill:#898581; stroke:none;" d="M33.3333 13.6667L33.6667 14.3333L33.3333 13.6667M54.3333 13.6667L54.6667 14.3333L54.3333 13.6667z"/>
<path style="fill:#666564; stroke:none;" d="M61.3333 13.6667L61.6667 14.3333L61.3333 13.6667z"/>
<path style="fill:#b0afae; stroke:none;" d="M84 13L83 24L66 22L65 22C67.3302 26.2259 79.4414 28.8512 82.9722 24.3966C84.8373 22.0436 84.3054 16.9177 85 14L122 30C110.544 34.7 96.466 43.5652 84 44C86.9431 47.2336 91.5572 44.3214 95 42.8495C104.629 38.7327 115.41 36.1103 124 30C117.07 21.4493 94.786 14.8334 84 13M32 14L32 18L33 18L32 14z"/>
<path style="fill:#666564; stroke:none;" d="M40.3333 14.6667L40.6667 15.3333L40.3333 14.6667z"/>
<path style="fill:#b0afae; stroke:none;" d="M41 14L41 17L42 17L41 14z"/>
<path style="fill:#898581; stroke:none;" d="M62.3333 14.6667L62.6667 15.3333L62.3333 14.6667M85 14L84 18L85 18C92.129 14.0937 106.288 24.6295 114 26L85 14z"/>
<path style="fill:#666564; stroke:none;" d="M33 15L33 18L34 18L33 15z"/>
<path style="fill:#b0afae; stroke:none;" d="M54 15L54 18L55 18L54 15z"/>
<path style="fill:#666564; stroke:none;" d="M55.3333 15.6667L55.6667 16.3333L55.3333 15.6667z"/>
<path style="fill:#b0afae; stroke:none;" d="M63.3333 15.6667L63.6667 16.3333L63.3333 15.6667z"/>
<path style="fill:#898581; stroke:none;" d="M40.3333 16.6667L40.6667 17.3333L40.3333 16.6667z"/>
<path style="fill:#666564; stroke:none;" d="M62.3333 16.6667L62.6667 17.3333L62.3333 16.6667M85 16L85 17L91 18L91 17L85 16z"/>
<path style="fill:#898581; stroke:none;" d="M55.3333 17.6667L55.6667 18.3333L55.3333 17.6667M63.3333 17.6667L63.6667 18.3333L63.3333 17.6667M32 18L33 19L32 18z"/>
<path style="fill:#666564; stroke:none;" d="M39 18L40 19L39 18z"/>
<path style="fill:#b0afae; stroke:none;" d="M40 18L40 21L41 21L40 18z"/>
<path style="fill:#666564; stroke:none;" d="M56.3333 18.6667L56.6667 19.3333L56.3333 18.6667M84 18C83.8691 29.0772 73.3832 28.5522 65 25C69.475 31.9026 88.9553 29.8356 84 18M91 18L91 19L94 19L91 18z"/>
<path style="fill:#b0afae; stroke:none;" d="M31.3333 19.6667L31.6667 20.3333L31.3333 19.6667z"/>
<path style="fill:#666564; stroke:none;" d="M32.3333 19.6667L32.6667 20.3333L32.3333 19.6667z"/>
<path style="fill:#898581; stroke:none;" d="M39 19L39 22L40 22L39 19z"/>
<path style="fill:#b0afae; stroke:none;" d="M55 19L56 20L55 19z"/>
<path style="fill:#666564; stroke:none;" d="M63 19L63 22L64 22L63 19z"/>
<path style="fill:#b0afae; stroke:none;" d="M64.3333 19.6667L64.6667 20.3333L64.3333 19.6667z"/>
<path style="fill:#666564; stroke:none;" d="M94 19L94 20L98 21L98 20L94 19z"/>
<path style="fill:#898581; stroke:none;" d="M56 20L57 21L56 20M31.3333 21.6667L31.6667 22.3333L31.3333 21.6667z"/>
<path style="fill:#b0afae; stroke:none;" d="M56 21L56 24L57 24L56 21z"/>
<path style="fill:#666564; stroke:none;" d="M57.3333 21.6667L57.6667 22.3333L57.3333 21.6667z"/>
<path style="fill:#898581; stroke:none;" d="M64.3333 21.6667L64.6667 22.3333L64.3333 21.6667z"/>
<path style="fill:#666564; stroke:none;" d="M99.6667 21.3333L100.333 21.6667L99.6667 21.3333z"/>
<path style="fill:#b0afae; stroke:none;" d="M30 22C22.4049 28.2061 7.1195 20.2369 2 29C7.091 26.7512 30.807 27.4104 30 22z"/>
<path style="fill:#666564; stroke:none;" d="M38.3333 22.6667L38.6667 23.3333L38.3333 22.6667z"/>
<path style="fill:#b0afae; stroke:none;" d="M39 22L39 25L40 25L39 22z"/>
<path style="fill:#666564; stroke:none;" d="M102.667 22.3333L103.333 22.6667L102.667 22.3333M31.3333 23.6667L31.6667 24.3333L31.3333 23.6667z"/>
<path style="fill:#898581; stroke:none;" d="M57.3333 23.6667L57.6667 24.3333L57.3333 23.6667z"/>
<path style="fill:#666564; stroke:none;" d="M64 23L65 24L64 23M105 23L105 24L109 25L109 24L105 23z"/>
<path style="fill:#898581; stroke:none;" d="M30 24C22.2884 29.8423 7.42358 21.0681 2 31L3 31C7.7015 25.6552 17.4462 28.4289 24 27.9398C26.7433 27.7351 30.5114 27.1701 30 24M38.3333 24.6667L38.6667 25.3333L38.3333 24.6667z"/>
<path style="fill:#666564; stroke:none;" d="M58.3333 24.6667L58.6667 25.3333L58.3333 24.6667z"/>
<path style="fill:#898581; stroke:none;" d="M65 24L66 25L65 24z"/>
<path style="fill:#b0afae; stroke:none;" d="M57.3333 25.6667L57.6667 26.3333L57.3333 25.6667z"/>
<path style="fill:#898581; stroke:none;" d="M66 25L67 26L66 25M83 25L84 26L83 25z"/>
<path style="fill:#666564; stroke:none;" d="M109.667 25.3333L110.333 25.6667L109.667 25.3333M30 26L31 27L30 26M37 26L38 27L37 26z"/>
<path style="fill:#b0afae; stroke:none;" d="M38 26L38 29L39 29L38 26z"/>
<path style="fill:#898581; stroke:none;" d="M58.3333 26.6667L58.6667 27.3333L58.3333 26.6667M67 26L67 27L83 27L67 26z"/>
<path style="fill:#666564; stroke:none;" d="M113 26L113 27L118 30L100 37L100 38L120 30L120 29L113 26z"/>
<path style="fill:#898581; stroke:none;" d="M115.667 26.3333L116.333 26.6667L115.667 26.3333z"/>
<path style="fill:#666564; stroke:none;" d="M4 28L4 29C10.1703 29 25.8301 31.7719 30 27L4 28z"/>
<path style="fill:#898581; stroke:none;" d="M37 27L37 30L38 30L37 27M117 27L117 28L119 31L122 30L117 27z"/>
<path style="fill:#b0afae; stroke:none;" d="M58.3333 28.6667L58.6667 29.3333L58.3333 28.6667z"/>
<path style="fill:#666564; stroke:none;" d="M59 28C64.172 37.3793 80.6611 26.0012 84 37L85 37C83.7735 26.3447 66.3139 33.2807 59 28M3 29C5.08024 36.1115 33.7344 35.1742 37 29L36 29C30.0191 33.5311 9.47533 32.6012 3 29z"/>
<path style="fill:#b0afae; stroke:none;" d="M37 30C31.4826 36.2523 9.10341 36.719 3 31L2 31C4.36063 38.1125 23.5167 35.2614 30 34.9807C33.4906 34.8296 37.0868 33.9151 37 30z"/>
<path style="fill:#898581; stroke:none;" d="M59 30C64.6962 35.8167 76.4099 32.1929 84 34L84 33L59 30M36 31L37 32L36 31z"/>
<path style="fill:#b0afae; stroke:none;" d="M59 31C62.925 37.7185 76.1437 35 83 35L83 40L84 40C83.6254 28.5934 67.0574 34.4141 59 31z"/>
<path style="fill:#898581; stroke:none;" d="M117.667 31.3333L118.333 31.6667L117.667 31.3333M3 32L3 33C12.6533 35.2982 26.3467 35.2982 36 33L36 32L3 32M114 32L114 33L117 33L114 32M112.667 33.3333L113.333 33.6667L112.667 33.3333M109 34L109 35L112 35L109 34M104 36L104 37L109 36L104 36M84 37L85 45L102 39L102 38L85 44L84 37M102.667 37.3333L103.333 37.6667L102.667 37.3333z"/>
<path style="fill:#666564; stroke:none;" d="M97.6667 38.3333L98.3333 38.6667L97.6667 38.3333M92 40L92 41L97 40L92 40z"/>
<path style="fill:#b0afae; stroke:none;" d="M83 41L84 42L83 41z"/>
<path style="fill:#666564; stroke:none;" d="M90.6667 41.3333L91.3333 41.6667L90.6667 41.3333M85 44L89 43L85 44z"/>
</svg>
