<?xml version="1.0" standalone="yes"?>
<svg xmlns="http://www.w3.org/2000/svg" width="194" height="63">
<path style="fill:#fefefe; stroke:none;" d="M0 0L0 63L194 63L194 0L0 0z"/>
<path style="fill:#9ea4a6; stroke:none;" d="M120 1L120 19L121 19L120 1z"/>
<path style="fill:#727876; stroke:none;" d="M121.667 1.33333L122.333 1.66667L121.667 1.33333z"/>
<path style="fill:#9ea4a6; stroke:none;" d="M123 1L124 2L123 1z"/>
<path style="fill:#596161; stroke:none;" d="M121 2L122 3L121 2z"/>
<path style="fill:#312f28; stroke:none;" d="M122 2C118.282 15.7077 124.282 24 106 24L106 39C123.409 39 118.151 47.3669 121 61C138.672 54.183 156.101 46.3288 174 40.169C177.564 38.9426 190.377 36.187 191.079 31.8835C191.784 27.5576 178.133 23.8063 175 22.7454C157.039 16.6636 140.055 7.88485 122 2z"/>
<path style="fill:#596161; stroke:none;" d="M123.667 2.33333L124.333 2.66667L123.667 2.33333z"/>
<path style="fill:#727876; stroke:none;" d="M125 2L126 3L125 2z"/>
<path style="fill:#9ea4a6; stroke:none;" d="M126 2L127 3L126 2z"/>
<path style="fill:#596161; stroke:none;" d="M126 3L127 4L126 3z"/>
<path style="fill:#727876; stroke:none;" d="M127.667 3.33333L128.333 3.66667L127.667 3.33333z"/>
<path style="fill:#9ea4a6; stroke:none;" d="M129 3L130 4L129 3z"/>
<path style="fill:#596161; stroke:none;" d="M129 4L130 5L129 4z"/>
<path style="fill:#727876; stroke:none;" d="M130 4L131 5L130 4z"/>
<path style="fill:#9ea4a6; stroke:none;" d="M131 4L132 5L131 4z"/>
<path style="fill:#596161; stroke:none;" d="M131 5L132 6L131 5z"/>
<path style="fill:#727876; stroke:none;" d="M132 5L133 6L132 5z"/>
<path style="fill:#9ea4a6; stroke:none;" d="M133 5L134 6L133 5z"/>
<path style="fill:#596161; stroke:none;" d="M121 6L122 7L121 6M133 6L134 7L133 6z"/>
<path style="fill:#727876; stroke:none;" d="M134.667 6.33333L135.333 6.66667L134.667 6.33333z"/>
<path style="fill:#9ea4a6; stroke:none;" d="M136 6L137 7L136 6z"/>
<path style="fill:#596161; stroke:none;" d="M136 7L137 8L136 7z"/>
<path style="fill:#727876; stroke:none;" d="M137.667 7.33333L138.333 7.66667L137.667 7.33333z"/>
<path style="fill:#9ea4a6; stroke:none;" d="M139 7L140 8L139 7z"/>
<path style="fill:#596161; stroke:none;" d="M139 8L140 9L139 8z"/>
<path style="fill:#727876; stroke:none;" d="M140 8L141 9L140 8z"/>
<path style="fill:#9ea4a6; stroke:none;" d="M141 8L142 9L141 8z"/>
<path style="fill:#596161; stroke:none;" d="M141 9L142 10L141 9z"/>
<path style="fill:#727876; stroke:none;" d="M142 9L143 10L142 9z"/>
<path style="fill:#9ea4a6; stroke:none;" d="M143.667 9.33333L144.333 9.66667L143.667 9.33333z"/>
<path style="fill:#596161; stroke:none;" d="M144 10L145 11L144 10z"/>
<path style="fill:#727876; stroke:none;" d="M145 10L146 11L145 10z"/>
<path style="fill:#9ea4a6; stroke:none;" d="M146 10L146 11L150 12L150 11L146 10z"/>
<path style="fill:#727876; stroke:none;" d="M147 11L148 12L147 11M149.667 12.3333L150.333 12.6667L149.667 12.3333z"/>
<path style="fill:#9ea4a6; stroke:none;" d="M151 12L151 13L172 21L172 20L151 12z"/>
<path style="fill:#596161; stroke:none;" d="M151.667 13.3333L152.333 13.6667L151.667 13.3333M154 14L155 15L154 14M156 15L157 16L156 15z"/>
<path style="fill:#727876; stroke:none;" d="M157 15L158 16L157 15z"/>
<path style="fill:#596161; stroke:none;" d="M158.667 16.3333L159.333 16.6667L158.667 16.3333M161.667 17.3333L162.333 17.6667L161.667 17.3333M163.667 18.3333L164.333 18.6667L163.667 18.3333z"/>
<path style="fill:#727876; stroke:none;" d="M120.333 19.6667L120.667 20.3333L120.333 19.6667z"/>
<path style="fill:#596161; stroke:none;" d="M165 19L165 20L168 20L165 19M168.667 20.3333L169.333 20.6667L168.667 20.3333z"/>
<path style="fill:#9ea4a6; stroke:none;" d="M119 21L118 23L119 21z"/>
<path style="fill:#596161; stroke:none;" d="M120 21L121 22L120 21M170 21L170 22L173 22L170 21z"/>
<path style="fill:#9ea4a6; stroke:none;" d="M173.667 21.3333L174.333 21.6667L173.667 21.3333M1 22L2 23L1 22z"/>
<path style="fill:#727876; stroke:none;" d="M2 22L1 38L2 38L2 22z"/>
<path style="fill:#596161; stroke:none;" d="M3 22L3 23L17 23L17 30C21.0058 20.3488 8.9925 22 3 22z"/>
<path style="fill:#727876; stroke:none;" d="M17 22L18 23L17 22z"/>
<path style="fill:#9ea4a6; stroke:none;" d="M18 22L18 39L19 39L18 22M35 22L35 27L36 27L35 22z"/>
<path style="fill:#727876; stroke:none;" d="M36 22L36 23L52 23L52 38C58.2293 23.1548 47.3972 22 36 22z"/>
<path style="fill:#9ea4a6; stroke:none;" d="M52 22L53 23L52 22M70 22L71 40L72 40L70 22z"/>
<path style="fill:#727876; stroke:none;" d="M71 22L71 23L83 23L71 22z"/>
<path style="fill:#9ea4a6; stroke:none;" d="M83 22L84 23L83 22z"/>
<path style="fill:#727876; stroke:none;" d="M119 22L120 23L119 22z"/>
<path style="fill:#596161; stroke:none;" d="M174 22L175 23L174 22z"/>
<path style="fill:#727876; stroke:none;" d="M175 22L176 23L175 22z"/>
<path style="fill:#9ea4a6; stroke:none;" d="M176 22L177 23L176 22z"/>
<path style="fill:#312f28; stroke:none;" d="M2 23L2 38L17 38L17 23L2 23z"/>
<path style="fill:#596161; stroke:none;" d="M36 23L36 26L37 26L36 23z"/>
<path style="fill:#312f28; stroke:none;" d="M37 23L36 38L52 38L52 23L37 23z"/>
<path style="fill:#596161; stroke:none;" d="M71 23L71 39L72 39L71 23z"/>
<path style="fill:#312f28; stroke:none;" d="M72 23L72 39L86 39L86 24L72 23z"/>
<path style="fill:#596161; stroke:none;" d="M83 23L83 24L86 24L86 39L87 39C87 33.7382 89.023 24.999 83 23z"/>
<path style="fill:#727876; stroke:none;" d="M86 23L87 24L86 23M105 23L106 24L105 23z"/>
<path style="fill:#596161; stroke:none;" d="M106 23L106 24L119 24L106 23M177 23L178 24L177 23z"/>
<path style="fill:#9ea4a6; stroke:none;" d="M178 23L178 24L182 25L182 24L178 23z"/>
<path style="fill:#596161; stroke:none;" d="M105 24L106 40L107 40L105 24M179 24L180 25L179 24M181.667 25.3333L182.333 25.6667L181.667 25.3333z"/>
<path style="fill:#9ea4a6; stroke:none;" d="M183 25L183 26L187 27L187 26L183 25z"/>
<path style="fill:#596161; stroke:none;" d="M184 26L185 27L184 26z"/>
<path style="fill:#727876; stroke:none;" d="M35 27L35 30L36 30L35 27z"/>
<path style="fill:#596161; stroke:none;" d="M186.667 27.3333L187.333 27.6667L186.667 27.3333z"/>
<path style="fill:#727876; stroke:none;" d="M188 27L189 28L188 27z"/>
<path style="fill:#9ea4a6; stroke:none;" d="M189 27L190 28L189 27z"/>
<path style="fill:#596161; stroke:none;" d="M189 28L190 29L189 28z"/>
<path style="fill:#727876; stroke:none;" d="M190 28L191 29L190 28z"/>
<path style="fill:#9ea4a6; stroke:none;" d="M191 28L192 29L191 28z"/>
<path style="fill:#596161; stroke:none;" d="M191 29L192 30L191 29z"/>
<path style="fill:#727876; stroke:none;" d="M192 29L192 32L193 32L192 29z"/>
<path style="fill:#9ea4a6; stroke:none;" d="M35 30L35 39L36 39L35 30z"/>
<path style="fill:#596161; stroke:none;" d="M17 31L18 32L17 31M192 32L191 34L192 32M17 33L17 38L2 38L2 39C6.70208 39 20.1001 41.1598 17 33z"/>
<path style="fill:#727876; stroke:none;" d="M192 33L193 34L192 33z"/>
<path style="fill:#596161; stroke:none;" d="M189 34L190 35L189 34z"/>
<path style="fill:#727876; stroke:none;" d="M190 34L191 35L190 34z"/>
<path style="fill:#9ea4a6; stroke:none;" d="M191 34L192 35L191 34z"/>
<path style="fill:#596161; stroke:none;" d="M186 35L187 36L186 35z"/>
<path style="fill:#727876; stroke:none;" d="M187 35L188 36L187 35z"/>
<path style="fill:#9ea4a6; stroke:none;" d="M188.667 35.3333L189.333 35.6667L188.667 35.3333z"/>
<path style="fill:#596161; stroke:none;" d="M183.667 36.3333L184.333 36.6667L183.667 36.3333z"/>
<path style="fill:#9ea4a6; stroke:none;" d="M185.667 36.3333L186.333 36.6667L185.667 36.3333z"/>
<path style="fill:#596161; stroke:none;" d="M181 37L182 38L181 37z"/>
<path style="fill:#9ea4a6; stroke:none;" d="M182.667 37.3333L183.333 37.6667L182.667 37.3333M1 38L2 39L1 38z"/>
<path style="fill:#727876; stroke:none;" d="M17 38L18 39L17 38z"/>
<path style="fill:#596161; stroke:none;" d="M36 38L36 39L52 39L36 38z"/>
<path style="fill:#9ea4a6; stroke:none;" d="M52 38L53 39L52 38z"/>
<path style="fill:#596161; stroke:none;" d="M178 38L179 39L178 38z"/>
<path style="fill:#727876; stroke:none;" d="M179 38L180 39L179 38z"/>
<path style="fill:#9ea4a6; stroke:none;" d="M180.667 38.3333L181.333 38.6667L180.667 38.3333z"/>
<path style="fill:#727876; stroke:none;" d="M72 39L72 40L79 40L72 39z"/>
<path style="fill:#596161; stroke:none;" d="M79 39L80 40L79 39z"/>
<path style="fill:#727876; stroke:none;" d="M80 39L80 40L87 40L80 39M105 39L106 40L105 39M107 39L108 40L107 39z"/>
<path style="fill:#596161; stroke:none;" d="M108 39L108 40L119 40L108 39M176 39L177 40L176 39z"/>
<path style="fill:#9ea4a6; stroke:none;" d="M177.667 39.3333L178.333 39.6667L177.667 39.3333M118 40L120 62L121 62L118 40z"/>
<path style="fill:#727876; stroke:none;" d="M119 40L120 41L119 40z"/>
<path style="fill:#596161; stroke:none;" d="M165 43L165 44L174 41L165 43z"/>
<path style="fill:#727876; stroke:none;" d="M174 40L175 41L174 40z"/>
<path style="fill:#9ea4a6; stroke:none;" d="M175 40L176 41L175 40M172.667 41.3333L173.333 41.6667L172.667 41.3333M170 42L171 43L170 42M167.667 43.3333L168.333 43.6667L167.667 43.3333z"/>
<path style="fill:#596161; stroke:none;" d="M162.667 44.3333L163.333 44.6667L162.667 44.3333z"/>
<path style="fill:#9ea4a6; stroke:none;" d="M164.667 44.3333L165.333 44.6667L164.667 44.3333z"/>
<path style="fill:#596161; stroke:none;" d="M160 45L161 46L160 45z"/>
<path style="fill:#727876; stroke:none;" d="M161 45L162 46L161 45z"/>
<path style="fill:#9ea4a6; stroke:none;" d="M162.667 45.3333L163.333 45.6667L162.667 45.3333z"/>
<path style="fill:#596161; stroke:none;" d="M158 46L159 47L158 46z"/>
<path style="fill:#727876; stroke:none;" d="M159 46L160 47L159 46z"/>
<path style="fill:#9ea4a6; stroke:none;" d="M160.667 46.3333L161.333 46.6667L160.667 46.3333z"/>
<path style="fill:#596161; stroke:none;" d="M152 48L152 49L157 48L152 48z"/>
<path style="fill:#9ea4a6; stroke:none;" d="M157 47L157 48L160 48L157 47M154 48L154 49L157 49L154 48z"/>
<path style="fill:#596161; stroke:none;" d="M150 49L151 50L150 49z"/>
<path style="fill:#727876; stroke:none;" d="M151 49L152 50L151 49z"/>
<path style="fill:#9ea4a6; stroke:none;" d="M152.667 49.3333L153.333 49.6667L152.667 49.3333z"/>
<path style="fill:#596161; stroke:none;" d="M148 50L149 51L148 50z"/>
<path style="fill:#727876; stroke:none;" d="M149 50L150 51L149 50z"/>
<path style="fill:#9ea4a6; stroke:none;" d="M150.667 50.3333L151.333 50.6667L150.667 50.3333z"/>
<path style="fill:#596161; stroke:none;" d="M145 51L146 52L145 51z"/>
<path style="fill:#727876; stroke:none;" d="M146 51L147 52L146 51z"/>
<path style="fill:#9ea4a6; stroke:none;" d="M147.667 51.3333L148.333 51.6667L147.667 51.3333z"/>
<path style="fill:#596161; stroke:none;" d="M142 52L143 53L142 52z"/>
<path style="fill:#727876; stroke:none;" d="M143 52L144 53L143 52z"/>
<path style="fill:#9ea4a6; stroke:none;" d="M144 52L144 53L147 53L144 52z"/>
<path style="fill:#727876; stroke:none;" d="M141 53L142 54L141 53z"/>
<path style="fill:#9ea4a6; stroke:none;" d="M142.667 53.3333L143.333 53.6667L142.667 53.3333z"/>
<path style="fill:#596161; stroke:none;" d="M137 54L138 55L137 54z"/>
<path style="fill:#727876; stroke:none;" d="M138.667 54.3333L139.333 54.6667L138.667 54.3333z"/>
<path style="fill:#9ea4a6; stroke:none;" d="M140 54L141 55L140 54z"/>
<path style="fill:#596161; stroke:none;" d="M120 55L121 56L120 55M135 55L136 56L135 55z"/>
<path style="fill:#727876; stroke:none;" d="M136 55L137 56L136 55z"/>
<path style="fill:#9ea4a6; stroke:none;" d="M137 55L138 56L137 55z"/>
<path style="fill:#596161; stroke:none;" d="M132 56L133 57L132 56z"/>
<path style="fill:#727876; stroke:none;" d="M133.667 56.3333L134.333 56.6667L133.667 56.3333z"/>
<path style="fill:#9ea4a6; stroke:none;" d="M135 56L136 57L135 56z"/>
<path style="fill:#596161; stroke:none;" d="M120 57L121 58L120 57M130 57L131 58L130 57z"/>
<path style="fill:#727876; stroke:none;" d="M131 57L132 58L131 57z"/>
<path style="fill:#9ea4a6; stroke:none;" d="M132 57L133 58L132 57z"/>
<path style="fill:#596161; stroke:none;" d="M127.667 58.3333L128.333 58.6667L127.667 58.3333z"/>
<path style="fill:#727876; stroke:none;" d="M129 58L130 59L129 58z"/>
<path style="fill:#9ea4a6; stroke:none;" d="M130 58L131 59L130 58z"/>
<path style="fill:#596161; stroke:none;" d="M120.333 59.6667L120.667 60.3333L120.333 59.6667M124 59L125 60L124 59z"/>
<path style="fill:#727876; stroke:none;" d="M125.667 59.3333L126.333 59.6667L125.667 59.3333z"/>
<path style="fill:#9ea4a6; stroke:none;" d="M127 59L128 60L127 59z"/>
<path style="fill:#596161; stroke:none;" d="M122 60L123 61L122 60z"/>
<path style="fill:#727876; stroke:none;" d="M123 60L124 61L123 60z"/>
<path style="fill:#9ea4a6; stroke:none;" d="M124 60L125 61L124 60z"/>
<path style="fill:#727876; stroke:none;" d="M121 61L122 62L121 61z"/>
<path style="fill:#9ea4a6; stroke:none;" d="M122 61L123 62L122 61z"/>
</svg>
