<?xml version="1.0" standalone="yes"?>
<svg xmlns="http://www.w3.org/2000/svg" width="131" height="87">
<path style="fill:#fdfdfd; stroke:none;" d="M0 0L0 87L131 87L131 0L0 0z"/>
<path style="fill:#aaaaa7; stroke:none;" d="M21 1L19 4L21 1z"/>
<path style="fill:#837d76; stroke:none;" d="M22 1L19 5L22 1z"/>
<path style="fill:#aaaaa7; stroke:none;" d="M23.3333 1.66666L23.6667 2.33334L23.3333 1.66666z"/>
<path style="fill:#5b5c5a; stroke:none;" d="M22 2L23 3L22 2z"/>
<path style="fill:#aaaaa7; stroke:none;" d="M71 6L76 3L71 6z"/>
<path style="fill:#3e3932; stroke:none;" d="M21 3L4 34L30 37L23 3L21 3z"/>
<path style="fill:#837d76; stroke:none;" d="M23.3333 3.66666L23.6667 4.33334L23.3333 3.66666z"/>
<path style="fill:#5b5c5a; stroke:none;" d="M74 3L72 6L74 3z"/>
<path style="fill:#837d76; stroke:none;" d="M75 3L75 7L76 7L75 3z"/>
<path style="fill:#5b5c5a; stroke:none;" d="M20 4L21 5L20 4z"/>
<path style="fill:#3e3932; stroke:none;" d="M74 4C67.9228 11.9704 58.7856 24.1054 57 34L82 39L74 4z"/>
<path style="fill:#aaaaa7; stroke:none;" d="M18 5L19 6L18 5z"/>
<path style="fill:#5b5c5a; stroke:none;" d="M19 5L20 6L19 5M23.3333 5.66666L23.6667 6.33334L23.3333 5.66666z"/>
<path style="fill:#aaaaa7; stroke:none;" d="M120 6L120 7L123 7L123 6L120 6z"/>
<path style="fill:#837d76; stroke:none;" d="M18 6L19 7L18 6z"/>
<path style="fill:#aaaaa7; stroke:none;" d="M24.3333 6.66666L24.6667 7.33334L24.3333 6.66666z"/>
<path style="fill:#837d76; stroke:none;" d="M71 6L72 7L71 6M120 7L120 8L123 8L120 7z"/>
<path style="fill:#aaaaa7; stroke:none;" d="M17 7L18 8L17 7z"/>
<path style="fill:#5b5c5a; stroke:none;" d="M18 7L19 8L18 7z"/>
<path style="fill:#aaaaa7; stroke:none;" d="M70 7L68 11L69 11L70 7z"/>
<path style="fill:#5b5c5a; stroke:none;" d="M71 7L72 8L71 7M75 7L76 8L75 7z"/>
<path style="fill:#aaaaa7; stroke:none;" d="M76 7L77 8L76 7z"/>
<path style="fill:#5b5c5a; stroke:none;" d="M120 8L120 9L122 10L123 10L122 7L120 8z"/>
<path style="fill:#837d76; stroke:none;" d="M17 8L18 9L17 8M24 8L24 11L25 11L24 8M70 8L71 9L70 8M76.3333 8.66666L76.6667 9.33334L76.3333 8.66666z"/>
<path style="fill:#aaaaa7; stroke:none;" d="M119 8L120 9L119 8z"/>
<path style="fill:#3e3932; stroke:none;" d="M121 8L104 37C110.617 38.3076 112.918 40.065 113 47L117 47C119.202 40.5984 122.88 40.2481 129 41C127.77 31.3203 126.717 16.0225 121 8z"/>
<path style="fill:#aaaaa7; stroke:none;" d="M123 8L123 12L124 12L123 8M16 9L15 11L16 9z"/>
<path style="fill:#5b5c5a; stroke:none;" d="M17 9L18 10L17 9z"/>
<path style="fill:#837d76; stroke:none;" d="M119 9L120 10L119 9M16 10L17 11L16 10z"/>
<path style="fill:#5b5c5a; stroke:none;" d="M69 10L70 11L69 10M76 10L77 11L76 10z"/>
<path style="fill:#aaaaa7; stroke:none;" d="M118 10L111 22L112 22L118 10z"/>
<path style="fill:#5b5c5a; stroke:none;" d="M119 10L120 11L119 10z"/>
<path style="fill:#837d76; stroke:none;" d="M15 11L16 12L15 11z"/>
<path style="fill:#5b5c5a; stroke:none;" d="M24.3333 11.6667L24.6667 12.3333L24.3333 11.6667z"/>
<path style="fill:#837d76; stroke:none;" d="M68 11L69 12L68 11z"/>
<path style="fill:#aaaaa7; stroke:none;" d="M77.3333 11.6667L77.6667 12.3333L77.3333 11.6667z"/>
<path style="fill:#837d76; stroke:none;" d="M118 11L117 13L118 11z"/>
<path style="fill:#aaaaa7; stroke:none;" d="M14 12L13 14L14 12z"/>
<path style="fill:#5b5c5a; stroke:none;" d="M15 12L16 13L15 12z"/>
<path style="fill:#aaaaa7; stroke:none;" d="M25 12L26 13L25 12M67 12L68 13L67 12z"/>
<path style="fill:#5b5c5a; stroke:none;" d="M68 12L69 13L68 12M118 12L119 13L118 12z"/>
<path style="fill:#837d76; stroke:none;" d="M123 12L124 13L123 12M14 13L13 15L14 13M25.3333 13.6667L25.6667 14.3333L25.3333 13.6667M67 13L68 14L67 13M77.3333 13.6667L77.6667 14.3333L77.3333 13.6667z"/>
<path style="fill:#5b5c5a; stroke:none;" d="M117 13L118 14L117 13M123 13L124 14L123 13z"/>
<path style="fill:#aaaaa7; stroke:none;" d="M124.333 13.6667L124.667 14.3333L124.333 13.6667z"/>
<path style="fill:#5b5c5a; stroke:none;" d="M14 14L15 15L14 14z"/>
<path style="fill:#aaaaa7; stroke:none;" d="M66 14L67 15L66 14z"/>
<path style="fill:#5b5c5a; stroke:none;" d="M67 14L68 15L67 14z"/>
<path style="fill:#837d76; stroke:none;" d="M116 14L117 15L116 14z"/>
<path style="fill:#aaaaa7; stroke:none;" d="M12 15L11 18L12 18L12 15z"/>
<path style="fill:#5b5c5a; stroke:none;" d="M13 15L14 16L13 15M25 15L26 16L25 15z"/>
<path style="fill:#837d76; stroke:none;" d="M66 15L67 16L66 15z"/>
<path style="fill:#5b5c5a; stroke:none;" d="M77 15L77 18L78 18L77 15M116 15L117 16L116 15z"/>
<path style="fill:#837d76; stroke:none;" d="M124.333 15.6667L124.667 16.3333L124.333 15.6667M12 16L13 17L12 16z"/>
<path style="fill:#aaaaa7; stroke:none;" d="M26 16L27 17L26 16M65 16L64 18L65 16z"/>
<path style="fill:#5b5c5a; stroke:none;" d="M66 16L67 17L66 16z"/>
<path style="fill:#837d76; stroke:none;" d="M115 16L116 17L115 16z"/>
<path style="fill:#5b5c5a; stroke:none;" d="M12 17L13 18L12 17z"/>
<path style="fill:#837d76; stroke:none;" d="M26 17L26 20L27 20L26 17z"/>
<path style="fill:#5b5c5a; stroke:none;" d="M65 17L66 18L65 17z"/>
<path style="fill:#aaaaa7; stroke:none;" d="M78 17L79 18L78 17z"/>
<path style="fill:#5b5c5a; stroke:none;" d="M115 17L116 18L115 17M124 17L125 18L124 17z"/>
<path style="fill:#aaaaa7; stroke:none;" d="M125.333 17.6667L125.667 18.3333L125.333 17.6667z"/>
<path style="fill:#837d76; stroke:none;" d="M11 18L12 19L11 18M64 18L65 19L64 18M78.3333 18.6667L78.6667 19.3333L78.3333 18.6667M114 18L113 20L114 18z"/>
<path style="fill:#aaaaa7; stroke:none;" d="M10 19L7 24L8 24L10 19z"/>
<path style="fill:#5b5c5a; stroke:none;" d="M11 19L12 20L11 19z"/>
<path style="fill:#aaaaa7; stroke:none;" d="M63 19L56 30L57 30L63 19z"/>
<path style="fill:#5b5c5a; stroke:none;" d="M64 19L65 20L64 19M114 19L115 20L114 19z"/>
<path style="fill:#837d76; stroke:none;" d="M125 19L125 22L126 22L125 19z"/>
<path style="fill:#5b5c5a; stroke:none;" d="M10 20L11 21L10 20M26 20L27 21L26 20z"/>
<path style="fill:#aaaaa7; stroke:none;" d="M27.3333 20.6667L27.6667 21.3333L27.3333 20.6667z"/>
<path style="fill:#5b5c5a; stroke:none;" d="M63 20L64 21L63 20M78.3333 20.6667L78.6667 21.3333L78.3333 20.6667M113 20L114 21L113 20z"/>
<path style="fill:#837d76; stroke:none;" d="M9 21L10 22L9 21M62 21L63 22L62 21z"/>
<path style="fill:#5b5c5a; stroke:none;" d="M112 21L113 22L112 21M9 22L10 23L9 22z"/>
<path style="fill:#837d76; stroke:none;" d="M27.3333 22.6667L27.6667 23.3333L27.3333 22.6667z"/>
<path style="fill:#5b5c5a; stroke:none;" d="M62 22L63 23L62 22z"/>
<path style="fill:#aaaaa7; stroke:none;" d="M79 22L80 23L79 22z"/>
<path style="fill:#837d76; stroke:none;" d="M111 22L112 23L111 22z"/>
<path style="fill:#5b5c5a; stroke:none;" d="M125 22L126 23L125 22z"/>
<path style="fill:#aaaaa7; stroke:none;" d="M126.333 22.6667L126.667 23.3333L126.333 22.6667z"/>
<path style="fill:#5b5c5a; stroke:none;" d="M8 23L3 34L4 34L8 23M61 23L62 24L61 23z"/>
<path style="fill:#837d76; stroke:none;" d="M79.3333 23.6667L79.6667 24.3333L79.3333 23.6667z"/>
<path style="fill:#aaaaa7; stroke:none;" d="M110 23L109 25L110 23z"/>
<path style="fill:#5b5c5a; stroke:none;" d="M111 23L112 24L111 23z"/>
<path style="fill:#837d76; stroke:none;" d="M7 24L8 25L7 24z"/>
<path style="fill:#5b5c5a; stroke:none;" d="M27.3333 24.6667L27.6667 25.3333L27.3333 24.6667z"/>
<path style="fill:#837d76; stroke:none;" d="M60 24L61 25L60 24z"/>
<path style="fill:#5b5c5a; stroke:none;" d="M110 24L111 25L110 24z"/>
<path style="fill:#837d76; stroke:none;" d="M126 24L126 27L127 27L126 24z"/>
<path style="fill:#aaaaa7; stroke:none;" d="M6 25L7 26L6 25z"/>
<path style="fill:#5b5c5a; stroke:none;" d="M60 25L61 26L60 25M79 25L80 26L79 25z"/>
<path style="fill:#837d76; stroke:none;" d="M109 25L110 26L109 25M6 26L7 27L6 26z"/>
<path style="fill:#aaaaa7; stroke:none;" d="M28 26L29 27L28 26z"/>
<path style="fill:#5b5c5a; stroke:none;" d="M59 26L60 27L59 26z"/>
<path style="fill:#aaaaa7; stroke:none;" d="M80.3333 26.6667L80.6667 27.3333L80.3333 26.6667M108 26L109 27L108 26M5 27L6 28L5 27z"/>
<path style="fill:#837d76; stroke:none;" d="M28 27L29 28L28 27M58 27L59 28L58 27z"/>
<path style="fill:#5b5c5a; stroke:none;" d="M108 27L109 28L108 27M126 27L127 28L126 27z"/>
<path style="fill:#aaaaa7; stroke:none;" d="M127 27L128 28L127 27M4 28L5 29L4 28z"/>
<path style="fill:#5b5c5a; stroke:none;" d="M28.3333 28.6667L28.6667 29.3333L28.3333 28.6667M58 28L59 29L58 28z"/>
<path style="fill:#837d76; stroke:none;" d="M80.3333 28.6667L80.6667 29.3333L80.3333 28.6667M107 28L108 29L107 28M127 28L127 31L128 31L127 28z"/>
<path style="fill:#aaaaa7; stroke:none;" d="M3.33333 29.6667L3.66667 30.3333L3.33333 29.6667z"/>
<path style="fill:#5b5c5a; stroke:none;" d="M57 29L55 34L59 35L59 34L57 29z"/>
<path style="fill:#aaaaa7; stroke:none;" d="M106 29L107 30L106 29z"/>
<path style="fill:#5b5c5a; stroke:none;" d="M107 29L108 30L107 29z"/>
<path style="fill:#aaaaa7; stroke:none;" d="M29 30L30 31L29 30z"/>
<path style="fill:#837d76; stroke:none;" d="M56 30L57 31L56 30z"/>
<path style="fill:#5b5c5a; stroke:none;" d="M80.3333 30.6667L80.6667 31.3333L80.3333 30.6667z"/>
<path style="fill:#837d76; stroke:none;" d="M106 30L107 31L106 30z"/>
<path style="fill:#aaaaa7; stroke:none;" d="M2 31L3 32L2 31z"/>
<path style="fill:#837d76; stroke:none;" d="M29 31L29 34L30 34L29 31z"/>
<path style="fill:#aaaaa7; stroke:none;" d="M55 31L56 32L55 31z"/>
<path style="fill:#837d76; stroke:none;" d="M105 31L106 32L105 31z"/>
<path style="fill:#5b5c5a; stroke:none;" d="M127 31L128 32L127 31z"/>
<path style="fill:#837d76; stroke:none;" d="M2.33333 32.6667L2.66667 33.3333L2.33333 32.6667M55 32L56 33L55 32z"/>
<path style="fill:#aaaaa7; stroke:none;" d="M81 32L82 33L81 32z"/>
<path style="fill:#5b5c5a; stroke:none;" d="M105 32L106 33L105 32z"/>
<path style="fill:#aaaaa7; stroke:none;" d="M128 32L129 33L128 32M1 33L2 34L1 33M54.3333 33.6667L54.6667 34.3333L54.3333 33.6667z"/>
<path style="fill:#837d76; stroke:none;" d="M81.3333 33.6667L81.6667 34.3333L81.3333 33.6667z"/>
<path style="fill:#aaaaa7; stroke:none;" d="M104 33L103 35L104 33z"/>
<path style="fill:#837d76; stroke:none;" d="M128 33L129 34L128 33z"/>
<path style="fill:#aaaaa7; stroke:none;" d="M2 34L2 35L6 35L2 34z"/>
<path style="fill:#837d76; stroke:none;" d="M6 34L6 35L10 35L6 34z"/>
<path style="fill:#5b5c5a; stroke:none;" d="M10.6667 34.3333L11.3333 34.6667L10.6667 34.3333M29.3333 34.6667L29.6667 35.3333L29.3333 34.6667z"/>
<path style="fill:#837d76; stroke:none;" d="M55.6667 34.3333L56.3333 34.6667L55.6667 34.3333z"/>
<path style="fill:#5b5c5a; stroke:none;" d="M104 34L105 35L104 34M128 34L128 38L129 38L128 34z"/>
<path style="fill:#aaaaa7; stroke:none;" d="M10 35L10 36L12 39L19 43L20 43L22 38L22 37L10 35z"/>
<path style="fill:#837d76; stroke:none;" d="M12 35L13 36L12 35z"/>
<path style="fill:#5b5c5a; stroke:none;" d="M13 35L13 36L16 36L13 35z"/>
<path style="fill:#aaaaa7; stroke:none;" d="M30 35L30 38L31 38L30 35M57.6667 35.3333L58.3333 35.6667L57.6667 35.3333z"/>
<path style="fill:#837d76; stroke:none;" d="M59 35L59 36L62 36L59 35z"/>
<path style="fill:#5b5c5a; stroke:none;" d="M62 35L63 36L62 35M81.3333 35.6667L81.6667 36.3333L81.3333 35.6667z"/>
<path style="fill:#837d76; stroke:none;" d="M103 35L104 36L103 35M15 36L15 37L18 37L15 36z"/>
<path style="fill:#5b5c5a; stroke:none;" d="M18 36L18 37L22 37L18 36z"/>
<path style="fill:#aaaaa7; stroke:none;" d="M61.6667 36.3333L62.3333 36.6667L61.6667 36.3333z"/>
<path style="fill:#837d76; stroke:none;" d="M63 36L63 37L66 38L64 41L71 41L72 39L72 38L63 36z"/>
<path style="fill:#5b5c5a; stroke:none;" d="M65.6667 36.3333L66.3333 36.6667L65.6667 36.3333z"/>
<path style="fill:#aaaaa7; stroke:none;" d="M102.333 36.6667L102.667 37.3333L102.333 36.6667z"/>
<path style="fill:#5b5c5a; stroke:none;" d="M103 36L107 38L107 37L103 36z"/>
<path style="fill:#837d76; stroke:none;" d="M22 37L22 38L27 38L22 37z"/>
<path style="fill:#5b5c5a; stroke:none;" d="M27 37L27 38L30 38L27 37z"/>
<path style="fill:#aaaaa7; stroke:none;" d="M64 37L64 40L66 39L66 38L64 37z"/>
<path style="fill:#5b5c5a; stroke:none;" d="M68 37L68 38L72 38L68 37z"/>
<path style="fill:#aaaaa7; stroke:none;" d="M82 37L83 38L82 37M129 37L130 38L129 37M72 38L73 39L72 38z"/>
<path style="fill:#837d76; stroke:none;" d="M73 38L73 39L77 39L73 38z"/>
<path style="fill:#5b5c5a; stroke:none;" d="M77 38L77 39L80 39L77 38z"/>
<path style="fill:#837d76; stroke:none;" d="M82 38L79 39L79 40L83 39L82 38z"/>
<path style="fill:#aaaaa7; stroke:none;" d="M104 38L104 39L107 39L104 38z"/>
<path style="fill:#837d76; stroke:none;" d="M107 38L108 39L107 38z"/>
<path style="fill:#5b5c5a; stroke:none;" d="M108 38L108 39L113 40L108 38z"/>
<path style="fill:#837d76; stroke:none;" d="M129 38L129 42L130 42L129 38M12.3333 39.6667L12.6667 40.3333L12.3333 39.6667z"/>
<path style="fill:#5b5c5a; stroke:none;" d="M13 39L14 40L13 39z"/>
<path style="fill:#837d76; stroke:none;" d="M14 39L14 40L19 41L14 39z"/>
<path style="fill:#aaaaa7; stroke:none;" d="M70 39L71 42L72 42L72 39L70 39M77.6667 39.3333L78.3333 39.6667L77.6667 39.3333M82 39L83 40L82 39M108 39L108 40L112 40L108 39M11 40C11.0652 45.4996 16.3365 52.024 19 44L18 44L18 47L12 47L11 40z"/>
<path style="fill:#3e3932; stroke:none;" d="M13 40L13 46C16.403 45.4125 17.272 44.3506 18 41L13 40z"/>
<path style="fill:#5b5c5a; stroke:none;" d="M16.6667 40.3333L17.3333 40.6667L16.6667 40.3333z"/>
<path style="fill:#3e3932; stroke:none;" d="M65 40L65 46C68.403 45.4125 69.272 44.3506 70 41L65 40z"/>
<path style="fill:#5b5c5a; stroke:none;" d="M68.6667 40.3333L69.3333 40.6667L68.6667 40.3333z"/>
<path style="fill:#837d76; stroke:none;" d="M112 40L112 45L113 45L112 40z"/>
<path style="fill:#5b5c5a; stroke:none;" d="M120 40L120 41L129 42L120 40M12 41L12 46L13 46L12 41M18.3333 41.6667L18.6667 42.3333L18.3333 41.6667z"/>
<path style="fill:#aaaaa7; stroke:none;" d="M63 41C63.2118 47.4507 69.7099 50.7307 71 43L70 43L70 47L64 47L63 41z"/>
<path style="fill:#5b5c5a; stroke:none;" d="M64 41C64.3002 44.8644 65.0892 46.3483 69 47L69 46L65 46L64 41M70 41L71 42L70 41z"/>
<path style="fill:#837d76; stroke:none;" d="M119 41L120 42L119 41z"/>
<path style="fill:#aaaaa7; stroke:none;" d="M120 41L120 42L126 42L120 41z"/>
<path style="fill:#837d76; stroke:none;" d="M70 42L71 43L70 42z"/>
<path style="fill:#5b5c5a; stroke:none;" d="M118 42L119 43L118 42z"/>
<path style="fill:#aaaaa7; stroke:none;" d="M119 42L118 48L112 45L111 45L111 49C115.836 48.9427 120.311 47.8386 119 42M126 42L126 43L129 43L126 42z"/>
<path style="fill:#837d76; stroke:none;" d="M18 43L19 44L18 43M118 43L119 44L118 43z"/>
<path style="fill:#5b5c5a; stroke:none;" d="M17 44L14 46L14 47L17 44M69 44L70 45L69 44M117 44L113 45L112 45C112.729 48.4029 114.806 47.9865 118 48L117 44z"/>
<path style="fill:#837d76; stroke:none;" d="M69.3333 45.6667L69.6667 46.3333L69.3333 45.6667M12.6667 46.3333L13.3333 46.6667L12.6667 46.3333M17 46L18 47L17 46M64 46L65 47L64 46z"/>
<path style="fill:#aaaaa7; stroke:none;" d="M9 55L8 64L9 64L10 56L16 57L16 61C17.5368 56.3056 12.7383 55.5184 9 55M61 55L61 56L68 58L68 57L61 55z"/>
<path style="fill:#837d76; stroke:none;" d="M9 58L12 57L9 58M61 56L61 57L64 57L61 56z"/>
<path style="fill:#3e3932; stroke:none;" d="M10 57L10 63C15.2381 62.0903 15.2759 57.8826 10 57z"/>
<path style="fill:#5b5c5a; stroke:none;" d="M14 57L15 60L16 60L16 57L14 57z"/>
<path style="fill:#aaaaa7; stroke:none;" d="M60 57L60 64L61 64L60 57z"/>
<path style="fill:#5b5c5a; stroke:none;" d="M61 57C61.1204 60.6916 61.3133 62.7774 65 64L65 63L62 63L63 57L61 57z"/>
<path style="fill:#3e3932; stroke:none;" d="M63 57L62 63L66 64L67 58L63 57z"/>
<path style="fill:#5b5c5a; stroke:none;" d="M64 57L64 58L67 58L64 57M9 58L9 63L10 63L9 58z"/>
<path style="fill:#837d76; stroke:none;" d="M67 58L68 59L67 58z"/>
<path style="fill:#aaaaa7; stroke:none;" d="M109 58L108 63L109 63L109 58z"/>
<path style="fill:#837d76; stroke:none;" d="M110 58L110 59L113 59L110 58z"/>
<path style="fill:#aaaaa7; stroke:none;" d="M113 58L113 59L116 62L117 62L113 58z"/>
<path style="fill:#5b5c5a; stroke:none;" d="M66 59L66 63L67 63L66 59z"/>
<path style="fill:#aaaaa7; stroke:none;" d="M67 59L66 65L67 65L67 59z"/>
<path style="fill:#5b5c5a; stroke:none;" d="M109 59L111 65L109 59z"/>
<path style="fill:#3e3932; stroke:none;" d="M110 59C110.263 62.4098 110.679 63.9011 114 65L115 59L110 59z"/>
<path style="fill:#837d76; stroke:none;" d="M115 59L116 60L115 59M15.3333 60.6667L15.6667 61.3333L15.3333 60.6667z"/>
<path style="fill:#5b5c5a; stroke:none;" d="M115 60L116 61L115 60M14 61L12 63L12 64C14.2508 63.5268 15.1178 63.1397 14 61z"/>
<path style="fill:#837d76; stroke:none;" d="M115.333 61.6667L115.667 62.3333L115.333 61.6667z"/>
<path style="fill:#aaaaa7; stroke:none;" d="M15 62L12 64L12 65C14.348 64.7058 15.951 64.5066 15 62z"/>
<path style="fill:#837d76; stroke:none;" d="M9 63L9 64L12 64L9 63M61 63L62 64L61 63M66 63L67 64L66 63M108.333 63.6667L108.667 64.3333L108.333 63.6667z"/>
<path style="fill:#5b5c5a; stroke:none;" d="M114.333 63.6667L114.667 64.3333L114.333 63.6667z"/>
<path style="fill:#aaaaa7; stroke:none;" d="M115.333 63.6667L115.667 64.3333L115.333 63.6667M63.6667 64.3333L64.3333 64.6667L63.6667 64.3333z"/>
<path style="fill:#837d76; stroke:none;" d="M65 64L66 65L65 64z"/>
<path style="fill:#aaaaa7; stroke:none;" d="M108.667 65.3333L109.333 65.6667L108.667 65.3333z"/>
<path style="fill:#837d76; stroke:none;" d="M110 65L110 66L115 66L110 65z"/>
<path style="fill:#aaaaa7; stroke:none;" d="M6 76L7 76L12 74C9.11956 72.902 7.64978 73.4455 6 76M57 76L58 76L63 74C60.1196 72.902 58.6498 73.4455 57 76z"/>
<path style="fill:#837d76; stroke:none;" d="M7 74L8 75L7 74z"/>
<path style="fill:#5b5c5a; stroke:none;" d="M7 75L7 76L11 75L7 75z"/>
<path style="fill:#837d76; stroke:none;" d="M11.6667 74.3333L12.3333 74.6667L11.6667 74.3333z"/>
<path style="fill:#aaaaa7; stroke:none;" d="M13 74L14 84L6 84L6 85C13.4912 84.9735 17.4469 81.4235 13 74z"/>
<path style="fill:#837d76; stroke:none;" d="M58 74L59 75L58 74z"/>
<path style="fill:#5b5c5a; stroke:none;" d="M59 74C57.2498 77.701 56.4301 81.2794 60 84C58.7221 80.2501 58.2499 78.0419 61 75L59 74z"/>
<path style="fill:#837d76; stroke:none;" d="M61 74L61 75L64 75L61 74z"/>
<path style="fill:#aaaaa7; stroke:none;" d="M106 76L109 75L106 76z"/>
<path style="fill:#3e3932; stroke:none;" d="M7 83L13 83C12.8958 74.205 7.10424 74.205 7 83z"/>
<path style="fill:#5b5c5a; stroke:none;" d="M12 75L13 76L12 75z"/>
<path style="fill:#3e3932; stroke:none;" d="M65 84L63 75C55.423 76.3159 58.7359 83.5161 65 84z"/>
<path style="fill:#5b5c5a; stroke:none;" d="M63 75L65 84L66 84L63 75z"/>
<path style="fill:#aaaaa7; stroke:none;" d="M64 75L66 85L59 85L59 86C66.8217 85.9073 68.5598 81.4126 64 75z"/>
<path style="fill:#837d76; stroke:none;" d="M106 79L107 79L107 76L113 77C109.803 74.6198 107.279 75.1488 106 79z"/>
<path style="fill:#aaaaa7; stroke:none;" d="M112 75L113 76L112 75z"/>
<path style="fill:#837d76; stroke:none;" d="M6 76L7 77L6 76M57 76L58 77L57 76z"/>
<path style="fill:#3e3932; stroke:none;" d="M107 76L111 83C111.646 78.8358 111.465 76.7473 107 76z"/>
<path style="fill:#5b5c5a; stroke:none;" d="M111 76L112 77L111 76z"/>
<path style="fill:#aaaaa7; stroke:none;" d="M5 77L5 83L6 83L5 77z"/>
<path style="fill:#5b5c5a; stroke:none;" d="M6 77C6.24354 84.4164 13.369 86.0987 14 78L13 78L13 83L7 83L6 77z"/>
<path style="fill:#837d76; stroke:none;" d="M13 77L14 78L13 77z"/>
<path style="fill:#aaaaa7; stroke:none;" d="M40 77C40.0985 85.312 49.2729 88.3314 50 79L49 79L49 84L41 84L41 78L49 78L40 77M56 77L56 81L57 81L56 77z"/>
<path style="fill:#5b5c5a; stroke:none;" d="M112 77L113 78L112 77z"/>
<path style="fill:#837d76; stroke:none;" d="M24 78L24 79L31 79L31 84C33.0389 78.6333 28.281 78.0507 24 78z"/>
<path style="fill:#aaaaa7; stroke:none;" d="M31 78L32 79L31 78z"/>
<path style="fill:#837d76; stroke:none;" d="M41 78L41 79L49 79L41 78M64 78L65 79L64 78z"/>
<path style="fill:#aaaaa7; stroke:none;" d="M75 78L74 81L75 81L75 78z"/>
<path style="fill:#837d76; stroke:none;" d="M76 78L77 79L76 78z"/>
<path style="fill:#aaaaa7; stroke:none;" d="M77 78L77 79L83 79L83 85L75 85C83.5111 88.5626 87.1899 78.3346 77 78M92 78C92.1953 94.4781 108.172 79.1075 97.0054 78.0586C95.3587 77.904 93.6512 78.0013 92 78z"/>
<path style="fill:#837d76; stroke:none;" d="M112 78L113 79L112 78z"/>
<path style="fill:#aaaaa7; stroke:none;" d="M23 79C23.4602 84.9069 26.738 84.9814 32 85L32 84L24 84L23 79z"/>
<path style="fill:#3e3932; stroke:none;" d="M24 79L24 83L31 83L31 79L24 79z"/>
<path style="fill:#5b5c5a; stroke:none;" d="M41 79L41 84L49 82L42 83L41 79z"/>
<path style="fill:#3e3932; stroke:none;" d="M42 79L42 83L49 82L42 79z"/>
<path style="fill:#5b5c5a; stroke:none;" d="M48.3333 79.6667L48.6667 80.3333L48.3333 79.6667z"/>
<path style="fill:#837d76; stroke:none;" d="M65 79L66 80L65 79z"/>
<path style="fill:#5b5c5a; stroke:none;" d="M75 81L83 80L75 81M93 79C93.8765 90.2492 107.088 79.167 93 79z"/>
<path style="fill:#837d76; stroke:none;" d="M100 79L101 80L100 79z"/>
<path style="fill:#aaaaa7; stroke:none;" d="M105.333 79.6667L105.667 80.3333L105.333 79.6667z"/>
<path style="fill:#5b5c5a; stroke:none;" d="M106 79L108 82L106 79z"/>
<path style="fill:#aaaaa7; stroke:none;" d="M112.333 79.6667L112.667 80.3333L112.333 79.6667z"/>
<path style="fill:#3e3932; stroke:none;" d="M76 80L76 84L83 84L83 80L76 80M94 80L94 84L100 84L100 80L94 80z"/>
<path style="fill:#5b5c5a; stroke:none;" d="M111 80L109 82L109 83L112 84L111 80z"/>
<path style="fill:#837d76; stroke:none;" d="M57 81L58 82L57 81M75 81L75 85L76 85L75 81M105 81L106 82L105 81z"/>
<path style="fill:#aaaaa7; stroke:none;" d="M57.3333 82.6667L57.6667 83.3333L57.3333 82.6667M105.667 82.3333L106.333 82.6667L105.667 82.3333z"/>
<path style="fill:#837d76; stroke:none;" d="M107.667 82.3333L108.333 82.6667L107.667 82.3333M6 83L7 84L6 83M13 83L14 84L13 83z"/>
<path style="fill:#5b5c5a; stroke:none;" d="M24 83L24 84L31 84L24 83z"/>
<path style="fill:#aaaaa7; stroke:none;" d="M109 83L110 84L109 83z"/>
<path style="fill:#837d76; stroke:none;" d="M58 84L58 85L66 85L58 84z"/>
<path style="fill:#5b5c5a; stroke:none;" d="M76.6667 84.3333L77.3333 84.6667L76.6667 84.3333z"/>
<path style="fill:#837d76; stroke:none;" d="M78 84L79 85L78 84z"/>
<path style="fill:#5b5c5a; stroke:none;" d="M79 84L79 85L83 85L79 84z"/>
<path style="fill:#837d76; stroke:none;" d="M93 84L94 85L93 84M100 84L101 85L100 84z"/>
<path style="fill:#aaaaa7; stroke:none;" d="M110.667 84.3333L111.333 84.6667L110.667 84.3333z"/>
</svg>
